Upgrade-Regular_84.ufo
<glyph name="ampersand" format="2">
  <advance width="611"/>
  <unicode hex="0026"/>
  <guideline x="-300" y="-14" angle="0" name="Overshoot (-14/14)"/>
  <guideline x="-300" y="672" angle="0" name="Overshoot (672/14)"/>
  <outline>
    <contour>
      <point x="247" y="-14" type="curve" smooth="yes"/>
      <point x="329" y="-14"/>
      <point x="384" y="20"/>
      <point x="425" y="63" type="curve"/>
      <point x="479" y="0" type="line"/>
      <point x="591" y="0" type="line"/>
      <point x="476" y="133" type="line"/>
      <point x="515" y="195"/>
      <point x="534" y="284"/>
      <point x="534" y="385" type="curve"/>
      <point x="458" y="385" type="line"/>
      <point x="458" y="303"/>
      <point x="446" y="240"/>
      <point x="423" y="194" type="curve"/>
      <point x="270" y="371" type="line" smooth="yes"/>
      <point x="231" y="417"/>
      <point x="210" y="457"/>
      <point x="210" y="498" type="curve" smooth="yes"/>
      <point x="210" y="558"/>
      <point x="253" y="597"/>
      <point x="319" y="597" type="curve" smooth="yes"/>
      <point x="367" y="597"/>
      <point x="415" y="577"/>
      <point x="459" y="537" type="curve"/>
      <point x="459" y="622" type="line"/>
      <point x="414" y="655"/>
      <point x="362" y="672"/>
      <point x="310" y="672" type="curve" smooth="yes"/>
      <point x="198" y="672"/>
      <point x="126" y="605"/>
      <point x="126" y="504" type="curve" smooth="yes"/>
      <point x="126" y="461"/>
      <point x="138" y="417"/>
      <point x="163" y="375" type="curve"/>
      <point x="82" y="333"/>
      <point x="41" y="263"/>
      <point x="41" y="181" type="curve" smooth="yes"/>
      <point x="41" y="66"/>
      <point x="119" y="-14"/>
    </contour>
    <contour>
      <point x="126" y="185" type="curve" smooth="yes"/>
      <point x="126" y="244"/>
      <point x="152" y="286"/>
      <point x="207" y="317" type="curve"/>
      <point x="376" y="120" type="line"/>
      <point x="347" y="85"/>
      <point x="308" y="60"/>
      <point x="257" y="60" type="curve" smooth="yes"/>
      <point x="177" y="60"/>
      <point x="126" y="111"/>
    </contour>
  </outline>
</glyph>
<glyph name="parenleft" format="2">
  <advance width="335"/>
  <unicode hex="0028"/>
  <guideline x="-300" y="-10" angle="0" name="Overshoot (-10/10)"/>
  <guideline x="-300" y="476" angle="0" name="Overshoot (476/10)"/>
  <outline>
    <contour>
      <point x="224" y="-220" type="curve"/>
      <point x="319" y="-220" type="line"/>
      <point x="206" y="-84"/>
      <point x="140" y="92"/>
      <point x="140" y="250" type="curve" smooth="yes"/>
      <point x="140" y="408"/>
      <point x="206" y="584"/>
      <point x="319" y="720" type="curve"/>
      <point x="224" y="720" type="line"/>
      <point x="120" y="593"/>
      <point x="58" y="418"/>
      <point x="58" y="250" type="curve" smooth="yes"/>
      <point x="58" y="84"/>
      <point x="120" y="-93"/>
    </contour>
  </outline>
</glyph>
<glyph name="parenright" format="2">
  <advance width="335"/>
  <unicode hex="0029"/>
  <guideline x="-300" y="-10" angle="0" name="Overshoot (-10/10)"/>
  <guideline x="-300" y="476" angle="0" name="Overshoot (476/10)"/>
  <outline>
    <contour>
      <point x="16" y="-220" type="curve"/>
      <point x="111" y="-220" type="line"/>
      <point x="215" y="-93"/>
      <point x="277" y="84"/>
      <point x="277" y="250" type="curve" smooth="yes"/>
      <point x="277" y="418"/>
      <point x="215" y="593"/>
      <point x="111" y="720" type="curve"/>
      <point x="16" y="720" type="line"/>
      <point x="129" y="584"/>
      <point x="195" y="408"/>
      <point x="195" y="250" type="curve" smooth="yes"/>
      <point x="195" y="92"/>
      <point x="129" y="-84"/>
    </contour>
  </outline>
</glyph>
<glyph name="two" format="2">
  <advance width="499"/>
  <unicode hex="0032"/>
  <guideline x="-300" y="-14" angle="0" name="Overshoot (-14/14)"/>
  <guideline x="-300" y="672" angle="0" name="Overshoot (672/14)"/>
  <outline>
    <contour>
      <point x="53" y="0" type="line"/>
      <point x="446" y="0" type="line"/>
      <point x="446" y="84" type="line"/>
      <point x="124" y="85" type="line"/>
      <point x="217" y="150" type="line" smooth="yes"/>
      <point x="343" y="238"/>
      <point x="445" y="327"/>
      <point x="445" y="469" type="curve" smooth="yes"/>
      <point x="445" y="593"/>
      <point x="366" y="672"/>
      <point x="230" y="672" type="curve" smooth="yes"/>
      <point x="166" y="672"/>
      <point x="111" y="655"/>
      <point x="58" y="620" type="curve"/>
      <point x="58" y="531" type="line"/>
      <point x="109" y="574"/>
      <point x="162" y="593"/>
      <point x="229" y="593" type="curve" smooth="yes"/>
      <point x="307" y="593"/>
      <point x="362" y="543"/>
      <point x="362" y="460" type="curve" smooth="yes"/>
      <point x="362" y="355"/>
      <point x="268" y="283"/>
      <point x="143" y="185" type="curve" smooth="yes"/>
      <point x="53" y="114" type="line"/>
    </contour>
  </outline>
</glyph>
<glyph name="three" format="2">
  <advance width="498"/>
  <unicode hex="0033"/>
  <guideline x="-300" y="-14" angle="0" name="Overshoot (-14/14)"/>
  <guideline x="-300" y="672" angle="0" name="Overshoot (672/14)"/>
  <outline>
    <contour>
      <point x="244" y="-14" type="curve" smooth="yes"/>
      <point x="371" y="-14"/>
      <point x="451" y="58"/>
      <point x="451" y="170" type="curve" smooth="yes"/>
      <point x="451" y="261"/>
      <point x="390" y="321"/>
      <point x="300" y="337" type="curve"/>
      <point x="391" y="357"/>
      <point x="439" y="420"/>
      <point x="439" y="506" type="curve" smooth="yes"/>
      <point x="439" y="602"/>
      <point x="366" y="672"/>
      <point x="233" y="672" type="curve" smooth="yes"/>
      <point x="176" y="672"/>
      <point x="118" y="655"/>
      <point x="71" y="623" type="curve"/>
      <point x="71" y="537" type="line"/>
      <point x="116" y="573"/>
      <point x="174" y="593"/>
      <point x="233" y="593" type="curve" smooth="yes"/>
      <point x="302" y="593"/>
      <point x="354" y="557"/>
      <point x="354" y="492" type="curve" smooth="yes"/>
      <point x="354" y="415"/>
      <point x="292" y="374"/>
      <point x="192" y="374" type="curve" smooth="yes"/>
      <point x="161" y="374" type="line"/>
      <point x="161" y="295" type="line"/>
      <point x="197" y="295" type="line" smooth="yes"/>
      <point x="303" y="295"/>
      <point x="366.0" y="255"/>
      <point x="366" y="177" type="curve" smooth="yes"/>
      <point x="366" y="106"/>
      <point x="315" y="65"/>
      <point x="235" y="65" type="curve" smooth="yes"/>
      <point x="169" y="65"/>
      <point x="99" y="90"/>
      <point x="47" y="133" type="curve"/>
      <point x="47" y="44" type="line"/>
      <point x="105" y="7"/>
      <point x="175" y="-14"/>
    </contour>
  </outline>
</glyph>
<glyph name="four" format="2">
  <advance width="562"/>
  <unicode hex="0034"/>
  <guideline x="-300" y="-14" angle="0" name="Overshoot (-14/14)"/>
  <guideline x="-300" y="672" angle="0" name="Overshoot (672/14)"/>
  <outline>
    <contour>
      <point x="341" y="0" type="line"/>
      <point x="425" y="0" type="line"/>
      <point x="425" y="172" type="line"/>
      <point x="519" y="172" type="line"/>
      <point x="519" y="247" type="line"/>
      <point x="425" y="247" type="line"/>
      <point x="425" y="658" type="line"/>
      <point x="322" y="658" type="line"/>
      <point x="42" y="231" type="line"/>
      <point x="42" y="172" type="line"/>
      <point x="341" y="172" type="line"/>
    </contour>
    <contour>
      <point x="341" y="247" type="line"/>
      <point x="135" y="247" type="line"/>
      <point x="341" y="555" type="line"/>
    </contour>
  </outline>
</glyph>
<glyph name="five" format="2">
  <advance width="516"/>
  <unicode hex="0035"/>
  <guideline x="-300" y="-14" angle="0" name="Overshoot (-14/14)"/>
  <guideline x="-300" y="672" angle="0" name="Overshoot (672/14)"/>
  <outline>
    <contour>
      <point x="238" y="-14" type="curve" smooth="yes"/>
      <point x="373" y="-14"/>
      <point x="463" y="71"/>
      <point x="463" y="197" type="curve" smooth="yes"/>
      <point x="463" y="323"/>
      <point x="375" y="400"/>
      <point x="234" y="400" type="curve" smooth="yes"/>
      <point x="210" y="400"/>
      <point x="182" y="398"/>
      <point x="156" y="394" type="curve"/>
      <point x="171" y="578" type="line"/>
      <point x="442" y="578" type="line"/>
      <point x="442" y="658" type="line"/>
      <point x="94" y="658" type="line"/>
      <point x="68" y="305" type="line"/>
      <point x="123" y="315"/>
      <point x="169" y="319"/>
      <point x="218" y="319" type="curve" smooth="yes"/>
      <point x="315" y="319"/>
      <point x="377" y="274"/>
      <point x="377" y="193" type="curve" smooth="yes"/>
      <point x="377" y="109"/>
      <point x="315" y="65"/>
      <point x="233" y="65" type="curve" smooth="yes"/>
      <point x="163" y="65"/>
      <point x="104" y="88"/>
      <point x="53" y="132" type="curve"/>
      <point x="53" y="44" type="line"/>
      <point x="107" y="4"/>
      <point x="165" y="-14"/>
    </contour>
  </outline>
</glyph>
<glyph name="eight" format="2">
  <advance width="537"/>
  <unicode hex="0038"/>
  <guideline x="-300" y="-14" angle="0" name="Overshoot (-14/14)"/>
  <guideline x="-300" y="672" angle="0" name="Overshoot (672/14)"/>
  <outline>
    <contour>
      <point x="269" y="-14" type="curve" smooth="yes"/>
      <point x="409" y="-14"/>
      <point x="484" y="66"/>
      <point x="484" y="172" type="curve" smooth="yes"/>
      <point x="484" y="252"/>
      <point x="437" y="305"/>
      <point x="355" y="344" type="curve"/>
      <point x="432" y="379"/>
      <point x="473" y="431"/>
      <point x="473" y="505" type="curve" smooth="yes"/>
      <point x="473" y="598"/>
      <point x="398" y="672"/>
      <point x="269" y="672" type="curve" smooth="yes"/>
      <point x="139" y="672"/>
      <point x="66" y="593"/>
      <point x="66" y="495" type="curve" smooth="yes"/>
      <point x="66" y="422"/>
      <point x="104" y="372"/>
      <point x="175" y="335" type="curve"/>
      <point x="98" y="299"/>
      <point x="53" y="243"/>
      <point x="53" y="166" type="curve" smooth="yes"/>
      <point x="53" y="66"/>
      <point x="126" y="-14"/>
    </contour>
    <contour>
      <point x="152" y="496" type="curve" smooth="yes"/>
      <point x="152" y="556"/>
      <point x="200" y="600"/>
      <point x="269" y="600" type="curve" smooth="yes"/>
      <point x="339" y="600"/>
      <point x="386" y="556"/>
      <point x="386" y="497" type="curve" smooth="yes"/>
      <point x="386" y="438"/>
      <point x="344" y="396"/>
      <point x="274" y="375" type="curve"/>
      <point x="259" y="380" type="line" smooth="yes"/>
      <point x="194" y="402"/>
      <point x="152" y="442"/>
    </contour>
    <contour>
      <point x="138" y="171" type="curve" smooth="yes"/>
      <point x="138" y="234"/>
      <point x="183" y="279"/>
      <point x="253" y="303" type="curve"/>
      <point x="279" y="294" type="line" smooth="yes"/>
      <point x="353" y="268"/>
      <point x="397" y="232"/>
      <point x="397" y="171" type="curve" smooth="yes"/>
      <point x="397" y="108"/>
      <point x="352" y="58"/>
      <point x="268" y="58" type="curve" smooth="yes"/>
      <point x="188" y="58"/>
      <point x="138" y="110"/>
    </contour>
  </outline>
</glyph>
<glyph name="nine" format="2">
  <advance width="547"/>
  <unicode hex="0039"/>
  <guideline x="-300" y="-14" angle="0" name="Overshoot (-14/14)"/>
  <guideline x="-300" y="672" angle="0" name="Overshoot (672/14)"/>
  <outline>
    <contour>
      <point x="222" y="-14" type="curve" smooth="yes"/>
      <point x="387" y="-14"/>
      <point x="497" y="120"/>
      <point x="497" y="383" type="curve" smooth="yes"/>
      <point x="497" y="582"/>
      <point x="404" y="672"/>
      <point x="275" y="672" type="curve" smooth="yes"/>
      <point x="147" y="672"/>
      <point x="51" y="587"/>
      <point x="51" y="443" type="curve" smooth="yes"/>
      <point x="51" y="315"/>
      <point x="135" y="230"/>
      <point x="256" y="230" type="curve" smooth="yes"/>
      <point x="319" y="230"/>
      <point x="377" y="257"/>
      <point x="410" y="313" type="curve"/>
      <point x="396" y="144"/>
      <point x="324" y="64"/>
      <point x="216" y="64" type="curve" smooth="yes"/>
      <point x="170" y="64"/>
      <point x="121" y="78"/>
      <point x="83" y="97" type="curve"/>
      <point x="83" y="12" type="line"/>
      <point x="125" y="-4"/>
      <point x="175" y="-14"/>
    </contour>
    <contour>
      <point x="270" y="303" type="curve" smooth="yes"/>
      <point x="189" y="303"/>
      <point x="135" y="367"/>
      <point x="135" y="447" type="curve" smooth="yes"/>
      <point x="135" y="534"/>
      <point x="191" y="598"/>
      <point x="275" y="598" type="curve" smooth="yes"/>
      <point x="359" y="598"/>
      <point x="409" y="527"/>
      <point x="410" y="422" type="curve"/>
      <point x="403" y="354"/>
      <point x="346" y="303"/>
    </contour>
  </outline>
</glyph>
<glyph name="equal" format="2">
  <advance width="504"/>
  <unicode hex="003D"/>
  <guideline x="-300" y="-10" angle="0" name="Overshoot (-10/10)"/>
  <guideline x="-300" y="476" angle="0" name="Overshoot (476/10)"/>
  <outline>
    <contour>
      <point x="44" y="335" type="line"/>
      <point x="460" y="335" type="line"/>
      <point x="460" y="407" type="line"/>
      <point x="44" y="407" type="line"/>
    </contour>
    <contour>
      <point x="44" y="171" type="line"/>
      <point x="460" y="171" type="line"/>
      <point x="460" y="242" type="line"/>
      <point x="44" y="242" type="line"/>
    </contour>
  </outline>
</glyph>
<glyph name="question" format="2">
  <advance width="459"/>
  <unicode hex="003F"/>
  <guideline x="-300" y="-10" angle="0" name="Overshoot (-10/10)"/>
  <guideline x="-300" y="476" angle="0" name="Overshoot (476/10)"/>
  <outline>
    <contour>
      <point x="172" y="189" type="curve"/>
      <point x="250" y="189" type="line"/>
      <point x="250" y="254"/>
      <point x="275" y="303"/>
      <point x="329" y="353" type="curve" smooth="yes"/>
      <point x="395" y="413"/>
      <point x="419" y="469"/>
      <point x="419" y="542" type="curve" smooth="yes"/>
      <point x="419" y="645"/>
      <point x="343" y="730"/>
      <point x="204" y="730" type="curve" smooth="yes"/>
      <point x="147" y="730"/>
      <point x="87" y="713"/>
      <point x="40" y="685" type="curve"/>
      <point x="40" y="601" type="line"/>
      <point x="80" y="636"/>
      <point x="135" y="656"/>
      <point x="191" y="656" type="curve" smooth="yes"/>
      <point x="279" y="656"/>
      <point x="335" y="603"/>
      <point x="335" y="535" type="curve" smooth="yes"/>
      <point x="335" y="479"/>
      <point x="314" y="436"/>
      <point x="266" y="391" type="curve" smooth="yes"/>
      <point x="197" y="328"/>
      <point x="172" y="266"/>
    </contour>
    <contour>
      <point x="169" y="0" type="line"/>
      <point x="254" y="0" type="line"/>
      <point x="254" y="85" type="line"/>
      <point x="169" y="85" type="line"/>
    </contour>
  </outline>
</glyph>
<glyph name="at" format="2">
  <advance width="802"/>
  <unicode hex="0040"/>
  <guideline x="-300" y="-10" angle="0" name="Overshoot (-10/10)"/>
  <guideline x="-300" y="476" angle="0" name="Overshoot (476/10)"/>
  <outline>
    <contour>
      <point x="395" y="-71" type="curve" smooth="yes"/>
      <point x="454" y="-71"/>
      <point x="515" y="-58"/>
      <point x="573" y="-32" type="curve"/>
      <point x="573" y="28" type="line"/>
      <point x="518" y="-1"/>
      <point x="457" y="-16"/>
      <point x="395" y="-16" type="curve" smooth="yes"/>
      <point x="222" y="-16"/>
      <point x="106" y="117"/>
      <point x="106" y="276" type="curve" smooth="yes"/>
      <point x="106" y="435"/>
      <point x="223" y="571"/>
      <point x="400" y="571" type="curve" smooth="yes"/>
      <point x="578" y="571"/>
      <point x="697" y="452"/>
      <point x="697" y="312" type="curve" smooth="yes"/>
      <point x="697" y="214"/>
      <point x="660" y="160"/>
      <point x="601" y="160" type="curve" smooth="yes"/>
      <point x="547" y="160"/>
      <point x="517" y="205"/>
      <point x="527" y="279" type="curve" smooth="yes"/>
      <point x="547" y="435" type="line"/>
      <point x="514" y="446"/>
      <point x="470" y="452"/>
      <point x="437" y="452" type="curve" smooth="yes"/>
      <point x="316" y="452"/>
      <point x="226" y="368"/>
      <point x="226" y="245" type="curve" smooth="yes"/>
      <point x="226" y="158"/>
      <point x="276" y="107"/>
      <point x="349" y="107" type="curve" smooth="yes"/>
      <point x="397" y="107"/>
      <point x="450" y="132"/>
      <point x="478" y="203" type="curve"/>
      <point x="497" y="136"/>
      <point x="543" y="107"/>
      <point x="598" y="107" type="curve" smooth="yes"/>
      <point x="690" y="107"/>
      <point x="754" y="188"/>
      <point x="754" y="313" type="curve" smooth="yes"/>
      <point x="754" y="501"/>
      <point x="591" y="626"/>
      <point x="400" y="626" type="curve" smooth="yes"/>
      <point x="210" y="626"/>
      <point x="48" y="484"/>
      <point x="48" y="275" type="curve" smooth="yes"/>
      <point x="48" y="66"/>
      <point x="207" y="-71"/>
    </contour>
    <contour>
      <point x="363" y="161" type="curve" smooth="yes"/>
      <point x="315" y="161"/>
      <point x="286" y="195"/>
      <point x="286" y="251" type="curve" smooth="yes"/>
      <point x="286" y="338"/>
      <point x="350" y="400"/>
      <point x="429" y="400" type="curve" smooth="yes"/>
      <point x="449" y="400"/>
      <point x="466" y="397"/>
      <point x="482" y="393" type="curve"/>
      <point x="475" y="340" type="line" smooth="yes"/>
      <point x="453" y="176"/>
      <point x="401" y="161"/>
    </contour>
  </outline>
</glyph>
<glyph name="F" format="2">
  <advance width="450"/>
  <unicode hex="0046"/>
  <guideline x="-300" y="-14" angle="0" name="Overshoot (-14/14)" identifier="sbzzI1TMWI"/>
  <guideline x="-300" y="672" angle="0" name="Overshoot (672/14)" identifier="432zk7fQtz"/>
  <outline>
    <contour>
      <point x="72" y="0" type="line"/>
      <point x="156" y="0" type="line"/>
      <point x="156" y="291" type="line"/>
      <point x="390" y="291" type="line"/>
      <point x="390" y="369" type="line"/>
      <point x="156" y="369" type="line"/>
      <point x="156" y="579" type="line"/>
      <point x="414" y="579" type="line"/>
      <point x="414" y="658" type="line"/>
      <point x="72" y="658" type="line"/>
    </contour>
  </outline>
</glyph>
<glyph name="G" format="2">
  <advance width="688"/>
  <unicode hex="0047"/>
  <guideline x="-300" y="-14" angle="0" name="Overshoot (-14/14)" identifier="JQnKe8ABNg"/>
  <guideline x="-300" y="672" angle="0" name="Overshoot (672/14)" identifier="yXyUNgTI77"/>
  <anchor x="387.0" y="16" name="bottom"/>
  <anchor x="385.0" y="642" name="top"/>
  <outline>
    <contour>
      <point x="388" y="-14" type="curve" smooth="yes"/>
      <point x="472" y="-14"/>
      <point x="557" y="5"/>
      <point x="630" y="39" type="curve"/>
      <point x="630" y="337" type="line"/>
      <point x="407" y="337" type="line"/>
      <point x="407" y="258" type="line"/>
      <point x="546" y="258" type="line"/>
      <point x="546" y="94" type="line"/>
      <point x="497" y="74"/>
      <point x="442" y="64"/>
      <point x="383" y="64" type="curve" smooth="yes"/>
      <point x="232" y="64"/>
      <point x="134" y="168"/>
      <point x="134" y="331" type="curve" smooth="yes"/>
      <point x="134" y="492"/>
      <point x="234" y="594"/>
      <point x="393" y="594" type="curve" smooth="yes"/>
      <point x="471" y="594"/>
      <point x="539" y="578"/>
      <point x="602" y="545" type="curve"/>
      <point x="602" y="628" type="line"/>
      <point x="539" y="656"/>
      <point x="463" y="672"/>
      <point x="390" y="672" type="curve" smooth="yes"/>
      <point x="182" y="672"/>
      <point x="48" y="538"/>
      <point x="48" y="331" type="curve" smooth="yes"/>
      <point x="48" y="122"/>
      <point x="181" y="-14"/>
    </contour>
  </outline>
</glyph>
<glyph name="I" format="2">
  <advance width="228"/>
  <unicode hex="0049"/>
  <guideline x="-300" y="-10" angle="0" name="Overshoot (-10/10)" identifier="HEWWp0RRK1"/>
  <guideline x="-300" y="668" angle="0" name="Overshoot (668/10)" identifier="Om1cuDtUoS"/>
  <anchor x="150.0" y="16" name="ogonek"/>
  <anchor x="114.0" y="642" name="top"/>
  <outline>
    <contour>
      <point x="72" y="0" type="line"/>
      <point x="156" y="0" type="line"/>
      <point x="156" y="658" type="line"/>
      <point x="72" y="658" type="line"/>
    </contour>
  </outline>
</glyph>
<glyph name="J" format="2">
  <advance width="230"/>
  <unicode hex="004A"/>
  <guideline x="-300" y="-14" angle="0" name="Overshoot (-14/14)" identifier="eyfkpWCKzG"/>
  <guideline x="-300" y="672" angle="0" name="Overshoot (672/14)" identifier="lOtqzgLeNb"/>
  <anchor x="115.0" y="642" name="top"/>
  <outline>
    <contour>
      <point x="-18" y="-220" type="line" smooth="yes"/>
      <point x="90" y="-220"/>
      <point x="157" y="-151"/>
      <point x="157" y="-43" type="curve" smooth="yes"/>
      <point x="157" y="658" type="line"/>
      <point x="73" y="658" type="line"/>
      <point x="73" y="-43" type="line" smooth="yes"/>
      <point x="73" y="-104"/>
      <point x="38" y="-142"/>
      <point x="-18" y="-142" type="curve" smooth="yes"/>
      <point x="-26" y="-142" type="line"/>
      <point x="-26" y="-220" type="line"/>
    </contour>
  </outline>
</glyph>
<glyph name="N" format="2">
  <advance width="708"/>
  <unicode hex="004E"/>
  <guideline x="-300" y="-10" angle="0" name="Overshoot (-10/10)" identifier="f6GPLxBuM5"/>
  <guideline x="-300" y="668" angle="0" name="Overshoot (668/10)" identifier="X0dlM0tPD0"/>
  <anchor x="354.0" y="642" name="top"/>
  <anchor x="365.0" y="16" name="bottom"/>
  <outline>
    <contour>
      <point x="72" y="0" type="line"/>
      <point x="152" y="0" type="line"/>
      <point x="152" y="483" type="line"/>
      <point x="151" y="537" type="line"/>
      <point x="190" y="482" type="line"/>
      <point x="547" y="0" type="line"/>
      <point x="636" y="0" type="line"/>
      <point x="636" y="658" type="line"/>
      <point x="556" y="658" type="line"/>
      <point x="556" y="178" type="line"/>
      <point x="557" y="121" type="line"/>
      <point x="517" y="179" type="line"/>
      <point x="162" y="658" type="line"/>
      <point x="72" y="658" type="line"/>
    </contour>
  </outline>
</glyph>
<glyph name="O" format="2">
  <advance width="775"/>
  <unicode hex="004F"/>
  <guideline x="-300" y="-14" angle="0" name="Overshoot (-14/14)" identifier="WWI3XkebSK"/>
  <guideline x="-300" y="672" angle="0" name="Overshoot (672/14)" identifier="rE8Oj5A3oX"/>
  <anchor x="388.0" y="642" name="top"/>
  <outline>
    <contour>
      <point x="388" y="-15" type="curve" smooth="yes"/>
      <point x="575" y="-15"/>
      <point x="727" y="68"/>
      <point x="727" y="327" type="curve" smooth="yes"/>
      <point x="727" y="535"/>
      <point x="586" y="672"/>
      <point x="388" y="672" type="curve" smooth="yes"/>
      <point x="189" y="672"/>
      <point x="48" y="534"/>
      <point x="48" y="329" type="curve" smooth="yes"/>
      <point x="48" y="125"/>
      <point x="185" y="-15"/>
    </contour>
    <contour>
      <point x="388" y="64" type="curve" smooth="yes"/>
      <point x="238" y="64"/>
      <point x="197" y="155"/>
      <point x="197" y="337" type="curve" smooth="yes"/>
      <point x="197" y="497"/>
      <point x="238" y="594"/>
      <point x="388" y="594" type="curve" smooth="yes"/>
      <point x="538" y="594"/>
      <point x="637" y="480"/>
      <point x="637" y="320" type="curve" smooth="yes"/>
      <point x="637" y="239"/>
      <point x="605" y="64"/>
    </contour>
  </outline>
</glyph>
<glyph name="P" format="2">
  <advance width="491"/>
  <unicode hex="0050"/>
  <guideline x="-300" y="-10" angle="0" name="Overshoot (-10/10)" identifier="uahKzN6Sc6"/>
  <guideline x="-300" y="668" angle="0" name="Overshoot (668/10)" identifier="ZR2Ngyz5Z8"/>
  <outline>
    <contour>
      <point x="72" y="0" type="line"/>
      <point x="156" y="0" type="line"/>
      <point x="156" y="236" type="line"/>
      <point x="209" y="236" type="line" smooth="yes"/>
      <point x="364" y="236"/>
      <point x="431" y="322"/>
      <point x="431" y="452" type="curve" smooth="yes"/>
      <point x="431" y="581"/>
      <point x="365" y="658"/>
      <point x="208" y="658" type="curve" smooth="yes"/>
      <point x="72" y="658" type="line"/>
    </contour>
    <contour>
      <point x="156" y="312" type="line"/>
      <point x="156" y="580" type="line"/>
      <point x="211" y="580" type="line" smooth="yes"/>
      <point x="306" y="580"/>
      <point x="367" y="533"/>
      <point x="367" y="447" type="curve" smooth="yes"/>
      <point x="367" y="360"/>
      <point x="306" y="312"/>
      <point x="212" y="312" type="curve" smooth="yes"/>
    </contour>
  </outline>
</glyph>
<glyph name="S" format="2">
  <advance width="506"/>
  <unicode hex="0053"/>
  <guideline x="-300" y="-14" angle="0" name="Overshoot (-14/14)"/>
  <guideline x="-300" y="672" angle="0" name="Overshoot (672/14)"/>
  <anchor x="253.0" y="642" name="top"/>
  <anchor x="245.0" y="16" name="bottom"/>
  <outline>
    <contour>
      <point x="243" y="-14" type="curve" smooth="yes"/>
      <point x="369" y="-14"/>
      <point x="449" y="63"/>
      <point x="449" y="178" type="curve" smooth="yes"/>
      <point x="449" y="273"/>
      <point x="396" y="331"/>
      <point x="278" y="374" type="curve" smooth="yes"/>
      <point x="260" y="380" type="line" smooth="yes"/>
      <point x="181" y="410"/>
      <point x="145" y="440"/>
      <point x="145" y="496" type="curve" smooth="yes"/>
      <point x="145" y="558"/>
      <point x="189" y="594"/>
      <point x="264" y="594" type="curve" smooth="yes"/>
      <point x="326" y="594"/>
      <point x="379" y="573"/>
      <point x="429" y="534" type="curve"/>
      <point x="429" y="626" type="line"/>
      <point x="374" y="657"/>
      <point x="319" y="672"/>
      <point x="258" y="672" type="curve" smooth="yes"/>
      <point x="137" y="672"/>
      <point x="60" y="600"/>
      <point x="60" y="494" type="curve" smooth="yes"/>
      <point x="60" y="399"/>
      <point x="112" y="344"/>
      <point x="223" y="303" type="curve" smooth="yes"/>
      <point x="241" y="296" type="line" smooth="yes"/>
      <point x="327" y="264"/>
      <point x="364" y="230"/>
      <point x="364" y="169" type="curve" smooth="yes"/>
      <point x="364" y="104"/>
      <point x="315" y="64"/>
      <point x="240" y="64" type="curve" smooth="yes"/>
      <point x="173" y="64"/>
      <point x="111" y="85"/>
      <point x="57" y="126" type="curve"/>
      <point x="57" y="36" type="line"/>
      <point x="113" y="2"/>
      <point x="175" y="-14"/>
    </contour>
  </outline>
</glyph>
<glyph name="U" format="2">
  <advance width="665"/>
  <unicode hex="0055"/>
  <guideline x="-300" y="-14" angle="0" name="Overshoot (-14/14)"/>
  <guideline x="-300" y="672" angle="0" name="Overshoot (672/14)"/>
  <anchor x="332.0" y="16" name="ogonek"/>
  <anchor x="334.0" y="642" name="top"/>
  <outline>
    <contour>
      <point x="333" y="-14" type="curve" smooth="yes"/>
      <point x="495" y="-14"/>
      <point x="599" y="93"/>
      <point x="599" y="258" type="curve" smooth="yes"/>
      <point x="599" y="658" type="line"/>
      <point x="517" y="658" type="line"/>
      <point x="517" y="258" type="line" smooth="yes"/>
      <point x="517" y="142"/>
      <point x="447" y="66"/>
      <point x="334" y="66" type="curve" smooth="yes"/>
      <point x="223" y="66"/>
      <point x="150" y="142"/>
      <point x="150" y="258" type="curve" smooth="yes"/>
      <point x="150" y="658" type="line"/>
      <point x="66" y="658" type="line"/>
      <point x="66" y="258" type="line" smooth="yes"/>
      <point x="66" y="93"/>
      <point x="170" y="-14"/>
    </contour>
  </outline>
</glyph>
<glyph name="Z" format="2">
  <advance width="587"/>
  <unicode hex="005A"/>
  <guideline x="-300" y="-10" angle="0" name="Overshoot (-10/10)"/>
  <guideline x="-300" y="668" angle="0" name="Overshoot (668/10)"/>
  <anchor x="294.0" y="642" name="top"/>
  <outline>
    <contour>
      <point x="50" y="0" type="line"/>
      <point x="537" y="0" type="line"/>
      <point x="537" y="79" type="line"/>
      <point x="173" y="79" type="line"/>
      <point x="204" y="124" type="line"/>
      <point x="537" y="613" type="line"/>
      <point x="537" y="658" type="line"/>
      <point x="57" y="658" type="line"/>
      <point x="57" y="579" type="line"/>
      <point x="413" y="579" type="line"/>
      <point x="382" y="534" type="line"/>
      <point x="50" y="47" type="line"/>
    </contour>
  </outline>
</glyph>
<glyph name="bracketright" format="2">
  <advance width="342"/>
  <unicode hex="005D"/>
  <guideline x="-300" y="-10" angle="0" name="Overshoot (-10/10)" identifier="0fVY0HiKaZ"/>
  <guideline x="-300" y="476" angle="0" name="Overshoot (476/10)" identifier="CmQZBT720G"/>
  <outline>
    <contour>
      <point x="40" y="-220" type="line"/>
      <point x="251" y="-220" type="line"/>
      <point x="251" y="720" type="line"/>
      <point x="40" y="720" type="line"/>
      <point x="40" y="650" type="line"/>
      <point x="171" y="650" type="line"/>
      <point x="171" y="-150" type="line"/>
      <point x="40" y="-150" type="line"/>
    </contour>
  </outline>
</glyph>
<glyph name="g" format="2">
  <advance width="520"/>
  <unicode hex="0067"/>
  <guideline x="-300" y="-10" angle="0" name="Overshoot (-10/10)"/>
  <guideline x="-300" y="476" angle="0" name="Overshoot (476/10)"/>
  <anchor x="260.0" y="450" name="top"/>
  <outline>
    <contour>
      <point x="245" y="-230" type="curve" smooth="yes"/>
      <point x="375" y="-230"/>
      <point x="460" y="-142"/>
      <point x="460" y="-6" type="curve" smooth="yes"/>
      <point x="460" y="466" type="line"/>
      <point x="420" y="466" type="line"/>
      <point x="401" y="422" type="line"/>
      <point x="369" y="455"/>
      <point x="316" y="476"/>
      <point x="262" y="476" type="curve" smooth="yes"/>
      <point x="132" y="476"/>
      <point x="41" y="382"/>
      <point x="41" y="231" type="curve" smooth="yes"/>
      <point x="41" y="75"/>
      <point x="123" y="-10"/>
      <point x="248" y="-10" type="curve" smooth="yes"/>
      <point x="299" y="-10"/>
      <point x="347" y="11"/>
      <point x="378" y="50" type="curve"/>
      <point x="378" y="-13" type="line" smooth="yes"/>
      <point x="378" y="-103"/>
      <point x="321" y="-155"/>
      <point x="234" y="-155" type="curve" smooth="yes"/>
      <point x="176" y="-155"/>
      <point x="117" y="-134"/>
      <point x="66" y="-104" type="curve"/>
      <point x="66" y="-188" type="line"/>
      <point x="119" y="-216"/>
      <point x="184" y="-230"/>
    </contour>
    <contour>
      <point x="264" y="62" type="curve" smooth="yes"/>
      <point x="174" y="62"/>
      <point x="124" y="129"/>
      <point x="124" y="232" type="curve" smooth="yes"/>
      <point x="124" y="332"/>
      <point x="179" y="405"/>
      <point x="270" y="405" type="curve" smooth="yes"/>
      <point x="309" y="405"/>
      <point x="354" y="389"/>
      <point x="378" y="364" type="curve"/>
      <point x="378" y="125" type="line"/>
      <point x="354" y="88"/>
      <point x="314" y="62"/>
    </contour>
  </outline>
</glyph>
<glyph name="i" format="2">
  <advance width="210"/>
  <unicode hex="0069"/>
  <guideline x="-300" y="-10" angle="0" name="Overshoot (-10/10)"/>
  <guideline x="-300" y="476" angle="0" name="Overshoot (476/10)"/>
  <anchor x="106.0" y="16" name="ogonek"/>
  <outline>
    <contour>
      <point x="63" y="611" type="line"/>
      <point x="148" y="611" type="line"/>
      <point x="148" y="694" type="line"/>
      <point x="63" y="694" type="line"/>
    </contour>
    <contour>
      <point x="64" y="0" type="line"/>
      <point x="146" y="0" type="line"/>
      <point x="146" y="466" type="line"/>
      <point x="64" y="466" type="line"/>
    </contour>
  </outline>
</glyph>
<glyph name="l" format="2">
  <advance width="207"/>
  <unicode hex="006C"/>
  <guideline x="-300" y="-10" angle="0" name="Overshoot (-10/10)"/>
  <guideline x="-300" y="476" angle="0" name="Overshoot (476/10)"/>
  <anchor x="104.0" y="16" name="bottom"/>
  <anchor x="269.0" y="704" name="caron.vert"/>
  <anchor x="104.0" y="704" name="top"/>
  <anchor x="245.0" y="356" name="middle"/>
  <outline>
    <contour>
      <point x="63" y="0" type="line"/>
      <point x="145" y="0" type="line"/>
      <point x="145" y="720" type="line"/>
      <point x="63" y="720" type="line"/>
    </contour>
  </outline>
</glyph>
<glyph name="m" format="2">
  <advance width="795"/>
  <unicode hex="006D"/>
  <guideline x="-300" y="-10" angle="0" name="Overshoot (-10/10)"/>
  <guideline x="-300" y="476" angle="0" name="Overshoot (476/10)"/>
  <outline>
    <contour>
      <point x="63" y="0" type="line"/>
      <point x="145" y="0" type="line"/>
      <point x="145" y="333" type="line"/>
      <point x="172" y="376"/>
      <point x="213" y="402"/>
      <point x="260" y="402" type="curve" smooth="yes"/>
      <point x="324" y="402"/>
      <point x="359" y="361"/>
      <point x="359" y="293" type="curve" smooth="yes"/>
      <point x="359" y="0" type="line"/>
      <point x="441" y="0" type="line"/>
      <point x="441" y="326" type="line"/>
      <point x="468" y="381"/>
      <point x="509" y="402"/>
      <point x="555" y="402" type="curve" smooth="yes"/>
      <point x="617" y="402"/>
      <point x="655" y="361"/>
      <point x="655" y="291" type="curve" smooth="yes"/>
      <point x="655" y="0" type="line"/>
      <point x="737" y="0" type="line"/>
      <point x="737" y="306" type="line" smooth="yes"/>
      <point x="737" y="413"/>
      <point x="674" y="476"/>
      <point x="578" y="476" type="curve" smooth="yes"/>
      <point x="520" y="476"/>
      <point x="467" y="453"/>
      <point x="428" y="386" type="curve"/>
      <point x="408" y="438"/>
      <point x="361" y="476"/>
      <point x="284" y="476" type="curve" smooth="yes"/>
      <point x="226" y="476"/>
      <point x="179" y="450"/>
      <point x="145" y="403" type="curve"/>
      <point x="145" y="466" type="line"/>
      <point x="63" y="466" type="line"/>
    </contour>
  </outline>
</glyph>
<glyph name="o" format="2">
  <advance width="556"/>
  <unicode hex="006F"/>
  <guideline x="-300" y="-10" angle="0" name="Overshoot (-10/10)"/>
  <guideline x="-300" y="476" angle="0" name="Overshoot (476/10)"/>
  <anchor x="278.0" y="450" name="top"/>
  <outline>
    <contour>
      <point x="278" y="-10" type="curve" smooth="yes"/>
      <point x="419" y="-10"/>
      <point x="514" y="86"/>
      <point x="514" y="233" type="curve" smooth="yes"/>
      <point x="514" y="380"/>
      <point x="419" y="476"/>
      <point x="278" y="476" type="curve" smooth="yes"/>
      <point x="136" y="476"/>
      <point x="41" y="379"/>
      <point x="41" y="232" type="curve" smooth="yes"/>
      <point x="41" y="86"/>
      <point x="136" y="-10"/>
    </contour>
    <contour>
      <point x="278" y="64" type="curve" smooth="yes"/>
      <point x="186" y="64"/>
      <point x="124" y="131"/>
      <point x="124" y="233" type="curve" smooth="yes"/>
      <point x="124" y="335"/>
      <point x="186" y="402"/>
      <point x="278" y="402" type="curve" smooth="yes"/>
      <point x="370" y="402"/>
      <point x="431" y="334"/>
      <point x="431" y="232" type="curve" smooth="yes"/>
      <point x="431" y="131"/>
      <point x="370" y="64"/>
    </contour>
  </outline>
</glyph>
<glyph name="r" format="2">
  <advance width="316"/>
  <unicode hex="0072"/>
  <guideline x="-300" y="-10" angle="0" name="Overshoot (-10/10)"/>
  <guideline x="-300" y="476" angle="0" name="Overshoot (476/10)"/>
  <anchor x="103.0" y="16" name="bottom"/>
  <anchor x="188.0" y="450" name="top"/>
  <outline>
    <contour>
      <point x="63" y="0" type="line"/>
      <point x="145" y="0" type="line"/>
      <point x="145" y="332" type="line"/>
      <point x="163" y="366"/>
      <point x="196" y="390"/>
      <point x="239" y="390" type="curve" smooth="yes"/>
      <point x="262" y="390"/>
      <point x="283" y="386"/>
      <point x="304" y="377" type="curve"/>
      <point x="304" y="468" type="line"/>
      <point x="287" y="474"/>
      <point x="270" y="476"/>
      <point x="252" y="476" type="curve" smooth="yes"/>
      <point x="208" y="476"/>
      <point x="165" y="448"/>
      <point x="145" y="398" type="curve"/>
      <point x="145" y="466" type="line"/>
      <point x="63" y="466" type="line"/>
    </contour>
  </outline>
</glyph>
<glyph name="y" format="2">
  <advance width="472"/>
  <unicode hex="0079"/>
  <guideline x="-300" y="-10" angle="0" name="Overshoot (-10/10)"/>
  <guideline x="-300" y="476" angle="0" name="Overshoot (476/10)"/>
  <anchor x="235.0" y="450" name="top"/>
  <outline>
    <contour>
      <point x="5" y="-220" type="line" smooth="yes"/>
      <point x="143" y="-220"/>
      <point x="219" y="-159"/>
      <point x="284" y="14" type="curve" smooth="yes"/>
      <point x="456" y="466" type="line"/>
      <point x="373" y="466" type="line"/>
      <point x="257" y="151" type="line"/>
      <point x="237" y="89" type="line"/>
      <point x="218" y="151" type="line"/>
      <point x="101" y="466" type="line"/>
      <point x="14" y="466" type="line"/>
      <point x="184" y="17" type="line"/>
      <point x="192" y="-6" type="line"/>
      <point x="147" y="-107"/>
      <point x="93" y="-146"/>
      <point x="5" y="-146" type="curve" smooth="yes"/>
      <point x="-3" y="-146" type="line"/>
      <point x="-3" y="-220" type="line"/>
    </contour>
  </outline>
</glyph>
<glyph name="asciitilde" format="2">
  <advance width="400"/>
  <unicode hex="007E"/>
  <guideline x="-300" y="-10" angle="0" name="Overshoot (-10/10)"/>
  <guideline x="-300" y="476" angle="0" name="Overshoot (476/10)"/>
  <outline>
    <contour>
      <point x="102" y="146" type="line"/>
      <point x="104" y="176"/>
      <point x="119" y="192"/>
      <point x="141" y="192" type="curve" smooth="yes"/>
      <point x="156" y="192"/>
      <point x="171" y="184"/>
      <point x="190" y="169" type="curve" smooth="yes"/>
      <point x="216" y="149"/>
      <point x="236" y="139"/>
      <point x="261" y="139" type="curve" smooth="yes"/>
      <point x="310" y="139"/>
      <point x="346" y="177"/>
      <point x="350" y="248" type="curve"/>
      <point x="298" y="248" type="line"/>
      <point x="295" y="218"/>
      <point x="280" y="202"/>
      <point x="259" y="202" type="curve" smooth="yes"/>
      <point x="242" y="202"/>
      <point x="229" y="212"/>
      <point x="209" y="225" type="curve" smooth="yes"/>
      <point x="181" y="246"/>
      <point x="162" y="255"/>
      <point x="138" y="255" type="curve" smooth="yes"/>
      <point x="88" y="255"/>
      <point x="53" y="216"/>
      <point x="50" y="146" type="curve"/>
    </contour>
  </outline>
</glyph>
<glyph name="exclamdown" format="2">
  <advance width="222"/>
  <unicode hex="00A1"/>
  <guideline x="-300" y="-10" angle="0" name="Overshoot (-10/10)"/>
  <guideline x="-300" y="476" angle="0" name="Overshoot (476/10)"/>
  <outline>
    <contour>
      <point x="68" y="381" type="line" smooth="yes"/>
      <point x="153" y="381" type="line" smooth="yes"/>
      <point x="153" y="466" type="line" smooth="yes"/>
      <point x="68" y="466" type="line" smooth="yes"/>
    </contour>
    <contour>
      <point x="71" y="-241" type="line" smooth="yes"/>
      <point x="151" y="-241" type="line" smooth="yes"/>
      <point x="151" y="277" type="line" smooth="yes"/>
      <point x="71" y="277" type="line" smooth="yes"/>
    </contour>
  </outline>
</glyph>
<glyph name="sterling" format="2">
  <advance width="525"/>
  <unicode hex="00A3"/>
  <guideline x="-300" y="-14" angle="0" name="Overshoot (-14/14)"/>
  <guideline x="-300" y="672" angle="0" name="Overshoot (672/14)"/>
  <outline>
    <contour>
      <point x="60" y="0" type="line"/>
      <point x="470" y="0" type="line"/>
      <point x="470" y="80" type="line"/>
      <point x="161" y="80" type="line"/>
      <point x="222" y="133"/>
      <point x="244" y="210"/>
      <point x="227" y="299" type="curve"/>
      <point x="369" y="299" type="line"/>
      <point x="369" y="373" type="line"/>
      <point x="211" y="373" type="line"/>
      <point x="202" y="412" type="line" smooth="yes"/>
      <point x="177" y="519"/>
      <point x="221.98431438474285" y="598.0"/>
      <point x="319" y="598" type="curve" smooth="yes"/>
      <point x="376" y="598"/>
      <point x="429" y="584"/>
      <point x="478" y="553" type="curve"/>
      <point x="478" y="635" type="line"/>
      <point x="425" y="659"/>
      <point x="369" y="672"/>
      <point x="311" y="672" type="curve" smooth="yes"/>
      <point x="149.6069284744177" y="672.0"/>
      <point x="86" y="557"/>
      <point x="119" y="409" type="curve" smooth="yes"/>
      <point x="127" y="373" type="line"/>
      <point x="51" y="373" type="line"/>
      <point x="51" y="299" type="line"/>
      <point x="143" y="299" type="line"/>
      <point x="164" y="194"/>
      <point x="129" y="122"/>
      <point x="60" y="80" type="curve"/>
    </contour>
  </outline>
</glyph>
<glyph name="section" format="2">
  <advance width="428"/>
  <unicode hex="00A7"/>
  <guideline x="-300" y="-10" angle="0" name="Overshoot (-10/10)"/>
  <guideline x="-300" y="668" angle="0" name="Overshoot (668/10)"/>
  <outline>
    <contour>
      <point x="198" y="-10" type="curve" smooth="yes"/>
      <point x="299" y="-10"/>
      <point x="355" y="51"/>
      <point x="355" y="127" type="curve" smooth="yes"/>
      <point x="355" y="167"/>
      <point x="342" y="200"/>
      <point x="317" y="225" type="curve"/>
      <point x="352" y="245"/>
      <point x="375" y="274"/>
      <point x="375" y="330" type="curve" smooth="yes"/>
      <point x="375" y="389"/>
      <point x="336" y="440"/>
      <point x="245" y="465" type="curve" smooth="yes"/>
      <point x="231" y="469" type="line" smooth="yes"/>
      <point x="179" y="484"/>
      <point x="158" y="505"/>
      <point x="158" y="537" type="curve" smooth="yes"/>
      <point x="158" y="577"/>
      <point x="189" y="600"/>
      <point x="235" y="600" type="curve" smooth="yes"/>
      <point x="278" y="600"/>
      <point x="324" y="587"/>
      <point x="362" y="563" type="curve"/>
      <point x="362" y="638" type="line"/>
      <point x="320" y="658"/>
      <point x="271" y="668"/>
      <point x="226" y="668" type="curve" smooth="yes"/>
      <point x="130" y="668"/>
      <point x="78" y="611"/>
      <point x="78" y="536" type="curve" smooth="yes"/>
      <point x="78" y="500"/>
      <point x="92" y="467"/>
      <point x="118" y="443" type="curve"/>
      <point x="84" y="420"/>
      <point x="59" y="384"/>
      <point x="59" y="340" type="curve" smooth="yes"/>
      <point x="59" y="277"/>
      <point x="95" y="230"/>
      <point x="177" y="208" type="curve" smooth="yes"/>
      <point x="192" y="204" type="line" smooth="yes"/>
      <point x="251" y="187"/>
      <point x="275" y="163"/>
      <point x="275" y="124" type="curve" smooth="yes"/>
      <point x="275" y="81"/>
      <point x="241" y="58"/>
      <point x="192" y="58" type="curve" smooth="yes"/>
      <point x="144" y="58"/>
      <point x="96" y="74"/>
      <point x="56" y="102" type="curve"/>
      <point x="56" y="25" type="line"/>
      <point x="98" y="3"/>
      <point x="149" y="-10"/>
    </contour>
    <contour>
      <point x="227" y="274" type="curve" smooth="yes"/>
      <point x="214" y="279" type="line" smooth="yes"/>
      <point x="161" y="295"/>
      <point x="138" y="320"/>
      <point x="138" y="356" type="curve" smooth="yes"/>
      <point x="138" y="378"/>
      <point x="149" y="399"/>
      <point x="168" y="412" type="curve"/>
      <point x="176" y="408"/>
      <point x="185" y="405"/>
      <point x="195" y="402" type="curve" smooth="yes"/>
      <point x="209" y="398" type="line" smooth="yes"/>
      <point x="269" y="380"/>
      <point x="298" y="353"/>
      <point x="298" y="315" type="curve" smooth="yes"/>
      <point x="298" y="287"/>
      <point x="289" y="270"/>
      <point x="269" y="258" type="curve"/>
      <point x="256" y="264"/>
      <point x="242" y="270"/>
    </contour>
  </outline>
</glyph>
<glyph name="registered" format="2">
  <advance width="684"/>
  <unicode hex="00AE"/>
  <guideline x="-300" y="-10" angle="0" name="Overshoot (-10/10)"/>
  <guideline x="-300" y="476" angle="0" name="Overshoot (476/10)"/>
  <outline>
    <contour>
      <point x="342" y="107" type="curve" smooth="yes"/>
      <point x="512" y="107"/>
      <point x="638" y="233"/>
      <point x="638" y="403" type="curve" smooth="yes"/>
      <point x="638" y="573"/>
      <point x="512" y="699"/>
      <point x="342" y="699" type="curve" smooth="yes"/>
      <point x="172" y="699"/>
      <point x="46" y="572"/>
      <point x="46" y="402" type="curve" smooth="yes"/>
      <point x="46" y="233"/>
      <point x="172" y="107"/>
    </contour>
    <contour>
      <point x="342" y="156" type="curve" smooth="yes"/>
      <point x="201" y="156"/>
      <point x="96" y="262"/>
      <point x="96" y="403" type="curve" smooth="yes"/>
      <point x="96" y="544"/>
      <point x="201" y="650"/>
      <point x="342" y="650" type="curve" smooth="yes"/>
      <point x="483" y="650"/>
      <point x="588" y="544"/>
      <point x="588" y="402" type="curve" smooth="yes"/>
      <point x="588" y="261"/>
      <point x="483" y="156"/>
    </contour>
    <contour>
      <point x="241" y="233" type="line"/>
      <point x="295" y="233" type="line"/>
      <point x="295" y="379" type="line"/>
      <point x="316" y="379" type="line" smooth="yes"/>
      <point x="343" y="379"/>
      <point x="363" y="366"/>
      <point x="376" y="335" type="curve" smooth="yes"/>
      <point x="424" y="233" type="line"/>
      <point x="483" y="233" type="line"/>
      <point x="427" y="352" type="line" smooth="yes"/>
      <point x="416" y="376"/>
      <point x="397" y="394"/>
      <point x="372" y="401" type="curve"/>
      <point x="420" y="410"/>
      <point x="447" y="445"/>
      <point x="447" y="488" type="curve" smooth="yes"/>
      <point x="447" y="542"/>
      <point x="404" y="576"/>
      <point x="338" y="576" type="curve" smooth="yes"/>
      <point x="241" y="576" type="line"/>
    </contour>
    <contour>
      <point x="295" y="425" type="line"/>
      <point x="295" y="529" type="line"/>
      <point x="336" y="529" type="line" smooth="yes"/>
      <point x="371" y="529"/>
      <point x="393" y="510"/>
      <point x="393" y="478" type="curve" smooth="yes"/>
      <point x="393" y="445"/>
      <point x="371" y="425"/>
      <point x="336" y="425" type="curve" smooth="yes"/>
    </contour>
  </outline>
</glyph>
<glyph name="degree" format="2">
  <advance width="348"/>
  <unicode hex="00B0"/>
  <guideline x="-300" y="-10" angle="0" name="Overshoot (-10/10)"/>
  <guideline x="-300" y="476" angle="0" name="Overshoot (476/10)"/>
  <outline>
    <contour>
      <point x="174" y="474" type="curve" smooth="yes"/>
      <point x="251" y="474"/>
      <point x="300" y="532"/>
      <point x="300" y="602" type="curve" smooth="yes"/>
      <point x="300" y="672"/>
      <point x="251" y="730"/>
      <point x="174" y="730" type="curve" smooth="yes"/>
      <point x="97" y="730"/>
      <point x="48" y="672"/>
      <point x="48" y="602" type="curve" smooth="yes"/>
      <point x="48" y="532"/>
      <point x="97" y="474"/>
    </contour>
    <contour>
      <point x="174" y="530" type="curve" smooth="yes"/>
      <point x="137" y="530"/>
      <point x="105" y="559"/>
      <point x="105" y="602" type="curve" smooth="yes"/>
      <point x="105" y="645"/>
      <point x="137" y="674"/>
      <point x="174" y="674" type="curve" smooth="yes"/>
      <point x="211" y="674"/>
      <point x="243" y="645"/>
      <point x="243" y="602" type="curve" smooth="yes"/>
      <point x="243" y="559"/>
      <point x="211" y="530"/>
    </contour>
  </outline>
</glyph>
<glyph name="paragraph" format="2">
  <advance width="452"/>
  <unicode hex="00B6"/>
  <guideline x="-300" y="-10" angle="0" name="Overshoot (-10/10)"/>
  <guideline x="-300" y="476" angle="0" name="Overshoot (476/10)"/>
  <outline>
    <contour>
      <point x="139" y="0" type="line"/>
      <point x="216" y="0" type="line"/>
      <point x="216" y="586" type="line"/>
      <point x="304" y="586" type="line"/>
      <point x="304" y="0" type="line"/>
      <point x="381" y="0" type="line"/>
      <point x="381" y="658" type="line"/>
      <point x="148" y="658" type="line" smooth="yes"/>
      <point x="78" y="658"/>
      <point x="33" y="618"/>
      <point x="33" y="556" type="curve" smooth="yes"/>
      <point x="33" y="494"/>
      <point x="74" y="455"/>
      <point x="139" y="455" type="curve"/>
    </contour>
  </outline>
</glyph>
<glyph name="ordmasculine" format="2">
  <advance width="427"/>
  <unicode hex="00BA"/>
  <guideline x="-200" y="360" angle="0" name="Baseline (360)"/>
  <guideline x="-300" y="351" angle="0" name="Overshoot (351/9)"/>
  <guideline x="-200" y="720" angle="0" name="xHeight (720)"/>
  <guideline x="-300" y="729" angle="0" name="Overshoot (729/9)"/>
  <outline>
    <contour>
      <point x="39" y="233" type="line"/>
      <point x="391" y="233" type="line"/>
      <point x="391" y="299" type="line"/>
      <point x="39" y="299" type="line"/>
    </contour>
    <component base="o.sups" yOffset="-80"/>
  </outline>
</glyph>
<glyph name="questiondown" format="2">
  <advance width="459"/>
  <unicode hex="00BF"/>
  <guideline x="-300" y="-10" angle="0" name="Overshoot (-10/10)"/>
  <guideline x="-300" y="476" angle="0" name="Overshoot (476/10)"/>
  <outline>
    <contour>
      <point x="205" y="381" type="line"/>
      <point x="290" y="381" type="line"/>
      <point x="290" y="466" type="line"/>
      <point x="205" y="466" type="line"/>
    </contour>
    <contour>
      <point x="255" y="-230" type="curve" smooth="yes"/>
      <point x="312" y="-230"/>
      <point x="372" y="-213"/>
      <point x="419" y="-186" type="curve"/>
      <point x="419" y="-102" type="line"/>
      <point x="379" y="-136"/>
      <point x="324" y="-156"/>
      <point x="268" y="-156" type="curve" smooth="yes"/>
      <point x="180" y="-156"/>
      <point x="124" y="-114"/>
      <point x="124" y="-41" type="curve" smooth="yes"/>
      <point x="124" y="7"/>
      <point x="145" y="43"/>
      <point x="194" y="86" type="curve" smooth="yes"/>
      <point x="262" y="148"/>
      <point x="287" y="202"/>
      <point x="287" y="278" type="curve"/>
      <point x="209" y="278" type="line"/>
      <point x="209" y="215"/>
      <point x="184" y="173"/>
      <point x="130" y="124" type="curve" smooth="yes"/>
      <point x="65" y="65"/>
      <point x="40" y="17"/>
      <point x="40" y="-47" type="curve" smooth="yes"/>
      <point x="40" y="-155"/>
      <point x="117" y="-230"/>
    </contour>
  </outline>
</glyph>
<glyph name="Eth" format="2">
  <advance width="694"/>
  <unicode hex="00D0"/>
  <guideline x="-300" y="-14" angle="0" name="Overshoot (-14/14)"/>
  <guideline x="-300" y="672" angle="0" name="Overshoot (672/14)"/>
  <outline>
    <contour>
      <point x="24" y="293" type="line"/>
      <point x="283" y="293" type="line"/>
      <point x="283" y="366" type="line"/>
      <point x="24" y="366" type="line"/>
    </contour>
    <component base="D" xOffset="4"/>
  </outline>
</glyph>
<glyph name="germandbls" format="2">
  <advance width="556"/>
  <unicode hex="00DF"/>
  <guideline x="-300" y="-10" angle="0" name="Overshoot (-10/10)"/>
  <guideline x="-300" y="476" angle="0" name="Overshoot (476/10)"/>
  <outline>
    <contour>
      <point x="63" y="0" type="line"/>
      <point x="144" y="0" type="line"/>
      <point x="144" y="496" type="line" smooth="yes"/>
      <point x="144" y="597"/>
      <point x="200" y="659"/>
      <point x="285" y="659" type="curve" smooth="yes"/>
      <point x="395" y="659"/>
      <point x="444" y="579"/>
      <point x="429" y="466" type="curve"/>
      <point x="403" y="473"/>
      <point x="384" y="475"/>
      <point x="359" y="475" type="curve" smooth="yes"/>
      <point x="275" y="475"/>
      <point x="220" y="423"/>
      <point x="220" y="344" type="curve" smooth="yes"/>
      <point x="220" y="272"/>
      <point x="262" y="228"/>
      <point x="344" y="204" type="curve" smooth="yes"/>
      <point x="355" y="200" type="line" smooth="yes"/>
      <point x="412" y="184"/>
      <point x="440" y="160"/>
      <point x="440" y="122" type="curve" smooth="yes"/>
      <point x="440" y="82"/>
      <point x="409" y="58"/>
      <point x="359" y="58" type="curve" smooth="yes"/>
      <point x="311" y="58"/>
      <point x="266" y="70"/>
      <point x="223" y="97" type="curve"/>
      <point x="223" y="21" type="line"/>
      <point x="271" y="1"/>
      <point x="317" y="-10"/>
      <point x="365" y="-10" type="curve" smooth="yes"/>
      <point x="458" y="-10"/>
      <point x="519" y="43"/>
      <point x="519" y="131" type="curve" smooth="yes"/>
      <point x="519" y="204"/>
      <point x="474" y="250"/>
      <point x="387" y="275" type="curve" smooth="yes"/>
      <point x="376" y="279" type="line" smooth="yes"/>
      <point x="324" y="294"/>
      <point x="299" y="315"/>
      <point x="299" y="349" type="curve" smooth="yes"/>
      <point x="299" y="386"/>
      <point x="327" y="408"/>
      <point x="381" y="408" type="curve" smooth="yes"/>
      <point x="422" y="408"/>
      <point x="471" y="393"/>
      <point x="495" y="384" type="curve"/>
      <point x="501" y="417"/>
      <point x="506" y="462"/>
      <point x="506" y="498" type="curve" smooth="yes"/>
      <point x="506" y="646"/>
      <point x="414" y="730"/>
      <point x="283" y="730" type="curve" smooth="yes"/>
      <point x="152" y="730"/>
      <point x="63" y="647"/>
      <point x="63" y="492" type="curve" smooth="yes"/>
    </contour>
  </outline>
</glyph>
<glyph name="ae" format="2">
  <advance width="766"/>
  <unicode hex="00E6"/>
  <guideline x="-300" y="-10" angle="0" name="Overshoot (-10/10)"/>
  <guideline x="-300" y="476" angle="0" name="Overshoot (476/10)"/>
  <anchor x="381.0" y="450" name="top"/>
  <outline>
    <contour>
      <point x="188" y="-10" type="curve" smooth="yes"/>
      <point x="262" y="-10"/>
      <point x="318" y="24"/>
      <point x="350" y="92" type="curve"/>
      <point x="385" y="28"/>
      <point x="447" y="-10"/>
      <point x="539" y="-10" type="curve" smooth="yes"/>
      <point x="594" y="-10"/>
      <point x="656" y="7"/>
      <point x="712" y="38" type="curve"/>
      <point x="712" y="114" type="line"/>
      <point x="661" y="80"/>
      <point x="602" y="61"/>
      <point x="549" y="61" type="curve" smooth="yes"/>
      <point x="450" y="61"/>
      <point x="397" y="119"/>
      <point x="396" y="212" type="curve"/>
      <point x="724" y="212" type="line"/>
      <point x="724" y="242" type="line" smooth="yes"/>
      <point x="724" y="394"/>
      <point x="646" y="476"/>
      <point x="520" y="476" type="curve" smooth="yes"/>
      <point x="455" y="476"/>
      <point x="403" y="450"/>
      <point x="367" y="402" type="curve"/>
      <point x="344" y="448"/>
      <point x="292" y="476"/>
      <point x="220" y="476" type="curve" smooth="yes"/>
      <point x="165" y="476"/>
      <point x="106" y="463"/>
      <point x="56" y="440" type="curve"/>
      <point x="56" y="365" type="line"/>
      <point x="100" y="394"/>
      <point x="152" y="407"/>
      <point x="205" y="407" type="curve" smooth="yes"/>
      <point x="270" y="407"/>
      <point x="313" y="381"/>
      <point x="313" y="322" type="curve" smooth="yes"/>
      <point x="313" y="296" type="line"/>
      <point x="214" y="282" type="line" smooth="yes"/>
      <point x="100" y="264"/>
      <point x="38" y="209"/>
      <point x="38" y="123" type="curve" smooth="yes"/>
      <point x="38" y="42"/>
      <point x="95" y="-10"/>
    </contour>
    <contour>
      <point x="519" y="407" type="curve" smooth="yes"/>
      <point x="595" y="407"/>
      <point x="642" y="358"/>
      <point x="642" y="276" type="curve"/>
      <point x="396" y="276" type="line"/>
      <point x="401" y="356"/>
      <point x="447" y="407"/>
    </contour>
    <contour>
      <point x="205" y="57" type="curve" smooth="yes"/>
      <point x="153" y="57"/>
      <point x="121" y="86"/>
      <point x="121" y="133" type="curve" smooth="yes"/>
      <point x="121" y="181"/>
      <point x="158" y="212"/>
      <point x="225" y="221" type="curve" smooth="yes"/>
      <point x="313" y="234" type="line"/>
      <point x="313" y="149" type="line"/>
      <point x="303" y="99"/>
      <point x="263" y="57"/>
    </contour>
  </outline>
</glyph>
<glyph name="eth" format="2">
  <advance width="565"/>
  <unicode hex="00F0"/>
  <guideline x="-300" y="-10" angle="0" name="Overshoot (-10/10)"/>
  <guideline x="-300" y="476" angle="0" name="Overshoot (476/10)"/>
  <outline>
    <contour>
      <point x="278" y="-10" type="curve" smooth="yes"/>
      <point x="417" y="-10"/>
      <point x="517" y="93"/>
      <point x="517" y="276" type="curve" smooth="yes"/>
      <point x="517" y="400"/>
      <point x="476" y="521"/>
      <point x="407" y="616" type="curve"/>
      <point x="478" y="639" type="line"/>
      <point x="478" y="710" type="line"/>
      <point x="360" y="672" type="line"/>
      <point x="333" y="701"/>
      <point x="303" y="726"/>
      <point x="271" y="747" type="curve"/>
      <point x="188" y="715" type="line"/>
      <point x="222" y="694"/>
      <point x="253" y="671"/>
      <point x="280" y="647" type="curve"/>
      <point x="210" y="625" type="line"/>
      <point x="210" y="554" type="line"/>
      <point x="333" y="592" type="line"/>
      <point x="385" y="530"/>
      <point x="419" y="460"/>
      <point x="436" y="389" type="curve"/>
      <point x="403" y="446"/>
      <point x="347" y="476"/>
      <point x="272" y="476" type="curve" smooth="yes"/>
      <point x="140" y="476"/>
      <point x="41" y="382"/>
      <point x="41" y="235" type="curve" smooth="yes"/>
      <point x="41" y="82"/>
      <point x="140" y="-10"/>
    </contour>
    <contour>
      <point x="278" y="66" type="curve" smooth="yes"/>
      <point x="184" y="66"/>
      <point x="124" y="137"/>
      <point x="124" y="235" type="curve" smooth="yes"/>
      <point x="124" y="331"/>
      <point x="184" y="401"/>
      <point x="277" y="401" type="curve" smooth="yes"/>
      <point x="362" y="401"/>
      <point x="422" y="342"/>
      <point x="432" y="241" type="curve" smooth="yes"/>
      <point x="432" y="139"/>
      <point x="373" y="66"/>
    </contour>
  </outline>
</glyph>
<glyph name="Eng" format="2">
  <advance width="708"/>
  <unicode hex="014A"/>
  <guideline x="-300" y="-14" angle="0" name="Overshoot (-14/14)"/>
  <guideline x="-300" y="672" angle="0" name="Overshoot (672/14)"/>
  <outline>
    <contour>
      <point x="72" y="0" type="line"/>
      <point x="152" y="0" type="line"/>
      <point x="152" y="482" type="line"/>
      <point x="151" y="531" type="line"/>
      <point x="186" y="481" type="line"/>
      <point x="559" y="0" type="line"/>
      <point x="559" y="-52" type="line" smooth="yes"/>
      <point x="559" y="-112"/>
      <point x="521" y="-146"/>
      <point x="463" y="-146" type="curve" smooth="yes"/>
      <point x="455" y="-146" type="line"/>
      <point x="455" y="-220" type="line"/>
      <point x="463" y="-220" type="line" smooth="yes"/>
      <point x="570" y="-220"/>
      <point x="636" y="-157"/>
      <point x="636" y="-52" type="curve" smooth="yes"/>
      <point x="636" y="658" type="line"/>
      <point x="556" y="658" type="line"/>
      <point x="556" y="182" type="line"/>
      <point x="557" y="136" type="line"/>
      <point x="524" y="182" type="line"/>
      <point x="155" y="658" type="line"/>
      <point x="72" y="658" type="line"/>
    </contour>
  </outline>
</glyph>
<glyph name="oe" format="2">
  <advance width="875"/>
  <unicode hex="0153"/>
  <guideline x="-300" y="-10" angle="0" name="Overshoot (-10/10)"/>
  <guideline x="-300" y="476" angle="0" name="Overshoot (476/10)"/>
  <outline>
    <contour>
      <point x="273" y="-10" type="curve" smooth="yes"/>
      <point x="358" y="-10"/>
      <point x="421" y="27"/>
      <point x="457" y="87" type="curve"/>
      <point x="494" y="26"/>
      <point x="559" y="-10"/>
      <point x="649" y="-10" type="curve" smooth="yes"/>
      <point x="707" y="-10"/>
      <point x="764" y="6"/>
      <point x="822" y="38" type="curve"/>
      <point x="822" y="116" type="line"/>
      <point x="767" y="79"/>
      <point x="713" y="60"/>
      <point x="658" y="60" type="curve" smooth="yes"/>
      <point x="558" y="60"/>
      <point x="501" y="117"/>
      <point x="500" y="211" type="curve"/>
      <point x="834" y="211" type="line"/>
      <point x="834" y="241" type="line" smooth="yes"/>
      <point x="834" y="393"/>
      <point x="757" y="476"/>
      <point x="631" y="476" type="curve" smooth="yes"/>
      <point x="553" y="476"/>
      <point x="493" y="438"/>
      <point x="458" y="378" type="curve"/>
      <point x="421" y="438"/>
      <point x="358" y="476"/>
      <point x="273" y="476" type="curve" smooth="yes"/>
      <point x="131" y="476"/>
      <point x="41" y="379"/>
      <point x="41" y="232" type="curve" smooth="yes"/>
      <point x="41" y="86"/>
      <point x="131" y="-10"/>
    </contour>
    <contour>
      <point x="630" y="408" type="curve" smooth="yes"/>
      <point x="707" y="408"/>
      <point x="752" y="357"/>
      <point x="752" y="274" type="curve"/>
      <point x="500" y="274" type="line"/>
      <point x="505" y="355"/>
      <point x="556" y="408"/>
    </contour>
    <contour>
      <point x="273" y="64" type="curve" smooth="yes"/>
      <point x="181" y="64"/>
      <point x="124" y="131"/>
      <point x="124" y="233" type="curve" smooth="yes"/>
      <point x="124" y="335"/>
      <point x="181" y="402"/>
      <point x="273" y="402" type="curve" smooth="yes"/>
      <point x="365" y="402"/>
      <point x="421" y="335"/>
      <point x="421" y="233" type="curve" smooth="yes"/>
      <point x="421" y="132"/>
      <point x="365" y="64"/>
    </contour>
  </outline>
</glyph>
<glyph name="Uogonek" format="2">
  <advance width="665"/>
  <unicode hex="0172"/>
  <guideline x="-300" y="-14" angle="0" name="Overshoot (-14/14)"/>
  <guideline x="-300" y="672" angle="0" name="Overshoot (672/14)"/>
  <outline>
    <contour>
      <point x="506" y="-220" type="curve"/>
      <point x="506" y="-153" type="line"/>
      <point x="443" y="-153"/>
      <point x="403" y="-119"/>
      <point x="403" y="-68" type="curve" smooth="yes"/>
      <point x="403" y="-31"/>
      <point x="422" y="-4"/>
      <point x="456" y="12" type="curve" smooth="yes"/>
      <point x="545" y="50"/>
      <point x="599" y="141"/>
      <point x="599" y="258" type="curve" smooth="yes"/>
      <point x="599" y="658" type="line"/>
      <point x="517" y="658" type="line"/>
      <point x="517" y="258" type="line" smooth="yes"/>
      <point x="517" y="142"/>
      <point x="447" y="66"/>
      <point x="334" y="66" type="curve" smooth="yes"/>
      <point x="223" y="66"/>
      <point x="150" y="142"/>
      <point x="150" y="258" type="curve" smooth="yes"/>
      <point x="150" y="658" type="line"/>
      <point x="66" y="658" type="line"/>
      <point x="66" y="258" type="line" smooth="yes"/>
      <point x="66" y="93"/>
      <point x="170" y="-14"/>
      <point x="333" y="-14" type="curve" smooth="yes"/>
      <point x="339" y="-14"/>
      <point x="344" y="-14"/>
      <point x="350" y="-14" type="curve"/>
      <point x="338" y="-33"/>
      <point x="331" y="-56"/>
      <point x="331" y="-83" type="curve" smooth="yes"/>
      <point x="331" y="-165"/>
      <point x="399" y="-220"/>
    </contour>
  </outline>
</glyph>
<glyph name="florin" format="2">
  <advance width="498"/>
  <unicode hex="0192"/>
  <guideline x="-300" y="-10" angle="0" name="Overshoot (-10/10)"/>
  <guideline x="-300" y="476" angle="0" name="Overshoot (476/10)"/>
  <outline>
    <contour>
      <point x="65" y="-230" type="curve" smooth="yes"/>
      <point x="158" y="-230"/>
      <point x="223" y="-174"/>
      <point x="237" y="-57" type="curve" smooth="yes"/>
      <point x="291" y="392" type="line"/>
      <point x="415" y="392" type="line"/>
      <point x="415" y="466" type="line"/>
      <point x="299" y="466" type="line"/>
      <point x="310" y="555" type="line" smooth="yes"/>
      <point x="318" y="619"/>
      <point x="349" y="655"/>
      <point x="402" y="655" type="curve" smooth="yes"/>
      <point x="432" y="655"/>
      <point x="461" y="648"/>
      <point x="489" y="634" type="curve"/>
      <point x="489" y="713" type="line"/>
      <point x="460" y="724"/>
      <point x="431" y="730"/>
      <point x="401" y="730" type="curve" smooth="yes"/>
      <point x="311" y="730"/>
      <point x="244" y="673"/>
      <point x="230" y="554" type="curve" smooth="yes"/>
      <point x="219" y="466" type="line"/>
      <point x="116" y="466" type="line"/>
      <point x="116" y="392" type="line"/>
      <point x="211" y="392" type="line"/>
      <point x="157" y="-56" type="line" smooth="yes"/>
      <point x="150" y="-118"/>
      <point x="119" y="-155"/>
      <point x="69" y="-155" type="curve" smooth="yes"/>
      <point x="37" y="-155"/>
      <point x="9" y="-148"/>
      <point x="-16" y="-135" type="curve"/>
      <point x="-16" y="-211" type="line"/>
      <point x="10" y="-224"/>
      <point x="37" y="-230"/>
    </contour>
  </outline>
</glyph>
<glyph name="Aringacute" format="2">
  <advance width="642"/>
  <unicode hex="01FA"/>
  <guideline x="-300" y="-14" angle="0" name="Overshoot (-14/14)"/>
  <guideline x="-300" y="672" angle="0" name="Overshoot (672/14)"/>
  <outline>
    <contour>
      <point x="411" y="890" type="line"/>
      <point x="349" y="890" type="line"/>
      <point x="291" y="810" type="line"/>
      <point x="351" y="810" type="line"/>
    </contour>
    <contour>
      <point x="20" y="0" type="line"/>
      <point x="106" y="0" type="line"/>
      <point x="181" y="197" type="line"/>
      <point x="457" y="197" type="line"/>
      <point x="532" y="0" type="line"/>
      <point x="623" y="0" type="line"/>
      <point x="384" y="605" type="line"/>
      <point x="372" y="635" type="line"/>
      <point x="394" y="650"/>
      <point x="406" y="676"/>
      <point x="406" y="705" type="curve" smooth="yes"/>
      <point x="406" y="748"/>
      <point x="374" y="787"/>
      <point x="322" y="787" type="curve" smooth="yes"/>
      <point x="270" y="787"/>
      <point x="237" y="749"/>
      <point x="237" y="705" type="curve" smooth="yes"/>
      <point x="237" y="676"/>
      <point x="249" y="651"/>
      <point x="271" y="636" type="curve"/>
      <point x="258" y="603" type="line"/>
    </contour>
    <contour>
      <point x="322" y="664" type="curve" smooth="yes"/>
      <point x="300" y="664"/>
      <point x="283" y="680"/>
      <point x="283" y="705" type="curve" smooth="yes"/>
      <point x="283" y="728"/>
      <point x="300" y="743"/>
      <point x="322" y="743" type="curve" smooth="yes"/>
      <point x="344" y="743"/>
      <point x="360" y="726"/>
      <point x="360" y="704" type="curve" smooth="yes"/>
      <point x="360" y="679"/>
      <point x="344" y="664"/>
    </contour>
    <contour>
      <point x="209" y="271" type="line"/>
      <point x="292" y="488" type="line"/>
      <point x="319" y="563" type="line"/>
      <point x="345" y="488" type="line"/>
      <point x="429" y="271" type="line"/>
    </contour>
  </outline>
</glyph>
<glyph name="aringacute" format="2">
  <advance width="456"/>
  <unicode hex="01FB"/>
  <guideline x="-300" y="-10" angle="0" name="Overshoot (-10/10)"/>
  <guideline x="-300" y="476" angle="0" name="Overshoot (476/10)"/>
  <outline>
    <contour>
      <point x="254" y="637" type="line"/>
      <point x="318" y="720" type="line"/>
      <point x="250" y="720" type="line"/>
      <point x="190" y="637" type="line"/>
    </contour>
    <contour>
      <point x="181" y="-10" type="curve" smooth="yes"/>
      <point x="238" y="-10"/>
      <point x="286" y="16"/>
      <point x="315" y="63" type="curve"/>
      <point x="321" y="0" type="line"/>
      <point x="396" y="0" type="line"/>
      <point x="396" y="320" type="line" smooth="yes"/>
      <point x="396" y="399"/>
      <point x="357" y="450"/>
      <point x="286" y="468" type="curve"/>
      <point x="303" y="484"/>
      <point x="312" y="506"/>
      <point x="312" y="530" type="curve" smooth="yes"/>
      <point x="312" y="580"/>
      <point x="276" y="619"/>
      <point x="220" y="619" type="curve" smooth="yes"/>
      <point x="167" y="619"/>
      <point x="132" y="580"/>
      <point x="132" y="530" type="curve" smooth="yes"/>
      <point x="132" y="505"/>
      <point x="140" y="484"/>
      <point x="157" y="469" type="curve"/>
      <point x="124" y="462"/>
      <point x="91" y="451"/>
      <point x="59" y="437" type="curve"/>
      <point x="59" y="356" type="line"/>
      <point x="106" y="386"/>
      <point x="155" y="401"/>
      <point x="209" y="401" type="curve" smooth="yes"/>
      <point x="276" y="401"/>
      <point x="314" y="375"/>
      <point x="314" y="318" type="curve" smooth="yes"/>
      <point x="314" y="294" type="line"/>
      <point x="215" y="281" type="line" smooth="yes"/>
      <point x="100" y="264"/>
      <point x="38" y="208"/>
      <point x="38" y="124" type="curve" smooth="yes"/>
      <point x="38" y="42"/>
      <point x="94" y="-10"/>
    </contour>
    <contour>
      <point x="222" y="488" type="curve" smooth="yes"/>
      <point x="200" y="488"/>
      <point x="181" y="506"/>
      <point x="181" y="532" type="curve" smooth="yes"/>
      <point x="181" y="556"/>
      <point x="200" y="572"/>
      <point x="222" y="572" type="curve" smooth="yes"/>
      <point x="241" y="572"/>
      <point x="263" y="558"/>
      <point x="263" y="532" type="curve" smooth="yes"/>
      <point x="263" y="506"/>
      <point x="245" y="488"/>
    </contour>
    <contour>
      <point x="204" y="57" type="curve" smooth="yes"/>
      <point x="151" y="57"/>
      <point x="119" y="86"/>
      <point x="119" y="132" type="curve" smooth="yes"/>
      <point x="119" y="181"/>
      <point x="157" y="214"/>
      <point x="225" y="223" type="curve" smooth="yes"/>
      <point x="314" y="235" type="line"/>
      <point x="314" y="128" type="line"/>
      <point x="296" y="86"/>
      <point x="255" y="57"/>
    </contour>
  </outline>
</glyph>
<glyph name="jdotless" format="2">
  <advance width="206"/>
  <unicode hex="0237"/>
  <guideline x="-300" y="-10" angle="0" name="Overshoot (-10/10)"/>
  <guideline x="-300" y="476" angle="0" name="Overshoot (476/10)"/>
  <anchor x="105.0" y="450" name="top"/>
  <outline>
    <contour>
      <point x="-24" y="-220" type="line" smooth="yes"/>
      <point x="79" y="-220"/>
      <point x="146" y="-152"/>
      <point x="146" y="-45" type="curve" smooth="yes"/>
      <point x="146" y="466" type="line"/>
      <point x="65" y="466" type="line"/>
      <point x="65" y="-45" type="line" smooth="yes"/>
      <point x="65" y="-106"/>
      <point x="30" y="-146"/>
      <point x="-24" y="-146" type="curve" smooth="yes"/>
      <point x="-32" y="-146" type="line"/>
      <point x="-32" y="-220" type="line"/>
    </contour>
  </outline>
</glyph>
<glyph name="schwa" format="2">
  <advance width="504"/>
  <unicode hex="0259"/>
  <guideline x="-300" y="-10" angle="0" name="Overshoot (-10/10)"/>
  <guideline x="-300" y="476" angle="0" name="Overshoot (476/10)"/>
  <outline>
    <contour>
      <point x="249" y="-10" type="curve" smooth="yes"/>
      <point x="380" y="-10"/>
      <point x="463" y="83"/>
      <point x="463" y="232" type="curve" smooth="yes"/>
      <point x="463" y="383"/>
      <point x="378" y="476"/>
      <point x="229" y="476" type="curve" smooth="yes"/>
      <point x="173" y="476"/>
      <point x="110" y="459"/>
      <point x="53" y="428" type="curve"/>
      <point x="53" y="354" type="line"/>
      <point x="105" y="388"/>
      <point x="165" y="406"/>
      <point x="219" y="406" type="curve" smooth="yes"/>
      <point x="320" y="406"/>
      <point x="377" y="351"/>
      <point x="380" y="261" type="curve"/>
      <point x="41" y="261" type="line"/>
      <point x="41" y="221" type="line" smooth="yes"/>
      <point x="41" y="80"/>
      <point x="120" y="-10"/>
    </contour>
    <contour>
      <point x="250" y="59" type="curve" smooth="yes"/>
      <point x="171" y="59"/>
      <point x="123" y="111"/>
      <point x="123" y="196" type="curve"/>
      <point x="380" y="196" type="line"/>
      <point x="376" y="112"/>
      <point x="325" y="59"/>
    </contour>
  </outline>
</glyph>
<glyph name="gravecmb" format="2">
  <unicode hex="0300"/>
  <guideline x="-300" y="-10" angle="0" name="Overshoot (-10/10)"/>
  <guideline x="-300" y="476" angle="0" name="Overshoot (476/10)"/>
  <guideline x="-300" y="661" angle="0" name="Top CMB (661)"/>
  <guideline x="-300" y="524" angle="0" name="Bottom CMB (524)"/>
  <guideline x="-300" y="238" angle="0" name="Middle+overshoot/2 CMB (238)"/>
  <anchor x="0" y="450" name="_top"/>
  <outline>
    <contour>
      <point x="-27" y="524" type="line"/>
      <point x="55" y="524" type="line"/>
      <point x="-44" y="661" type="line"/>
      <point x="-136" y="661" type="line"/>
    </contour>
  </outline>
</glyph>
<glyph name="ringcmb" format="2">
  <unicode hex="030A"/>
  <guideline x="-300" y="-10" angle="0" name="Overshoot (-10/10)"/>
  <guideline x="-300" y="476" angle="0" name="Overshoot (476/10)"/>
  <guideline x="-300" y="661" angle="0" name="Top CMB (661)"/>
  <guideline x="-300" y="524" angle="0" name="Bottom CMB (524)"/>
  <guideline x="-300" y="238" angle="0" name="Middle+overshoot/2 CMB (238)"/>
  <anchor x="0" y="450" name="_top"/>
  <outline>
    <contour>
      <point x="0" y="508" type="curve" smooth="yes"/>
      <point x="56" y="508"/>
      <point x="90" y="548"/>
      <point x="90" y="598" type="curve" smooth="yes"/>
      <point x="90" y="648"/>
      <point x="56" y="688"/>
      <point x="0" y="688" type="curve" smooth="yes"/>
      <point x="-55" y="688"/>
      <point x="-90" y="648"/>
      <point x="-90" y="598" type="curve" smooth="yes"/>
      <point x="-90" y="548"/>
      <point x="-55" y="508"/>
    </contour>
    <contour>
      <point x="0" y="554" type="curve" smooth="yes"/>
      <point x="-22" y="554"/>
      <point x="-41" y="572"/>
      <point x="-41" y="598" type="curve" smooth="yes"/>
      <point x="-41" y="624"/>
      <point x="-22" y="642"/>
      <point x="0" y="642" type="curve" smooth="yes"/>
      <point x="23" y="642"/>
      <point x="41" y="624"/>
      <point x="41" y="598" type="curve" smooth="yes"/>
      <point x="41" y="572"/>
      <point x="23" y="554"/>
    </contour>
  </outline>
</glyph>
<glyph name="hungarumlautcmb" format="2">
  <unicode hex="030B"/>
  <guideline x="-300" y="-10" angle="0" name="Overshoot (-10/10)"/>
  <guideline x="-300" y="476" angle="0" name="Overshoot (476/10)"/>
  <guideline x="-300" y="661" angle="0" name="Top CMB (661)"/>
  <guideline x="-300" y="524" angle="0" name="Bottom CMB (524)"/>
  <guideline x="-300" y="238" angle="0" name="Middle+overshoot/2 CMB (238)"/>
  <anchor x="0.0" y="450" name="_top"/>
  <outline>
    <contour>
      <point x="-109" y="523" type="line"/>
      <point x="-37" y="523" type="line"/>
      <point x="63" y="659" type="line"/>
      <point x="-18" y="659" type="line"/>
    </contour>
    <contour>
      <point x="34" y="523" type="line"/>
      <point x="106" y="523" type="line"/>
      <point x="211" y="659" type="line"/>
      <point x="131" y="659" type="line"/>
    </contour>
  </outline>
</glyph>
<glyph name="commaturnedabovecmb" format="2">
  <unicode hex="0312"/>
  <guideline x="-300" y="-10" angle="0" name="Overshoot (-10/10)"/>
  <guideline x="-300" y="476" angle="0" name="Overshoot (476/10)"/>
  <guideline x="-300" y="661" angle="0" name="Top CMB (661)"/>
  <guideline x="-300" y="524" angle="0" name="Bottom CMB (524)"/>
  <guideline x="-300" y="238" angle="0" name="Middle+overshoot/2 CMB (238)"/>
  <anchor x="0.0" y="450" name="_top"/>
  <outline>
    <contour>
      <point x="17" y="712" type="line"/>
      <point x="-20" y="666"/>
      <point x="-37" y="615"/>
      <point x="-37" y="562" type="curve" smooth="yes"/>
      <point x="-37" y="520" type="line"/>
      <point x="37" y="520" type="line"/>
      <point x="37" y="562" type="line" smooth="yes"/>
      <point x="37" y="608"/>
      <point x="46" y="642"/>
      <point x="75" y="685" type="curve"/>
    </contour>
  </outline>
</glyph>
<glyph name="commaaccentcmb" format="2">
  <unicode hex="0326"/>
  <guideline x="-300" y="-10" angle="0" name="Overshoot (-10/10)"/>
  <guideline x="-300" y="476" angle="0" name="Overshoot (476/10)"/>
  <guideline x="-300" y="661" angle="0" name="Top CMB (661)"/>
  <guideline x="-300" y="524" angle="0" name="Bottom CMB (524)"/>
  <guideline x="-300" y="238" angle="0" name="Middle+overshoot/2 CMB (238)"/>
  <anchor x="0.0" y="16" name="_bottom"/>
  <outline>
    <contour>
      <point x="-18" y="-232" type="line"/>
      <point x="19" y="-186"/>
      <point x="36" y="-135"/>
      <point x="36" y="-82" type="curve" smooth="yes"/>
      <point x="36" y="-40" type="line"/>
      <point x="-36" y="-40" type="line"/>
      <point x="-36" y="-82" type="line" smooth="yes"/>
      <point x="-36" y="-128"/>
      <point x="-47" y="-162"/>
      <point x="-76" y="-205" type="curve"/>
    </contour>
  </outline>
</glyph>
<glyph name="mu" format="2">
  <advance width="502"/>
  <unicode hex="03BC"/>
  <unicode hex="00B5"/>
  <guideline x="-300" y="-10" angle="0" name="Overshoot (-10/10)"/>
  <guideline x="-300" y="476" angle="0" name="Overshoot (476/10)"/>
  <outline>
    <contour>
      <point x="132" y="-220" type="line"/>
      <point x="118" y="30" type="line"/>
      <point x="139" y="4"/>
      <point x="172" y="-10"/>
      <point x="217" y="-10" type="curve" smooth="yes"/>
      <point x="279" y="-10"/>
      <point x="323" y="15"/>
      <point x="356" y="63" type="curve"/>
      <point x="363" y="0" type="line"/>
      <point x="438" y="0" type="line"/>
      <point x="438" y="466" type="line"/>
      <point x="356" y="466" type="line"/>
      <point x="356" y="135" type="line"/>
      <point x="333" y="93"/>
      <point x="295" y="64"/>
      <point x="242" y="64" type="curve" smooth="yes"/>
      <point x="180" y="64"/>
      <point x="142" y="105"/>
      <point x="142" y="175" type="curve" smooth="yes"/>
      <point x="142" y="466" type="line"/>
      <point x="60" y="466" type="line"/>
      <point x="60" y="-220" type="line"/>
    </contour>
  </outline>
</glyph>
<glyph name="endash" format="2">
  <advance width="500"/>
  <unicode hex="2013"/>
  <guideline x="-300" y="-10" angle="0" name="Overshoot (-10/10)"/>
  <guideline x="-300" y="476" angle="0" name="Overshoot (476/10)"/>
  <outline>
    <contour>
      <point x="44" y="200" type="line"/>
      <point x="456" y="200" type="line"/>
      <point x="456" y="272" type="line"/>
      <point x="44" y="272" type="line"/>
    </contour>
  </outline>
</glyph>
<glyph name="n.sups" format="2">
  <advance width="381"/>
  <unicode hex="207F"/>
  <guideline x="-200" y="440" angle="0" name="Baseline (440)"/>
  <guideline x="-300" y="431" angle="0" name="Overshoot (431/9)"/>
  <guideline x="-200" y="800" angle="0" name="xHeight (800)"/>
  <guideline x="-300" y="809" angle="0" name="Overshoot (809/9)"/>
  <guideline x="-300" y="993" angle="0" name="SUPS Ascender (993)"/>
  <guideline x="-300" y="288" angle="0" name="SUPS Descender (288)"/>
  <outline>
    <contour>
      <point x="44" y="440" type="line"/>
      <point x="117" y="440" type="line"/>
      <point x="117" y="695" type="line"/>
      <point x="134" y="723"/>
      <point x="162" y="741"/>
      <point x="196" y="741" type="curve" smooth="yes"/>
      <point x="242" y="741"/>
      <point x="271.0" y="714.0"/>
      <point x="271" y="662" type="curve" smooth="yes"/>
      <point x="271" y="440" type="line"/>
      <point x="344" y="440" type="line"/>
      <point x="344" y="678" type="line" smooth="yes"/>
      <point x="344" y="758"/>
      <point x="300" y="809"/>
      <point x="223" y="809" type="curve" smooth="yes"/>
      <point x="181" y="809"/>
      <point x="144" y="790"/>
      <point x="117" y="754" type="curve"/>
      <point x="117" y="800" type="line"/>
      <point x="44" y="800" type="line"/>
    </contour>
  </outline>
</glyph>
<glyph name="Euro" format="2">
  <advance width="703"/>
  <unicode hex="20AC"/>
  <guideline x="-300" y="-14" angle="0" name="Overshoot (-14/14)"/>
  <guideline x="-300" y="672" angle="0" name="Overshoot (672/14)"/>
  <outline>
    <contour>
      <point x="29" y="243" type="line"/>
      <point x="102" y="243" type="line"/>
      <point x="135" y="83"/>
      <point x="263" y="-14"/>
      <point x="445" y="-14" type="curve" smooth="yes"/>
      <point x="523" y="-14"/>
      <point x="590" y="3"/>
      <point x="656" y="42" type="curve"/>
      <point x="656" y="128" type="line"/>
      <point x="590" y="85"/>
      <point x="525" y="64"/>
      <point x="445" y="64" type="curve" smooth="yes"/>
      <point x="316" y="64"/>
      <point x="222" y="131"/>
      <point x="190" y="243" type="curve"/>
      <point x="354" y="243" type="line"/>
      <point x="354" y="302" type="line"/>
      <point x="180" y="302" type="line"/>
      <point x="179" y="311"/>
      <point x="179" y="320"/>
      <point x="179" y="329" type="curve" smooth="yes"/>
      <point x="179" y="339"/>
      <point x="179" y="349"/>
      <point x="180" y="358" type="curve"/>
      <point x="353" y="358" type="line"/>
      <point x="353" y="417" type="line"/>
      <point x="191" y="417" type="line"/>
      <point x="222" y="527"/>
      <point x="315" y="594"/>
      <point x="445" y="594" type="curve" smooth="yes"/>
      <point x="522" y="594"/>
      <point x="586" y="577"/>
      <point x="649" y="538" type="curve"/>
      <point x="649" y="623" type="line"/>
      <point x="585" y="656"/>
      <point x="522" y="672"/>
      <point x="445" y="672" type="curve" smooth="yes"/>
      <point x="261" y="672"/>
      <point x="136" y="574"/>
      <point x="102" y="417" type="curve"/>
      <point x="29" y="417" type="line"/>
      <point x="29" y="358" type="line"/>
      <point x="94" y="358" type="line"/>
      <point x="93" y="349"/>
      <point x="93" y="339"/>
      <point x="93" y="329" type="curve" smooth="yes"/>
      <point x="93" y="320"/>
      <point x="93" y="311"/>
      <point x="94" y="302" type="curve"/>
      <point x="29" y="302" type="line"/>
    </contour>
  </outline>
</glyph>
<glyph name="trademark" format="2">
  <advance width="605"/>
  <unicode hex="2122"/>
  <guideline x="-200" y="360" angle="0" name="Baseline (360)"/>
  <guideline x="-300" y="350" angle="0" name="Overshoot (350/10)"/>
  <guideline x="-200" y="720" angle="0" name="xHeight (720)"/>
  <guideline x="-300" y="730" angle="0" name="Overshoot (730/10)"/>
  <outline>
    <contour>
      <point x="104" y="458" type="line"/>
      <point x="160" y="458" type="line"/>
      <point x="160" y="672" type="line"/>
      <point x="236" y="672" type="line"/>
      <point x="236" y="720" type="line"/>
      <point x="28" y="720" type="line"/>
      <point x="28" y="672" type="line"/>
      <point x="104" y="672" type="line"/>
    </contour>
    <contour>
      <point x="266" y="458" type="line"/>
      <point x="314" y="458" type="line"/>
      <point x="314" y="665" type="line"/>
      <point x="389" y="502" type="line"/>
      <point x="425" y="502" type="line"/>
      <point x="500" y="665" type="line"/>
      <point x="500" y="458" type="line"/>
      <point x="556" y="458" type="line"/>
      <point x="556" y="720" type="line"/>
      <point x="474" y="720" type="line"/>
      <point x="413" y="583" type="line"/>
      <point x="351" y="720" type="line"/>
      <point x="266" y="720" type="line"/>
    </contour>
  </outline>
</glyph>
<glyph name="partialdiff" format="2">
  <advance width="540"/>
  <unicode hex="2202"/>
  <guideline x="-300" y="-10" angle="0" name="Overshoot (-10/10)"/>
  <guideline x="-300" y="476" angle="0" name="Overshoot (476/10)"/>
  <outline>
    <contour>
      <point x="268" y="-10" type="curve" smooth="yes"/>
      <point x="394" y="-10"/>
      <point x="492" y="78"/>
      <point x="492" y="278" type="curve" smooth="yes"/>
      <point x="492" y="526"/>
      <point x="336" y="691"/>
      <point x="74" y="691" type="curve"/>
      <point x="74" y="606" type="line"/>
      <point x="251" y="606"/>
      <point x="366" y="525"/>
      <point x="398" y="364" type="curve"/>
      <point x="365" y="419"/>
      <point x="307" y="447"/>
      <point x="246" y="447" type="curve" smooth="yes"/>
      <point x="128" y="447"/>
      <point x="40" y="358"/>
      <point x="40" y="216" type="curve" smooth="yes"/>
      <point x="40" y="70"/>
      <point x="134" y="-10"/>
    </contour>
    <contour>
      <point x="265" y="68" type="curve" smooth="yes"/>
      <point x="176" y="68"/>
      <point x="127" y="132"/>
      <point x="127" y="221" type="curve" smooth="yes"/>
      <point x="127" y="306"/>
      <point x="179" y="370"/>
      <point x="263" y="370" type="curve" smooth="yes"/>
      <point x="345" y="370"/>
      <point x="399" y="316"/>
      <point x="406" y="241" type="curve" smooth="yes"/>
      <point x="406" y="135"/>
      <point x="351" y="68"/>
    </contour>
  </outline>
</glyph>
<glyph name="radical" format="2">
  <advance width="590"/>
  <unicode hex="221A"/>
  <guideline x="-300" y="-10" angle="0" name="Overshoot (-10/10)"/>
  <guideline x="-300" y="476" angle="0" name="Overshoot (476/10)"/>
  <outline>
    <contour>
      <point x="211" y="0" type="line"/>
      <point x="290" y="0" type="line"/>
      <point x="579" y="720" type="line"/>
      <point x="499" y="720" type="line"/>
      <point x="254" y="110" type="line"/>
      <point x="111" y="466" type="line"/>
      <point x="23" y="466" type="line"/>
    </contour>
  </outline>
</glyph>
<glyph name="integral" format="2">
  <advance width="485"/>
  <unicode hex="222B"/>
  <guideline x="-300" y="-10" angle="0" name="Overshoot (-10/10)"/>
  <guideline x="-300" y="476" angle="0" name="Overshoot (476/10)"/>
  <outline>
    <contour>
      <point x="58" y="-230" type="curve" smooth="yes"/>
      <point x="151" y="-230"/>
      <point x="216" y="-174"/>
      <point x="230" y="-57" type="curve" smooth="yes"/>
      <point x="304" y="555" type="line" smooth="yes"/>
      <point x="312" y="619"/>
      <point x="343" y="655"/>
      <point x="396" y="655" type="curve" smooth="yes"/>
      <point x="426" y="655"/>
      <point x="454" y="648"/>
      <point x="483" y="634" type="curve"/>
      <point x="483" y="713" type="line"/>
      <point x="454" y="724"/>
      <point x="425" y="730"/>
      <point x="395" y="730" type="curve" smooth="yes"/>
      <point x="305" y="730"/>
      <point x="237" y="673"/>
      <point x="223" y="554" type="curve" smooth="yes"/>
      <point x="149" y="-56" type="line" smooth="yes"/>
      <point x="141" y="-118"/>
      <point x="111" y="-155"/>
      <point x="61" y="-155" type="curve" smooth="yes"/>
      <point x="29" y="-155"/>
      <point x="2" y="-148"/>
      <point x="-23" y="-135" type="curve"/>
      <point x="-23" y="-211" type="line"/>
      <point x="3" y="-224"/>
      <point x="29" y="-230"/>
    </contour>
  </outline>
</glyph>
<glyph name="checkmark" format="2">
  <advance width="589"/>
  <unicode hex="2713"/>
  <guideline x="-300" y="-10" angle="0" name="Overshoot (-10/10)"/>
  <guideline x="-300" y="476" angle="0" name="Overshoot (476/10)"/>
  <outline>
    <contour>
      <point x="207" y="0" type="line"/>
      <point x="286" y="0" type="line"/>
      <point x="573" y="720" type="line"/>
      <point x="493" y="720" type="line"/>
      <point x="250" y="108" type="line"/>
      <point x="104" y="466" type="line"/>
      <point x="16" y="466" type="line"/>
    </contour>
  </outline>
</glyph>
<glyph name="Omega" format="2">
  <advance width="674"/>
  <unicode hex="A7B6"/>
  <unicode hex="2126"/>
  <guideline x="-300" y="-14" angle="0" name="Overshoot (-14/14)"/>
  <guideline x="-300" y="672" angle="0" name="Overshoot (672/14)"/>
  <outline>
    <contour>
      <point x="56" y="0" type="line"/>
      <point x="301" y="0" type="line"/>
      <point x="301" y="167" type="line"/>
      <point x="193" y="180"/>
      <point x="123" y="269"/>
      <point x="123" y="378" type="curve" smooth="yes"/>
      <point x="123" y="505"/>
      <point x="206" y="593"/>
      <point x="337" y="593" type="curve" smooth="yes"/>
      <point x="469" y="593"/>
      <point x="551" y="504"/>
      <point x="551" y="376" type="curve" smooth="yes"/>
      <point x="551" y="266"/>
      <point x="479" y="178"/>
      <point x="367" y="167" type="curve"/>
      <point x="367" y="0" type="line"/>
      <point x="611" y="0" type="line"/>
      <point x="611" y="80" type="line"/>
      <point x="430" y="80" type="line"/>
      <point x="430" y="111" type="line"/>
      <point x="549" y="138"/>
      <point x="637" y="240"/>
      <point x="637" y="379" type="curve" smooth="yes"/>
      <point x="637" y="563"/>
      <point x="511" y="672"/>
      <point x="337" y="672" type="curve" smooth="yes"/>
      <point x="163" y="672"/>
      <point x="38" y="562"/>
      <point x="38" y="377" type="curve" smooth="yes"/>
      <point x="38" y="240"/>
      <point x="122" y="140"/>
      <point x="238" y="113" type="curve"/>
      <point x="238" y="80" type="line"/>
      <point x="56" y="80" type="line"/>
    </contour>
  </outline>
</glyph>
<glyph name="A.sc" format="2">
  <advance width="535"/>
  <guideline x="-300" y="-10" angle="0" name="Overshoot (-10/10)" identifier="Dt0fkMRCTH"/>
  <guideline x="-200" y="512" angle="0" name="xHeight (512)" identifier="NY8zcy29vT"/>
  <guideline x="-300" y="522" angle="0" name="Overshoot (522/10)" identifier="xhZOqBrr88"/>
  <anchor x="266.0" y="496" name="top"/>
  <anchor x="510.0" y="16" name="ogonek"/>
  <outline>
    <contour>
      <point x="13" y="0" type="line"/>
      <point x="91" y="0" type="line"/>
      <point x="147" y="141" type="line"/>
      <point x="372" y="141" type="line"/>
      <point x="428" y="0" type="line"/>
      <point x="515" y="0" type="line"/>
      <point x="310" y="512" type="line"/>
      <point x="218" y="512" type="line"/>
    </contour>
    <contour>
      <point x="174" y="212" type="line"/>
      <point x="236" y="367" type="line"/>
      <point x="260" y="436" type="line"/>
      <point x="284" y="367" type="line"/>
      <point x="346" y="212" type="line"/>
    </contour>
  </outline>
</glyph>
<glyph name="AE.sc" format="2">
  <advance width="723"/>
  <guideline x="-300" y="-10" angle="0" name="Overshoot (-10/10)"/>
  <guideline x="-200" y="512" angle="0" name="xHeight (512)"/>
  <guideline x="-300" y="522" angle="0" name="Overshoot (522/10)"/>
  <anchor x="434.0" y="496" name="top"/>
  <outline>
    <contour>
      <point x="13" y="0" type="line"/>
      <point x="97" y="0" type="line"/>
      <point x="182" y="136" type="line"/>
      <point x="360" y="136" type="line"/>
      <point x="360" y="0" type="line"/>
      <point x="674" y="0" type="line"/>
      <point x="674" y="75" type="line"/>
      <point x="442" y="75" type="line"/>
      <point x="442" y="224" type="line"/>
      <point x="644" y="224" type="line"/>
      <point x="644" y="298" type="line"/>
      <point x="442" y="298" type="line"/>
      <point x="442" y="438" type="line"/>
      <point x="669" y="438" type="line"/>
      <point x="669" y="512" type="line"/>
      <point x="330" y="512" type="line"/>
    </contour>
    <contour>
      <point x="225" y="207" type="line"/>
      <point x="329" y="374" type="line"/>
      <point x="360" y="426" type="line"/>
      <point x="360" y="207" type="line"/>
    </contour>
  </outline>
</glyph>
<glyph name="Aringacute.sc" format="2">
  <advance width="535"/>
  <guideline x="-300" y="-10" angle="0" name="Overshoot (-10/10)"/>
  <guideline x="-200" y="512" angle="0" name="xHeight (512)"/>
  <guideline x="-300" y="522" angle="0" name="Overshoot (522/10)"/>
  <outline>
    <contour>
      <point x="295" y="683" type="line"/>
      <point x="359" y="767" type="line"/>
      <point x="292" y="767" type="line"/>
      <point x="231" y="683" type="line"/>
    </contour>
    <contour>
      <point x="13" y="0" type="line"/>
      <point x="91" y="0" type="line"/>
      <point x="147" y="141" type="line"/>
      <point x="372" y="141" type="line"/>
      <point x="428" y="0" type="line"/>
      <point x="515" y="0" type="line"/>
      <point x="316" y="496" type="line"/>
      <point x="345" y="516"/>
      <point x="354" y="546"/>
      <point x="354" y="567" type="curve" smooth="yes"/>
      <point x="354" y="619"/>
      <point x="319" y="658"/>
      <point x="264" y="658" type="curve" smooth="yes"/>
      <point x="209" y="658"/>
      <point x="174" y="620"/>
      <point x="174" y="567" type="curve" smooth="yes"/>
      <point x="174" y="544"/>
      <point x="185" y="514"/>
      <point x="212" y="496" type="curve"/>
    </contour>
    <contour>
      <point x="264" y="529" type="curve" smooth="yes"/>
      <point x="242" y="529"/>
      <point x="223" y="544"/>
      <point x="223" y="570" type="curve" smooth="yes"/>
      <point x="223" y="595"/>
      <point x="242" y="611"/>
      <point x="264" y="611" type="curve" smooth="yes"/>
      <point x="287" y="611"/>
      <point x="305" y="594"/>
      <point x="305" y="570" type="curve" smooth="yes"/>
      <point x="305" y="544"/>
      <point x="287" y="529"/>
    </contour>
    <contour>
      <point x="174" y="212" type="line"/>
      <point x="236" y="367" type="line"/>
      <point x="260" y="443" type="line"/>
      <point x="284" y="367" type="line"/>
      <point x="346" y="212" type="line"/>
    </contour>
  </outline>
</glyph>
<glyph name="B.sc" format="2">
  <advance width="446"/>
  <guideline x="-300" y="-10" angle="0" name="Overshoot (-10/10)" identifier="dPCC2FWf0Q"/>
  <guideline x="-200" y="512" angle="0" name="xHeight (512)" identifier="5ZlFJhjfOE"/>
  <guideline x="-300" y="522" angle="0" name="Overshoot (522/10)" identifier="zGawYGhqks"/>
  <outline>
    <contour>
      <point x="66" y="0" type="line"/>
      <point x="234" y="0" type="line" smooth="yes"/>
      <point x="347" y="0"/>
      <point x="402" y="55"/>
      <point x="402" y="138" type="curve" smooth="yes"/>
      <point x="402" y="202"/>
      <point x="365" y="249"/>
      <point x="292" y="263" type="curve"/>
      <point x="352" y="279"/>
      <point x="388" y="325"/>
      <point x="388" y="383" type="curve" smooth="yes"/>
      <point x="388" y="462"/>
      <point x="337" y="512"/>
      <point x="228" y="512" type="curve" smooth="yes"/>
      <point x="66" y="512" type="line"/>
    </contour>
    <contour>
      <point x="148" y="291" type="line"/>
      <point x="148" y="447" type="line"/>
      <point x="214" y="447" type="line" smooth="yes"/>
      <point x="270" y="447"/>
      <point x="305" y="422"/>
      <point x="305" y="371" type="curve" smooth="yes"/>
      <point x="305" y="318"/>
      <point x="269" y="291"/>
      <point x="213" y="291" type="curve" smooth="yes"/>
    </contour>
    <contour>
      <point x="148" y="66" type="line"/>
      <point x="148" y="229" type="line"/>
      <point x="222" y="229" type="line" smooth="yes"/>
      <point x="281" y="229"/>
      <point x="319" y="203"/>
      <point x="319" y="148" type="curve" smooth="yes"/>
      <point x="319" y="93"/>
      <point x="282" y="66"/>
      <point x="227" y="66" type="curve" smooth="yes"/>
    </contour>
  </outline>
</glyph>
<glyph name="C.sc" format="2">
  <advance width="511"/>
  <guideline x="-300" y="-10" angle="0" name="Overshoot (-10/10)" identifier="eiUVv2cW7L"/>
  <guideline x="-200" y="512" angle="0" name="xHeight (512)" identifier="vmD7FbTgJA"/>
  <guideline x="-300" y="522" angle="0" name="Overshoot (522/10)" identifier="VGtMXWiyZI"/>
  <anchor x="312.0" y="496" name="top"/>
  <anchor x="289.0" y="16" name="bottom"/>
  <outline>
    <contour>
      <point x="321" y="-10" type="curve" smooth="yes"/>
      <point x="374" y="-10"/>
      <point x="426" y="1"/>
      <point x="472" y="24" type="curve"/>
      <point x="472" y="103" type="line"/>
      <point x="424" y="77"/>
      <point x="373" y="65"/>
      <point x="322" y="65" type="curve" smooth="yes"/>
      <point x="203" y="65"/>
      <point x="127" y="139"/>
      <point x="127" y="257" type="curve" smooth="yes"/>
      <point x="127" y="375"/>
      <point x="203" y="447"/>
      <point x="322" y="447" type="curve" smooth="yes"/>
      <point x="369" y="447"/>
      <point x="418" y="435"/>
      <point x="465" y="412" type="curve"/>
      <point x="465" y="491" type="line"/>
      <point x="420" y="511"/>
      <point x="371" y="522"/>
      <point x="321" y="522" type="curve" smooth="yes"/>
      <point x="153" y="522"/>
      <point x="44" y="419"/>
      <point x="44" y="257" type="curve" smooth="yes"/>
      <point x="44" y="94"/>
      <point x="153" y="-10"/>
    </contour>
  </outline>
</glyph>
<glyph name="E.sc" format="2">
  <advance width="434"/>
  <guideline x="-300" y="-10" angle="0" name="Overshoot (-10/10)" identifier="O2X4W9u2cn"/>
  <guideline x="-200" y="512" angle="0" name="xHeight (512)" identifier="JC0LWXnzJa"/>
  <guideline x="-300" y="522" angle="0" name="Overshoot (522/10)" identifier="M428HzQKiu"/>
  <anchor x="382.0" y="16" name="ogonek"/>
  <anchor x="229.0" y="496" name="top"/>
  <outline>
    <contour>
      <point x="72" y="0" type="line"/>
      <point x="386" y="0" type="line"/>
      <point x="386" y="74" type="line"/>
      <point x="154" y="74" type="line"/>
      <point x="154" y="225" type="line"/>
      <point x="356" y="225" type="line"/>
      <point x="356" y="294" type="line"/>
      <point x="154" y="294" type="line"/>
      <point x="154" y="440" type="line"/>
      <point x="380" y="440" type="line"/>
      <point x="380" y="512" type="line"/>
      <point x="72" y="512" type="line"/>
    </contour>
  </outline>
</glyph>
<glyph name="Eng.sc" format="2">
  <advance width="593"/>
  <guideline x="-300" y="-10" angle="0" name="Overshoot (-10/10)"/>
  <guideline x="-200" y="512" angle="0" name="xHeight (512)"/>
  <guideline x="-300" y="522" angle="0" name="Overshoot (522/10)"/>
  <outline>
    <contour>
      <point x="66" y="0" type="line"/>
      <point x="142" y="0" type="line"/>
      <point x="142" y="345" type="line"/>
      <point x="141" y="390" type="line"/>
      <point x="172" y="345" type="line"/>
      <point x="453" y="0" type="line"/>
      <point x="453" y="-58" type="line" smooth="yes"/>
      <point x="453" y="-119"/>
      <point x="415" y="-157"/>
      <point x="356" y="-157" type="curve" smooth="yes"/>
      <point x="348" y="-157" type="line"/>
      <point x="348" y="-220" type="line"/>
      <point x="356" y="-220" type="line" smooth="yes"/>
      <point x="463" y="-220"/>
      <point x="527" y="-158"/>
      <point x="527" y="-58" type="curve" smooth="yes"/>
      <point x="527" y="512" type="line"/>
      <point x="451" y="512" type="line"/>
      <point x="451" y="166" type="line"/>
      <point x="452" y="124" type="line"/>
      <point x="423" y="166" type="line"/>
      <point x="141" y="512" type="line"/>
      <point x="66" y="512" type="line"/>
    </contour>
  </outline>
</glyph>
<glyph name="Euro.lc" format="2">
  <advance width="505"/>
  <guideline x="-300" y="-10" angle="0" name="Overshoot (-10/10)"/>
  <guideline x="-300" y="476" angle="0" name="Overshoot (476/10)"/>
  <guideline x="-300" y="-180" angle="0" name="Bottom lowercase figures (-180)"/>
  <outline>
    <contour>
      <point x="33" y="169" type="line"/>
      <point x="87" y="169" type="line"/>
      <point x="110" y="57"/>
      <point x="196" y="-10"/>
      <point x="320" y="-10" type="curve" smooth="yes"/>
      <point x="370" y="-10"/>
      <point x="420" y="5"/>
      <point x="462" y="32" type="curve"/>
      <point x="462" y="116" type="line"/>
      <point x="423" y="85"/>
      <point x="375" y="66"/>
      <point x="325" y="66" type="curve" smooth="yes"/>
      <point x="249" y="66"/>
      <point x="194" y="103"/>
      <point x="173" y="169" type="curve"/>
      <point x="317" y="169" type="line"/>
      <point x="317" y="212" type="line"/>
      <point x="165" y="212" type="line"/>
      <point x="164" y="219"/>
      <point x="164" y="226"/>
      <point x="164" y="233" type="curve" smooth="yes"/>
      <point x="164" y="242"/>
      <point x="164" y="250"/>
      <point x="165" y="258" type="curve"/>
      <point x="317" y="258" type="line"/>
      <point x="317" y="301" type="line"/>
      <point x="174" y="301" type="line"/>
      <point x="195" y="365"/>
      <point x="247" y="400"/>
      <point x="321" y="400" type="curve" smooth="yes"/>
      <point x="372" y="400"/>
      <point x="416" y="385"/>
      <point x="462" y="355" type="curve"/>
      <point x="462" y="439" type="line"/>
      <point x="416" y="464"/>
      <point x="367" y="476"/>
      <point x="318" y="476" type="curve" smooth="yes"/>
      <point x="197" y="476"/>
      <point x="112" y="411"/>
      <point x="88" y="301" type="curve"/>
      <point x="33" y="301" type="line"/>
      <point x="33" y="258" type="line"/>
      <point x="82" y="258" type="line"/>
      <point x="81" y="250"/>
      <point x="81" y="241"/>
      <point x="81" y="232" type="curve" smooth="yes"/>
      <point x="81" y="225"/>
      <point x="81" y="218"/>
      <point x="82" y="212" type="curve"/>
      <point x="33" y="212" type="line"/>
    </contour>
  </outline>
</glyph>
<glyph name="Euro.sc" format="2">
  <advance width="570"/>
  <guideline x="-300" y="-13" angle="0" name="Overshoot (-13/13)"/>
  <guideline x="-200" y="512" angle="0" name="xHeight (512)"/>
  <guideline x="-300" y="525" angle="0" name="Overshoot (525/13)"/>
  <outline>
    <contour>
      <point x="36" y="174" type="line"/>
      <point x="103" y="174" type="line"/>
      <point x="134" y="60"/>
      <point x="232" y="-10"/>
      <point x="369" y="-10" type="curve" smooth="yes"/>
      <point x="422" y="-10"/>
      <point x="474" y="1"/>
      <point x="520" y="24" type="curve"/>
      <point x="520" y="103" type="line"/>
      <point x="472" y="77"/>
      <point x="421" y="65"/>
      <point x="370" y="65" type="curve" smooth="yes"/>
      <point x="282" y="65"/>
      <point x="218" y="105"/>
      <point x="190" y="174" type="curve"/>
      <point x="330" y="174" type="line"/>
      <point x="330" y="229" type="line"/>
      <point x="177" y="229" type="line"/>
      <point x="176" y="238"/>
      <point x="175" y="247"/>
      <point x="175" y="257" type="curve" smooth="yes"/>
      <point x="175" y="265"/>
      <point x="175" y="272"/>
      <point x="176" y="279" type="curve"/>
      <point x="330" y="279" type="line"/>
      <point x="330" y="334" type="line"/>
      <point x="188" y="334" type="line"/>
      <point x="214" y="406"/>
      <point x="280" y="447"/>
      <point x="370" y="447" type="curve" smooth="yes"/>
      <point x="417" y="447"/>
      <point x="466" y="435"/>
      <point x="513" y="412" type="curve"/>
      <point x="513" y="491" type="line"/>
      <point x="468" y="511"/>
      <point x="419" y="522"/>
      <point x="369" y="522" type="curve" smooth="yes"/>
      <point x="229" y="522"/>
      <point x="131" y="451"/>
      <point x="101" y="334" type="curve"/>
      <point x="36" y="334" type="line"/>
      <point x="36" y="279" type="line"/>
      <point x="93" y="279" type="line"/>
      <point x="92" y="272"/>
      <point x="92" y="265"/>
      <point x="92" y="257" type="curve" smooth="yes"/>
      <point x="92" y="247"/>
      <point x="92" y="238"/>
      <point x="93" y="229" type="curve"/>
      <point x="36" y="229" type="line"/>
    </contour>
  </outline>
</glyph>
<glyph name="Euro.tab" format="2">
  <advance width="650"/>
  <guideline x="-300" y="-14" angle="0" name="Overshoot (-14/14)"/>
  <guideline x="-300" y="672" angle="0" name="Overshoot (672/14)"/>
  <outline>
    <contour>
      <point x="57" y="243" type="line"/>
      <point x="116" y="243" type="line"/>
      <point x="144" y="85"/>
      <point x="254" y="-14"/>
      <point x="411" y="-14" type="curve" smooth="yes"/>
      <point x="476" y="-14"/>
      <point x="536" y="1"/>
      <point x="593" y="30" type="curve"/>
      <point x="593" y="116" type="line"/>
      <point x="537" y="82"/>
      <point x="477" y="65"/>
      <point x="413" y="65" type="curve" smooth="yes"/>
      <point x="304" y="65"/>
      <point x="227" y="133"/>
      <point x="201" y="243" type="curve"/>
      <point x="330" y="243" type="line"/>
      <point x="330" y="302" type="line"/>
      <point x="192" y="302" type="line"/>
      <point x="191" y="311"/>
      <point x="191" y="320"/>
      <point x="191" y="330" type="curve" smooth="yes"/>
      <point x="191" y="340"/>
      <point x="191" y="350"/>
      <point x="192" y="359" type="curve"/>
      <point x="329" y="359" type="line"/>
      <point x="329" y="418" type="line"/>
      <point x="201" y="418" type="line"/>
      <point x="228" y="526"/>
      <point x="305" y="593"/>
      <point x="413" y="593" type="curve" smooth="yes"/>
      <point x="476" y="593"/>
      <point x="533" y="578"/>
      <point x="587" y="547" type="curve"/>
      <point x="587" y="632" type="line"/>
      <point x="532" y="659"/>
      <point x="475" y="672"/>
      <point x="413" y="672" type="curve" smooth="yes"/>
      <point x="256" y="672"/>
      <point x="146" y="574"/>
      <point x="116" y="418" type="curve"/>
      <point x="57" y="418" type="line"/>
      <point x="57" y="359" type="line"/>
      <point x="109" y="359" type="line"/>
      <point x="108" y="350"/>
      <point x="108" y="340"/>
      <point x="108" y="330" type="curve" smooth="yes"/>
      <point x="108" y="320"/>
      <point x="108" y="311"/>
      <point x="109" y="302" type="curve"/>
      <point x="57" y="302" type="line"/>
    </contour>
  </outline>
</glyph>
<glyph name="G.sc" format="2">
  <advance width="550"/>
  <guideline x="-300" y="-13" angle="0" name="Overshoot (-13/13)" identifier="k4GxFURzxe"/>
  <guideline x="-200" y="512" angle="0" name="xHeight (512)" identifier="3XykWKMfee"/>
  <guideline x="-300" y="525" angle="0" name="Overshoot (525/13)" identifier="8WuAhxoOsT"/>
  <anchor x="307.0" y="16" name="bottom"/>
  <anchor x="308.0" y="496" name="top"/>
  <outline>
    <contour>
      <point x="317" y="-10" type="curve" smooth="yes"/>
      <point x="381" y="-10"/>
      <point x="442" y="5"/>
      <point x="500" y="36" type="curve"/>
      <point x="500" y="273" type="line"/>
      <point x="320" y="273" type="line"/>
      <point x="320" y="202" type="line"/>
      <point x="418" y="202" type="line"/>
      <point x="418" y="90" type="line"/>
      <point x="385" y="73"/>
      <point x="351" y="65"/>
      <point x="314" y="65" type="curve" smooth="yes"/>
      <point x="200" y="65"/>
      <point x="127" y="139"/>
      <point x="127" y="257" type="curve" smooth="yes"/>
      <point x="127" y="375"/>
      <point x="203" y="447"/>
      <point x="322" y="447" type="curve" smooth="yes"/>
      <point x="374" y="447"/>
      <point x="424" y="435"/>
      <point x="474" y="412" type="curve"/>
      <point x="474" y="491" type="line"/>
      <point x="424" y="511"/>
      <point x="372" y="522"/>
      <point x="321" y="522" type="curve" smooth="yes"/>
      <point x="153" y="522"/>
      <point x="44" y="419"/>
      <point x="44" y="257" type="curve" smooth="yes"/>
      <point x="44" y="94"/>
      <point x="151" y="-10"/>
    </contour>
  </outline>
</glyph>
<glyph name="J.base" format="2">
  <advance width="278"/>
  <guideline x="-300" y="-14" angle="0" name="Overshoot (-14/14)" identifier="Wf6huA77zG"/>
  <guideline x="-300" y="672" angle="0" name="Overshoot (672/14)" identifier="qbLDLlwBXI"/>
  <anchor x="168.0" y="642" name="top"/>
  <outline>
    <contour>
      <point x="37" y="0" type="line" smooth="yes"/>
      <point x="144" y="0"/>
      <point x="212" y="69"/>
      <point x="212" y="177" type="curve" smooth="yes"/>
      <point x="212" y="658" type="line"/>
      <point x="128" y="658" type="line"/>
      <point x="128" y="177" type="line" smooth="yes"/>
      <point x="128" y="116"/>
      <point x="93" y="78"/>
      <point x="37" y="78" type="curve" smooth="yes"/>
      <point x="29" y="78" type="line"/>
      <point x="29" y="0" type="line"/>
    </contour>
  </outline>
</glyph>
<glyph name="J.base_sc" format="2">
  <advance width="270"/>
  <guideline x="-300" y="-10" angle="0" name="Overshoot (-10/10)" identifier="4qUTad4Oe5"/>
  <guideline x="-200" y="512" angle="0" name="xHeight (512)" identifier="nZtLACBVw0"/>
  <guideline x="-300" y="522" angle="0" name="Overshoot (522/10)" identifier="LVXHwKeJbh"/>
  <anchor x="164.0" y="496" name="top"/>
  <outline>
    <contour>
      <point x="39" y="0" type="line" smooth="yes"/>
      <point x="147" y="0"/>
      <point x="208" y="66"/>
      <point x="208" y="168" type="curve" smooth="yes"/>
      <point x="208" y="512" type="line"/>
      <point x="126" y="512" type="line"/>
      <point x="126" y="169" type="line" smooth="yes"/>
      <point x="126" y="107"/>
      <point x="95" y="76"/>
      <point x="39" y="76" type="curve" smooth="yes"/>
      <point x="31" y="76" type="line"/>
      <point x="31" y="0" type="line"/>
    </contour>
  </outline>
</glyph>
<glyph name="K.sc" format="2">
  <advance width="489"/>
  <guideline x="-300" y="-10" angle="0" name="Overshoot (-10/10)" identifier="grgbPHbI1E"/>
  <guideline x="-200" y="512" angle="0" name="xHeight (512)" identifier="IguMWkP7w2"/>
  <guideline x="-300" y="522" angle="0" name="Overshoot (522/10)" identifier="dwn0xNNthM"/>
  <anchor x="258.0" y="16" name="bottom"/>
  <outline>
    <contour>
      <point x="66" y="0" type="line"/>
      <point x="148" y="0" type="line"/>
      <point x="148" y="244" type="line"/>
      <point x="367" y="0" type="line"/>
      <point x="471" y="0" type="line"/>
      <point x="232" y="264" type="line"/>
      <point x="454" y="512" type="line"/>
      <point x="359" y="512" type="line"/>
      <point x="148" y="273" type="line"/>
      <point x="148" y="512" type="line"/>
      <point x="66" y="512" type="line"/>
    </contour>
  </outline>
</glyph>
<glyph name="L.sc" format="2">
  <advance width="393"/>
  <guideline x="-300" y="-10" angle="0" name="Overshoot (-10/10)" identifier="cza5SqDh6o"/>
  <guideline x="-200" y="512" angle="0" name="xHeight (512)" identifier="8OTlWCBpRj"/>
  <guideline x="-300" y="522" angle="0" name="Overshoot (522/10)" identifier="gdsJo1oqKp"/>
  <anchor x="228.0" y="16" name="bottom"/>
  <anchor x="310.0" y="496" name="caron.vert"/>
  <anchor x="119.0" y="496" name="top"/>
  <anchor x="196.0" y="16" name="middle"/>
  <outline>
    <contour>
      <point x="72" y="0" type="line"/>
      <point x="367" y="0" type="line"/>
      <point x="367" y="74" type="line"/>
      <point x="154" y="74" type="line"/>
      <point x="154" y="512" type="line"/>
      <point x="72" y="512" type="line"/>
    </contour>
  </outline>
</glyph>
<glyph name="O.sc" format="2">
  <advance width="609"/>
  <guideline x="-300" y="-13" angle="0" name="Overshoot (-13/13)" identifier="St778fcYDd"/>
  <guideline x="-200" y="512" angle="0" name="xHeight (512)" identifier="oBcUqbwzZ7"/>
  <guideline x="-300" y="525" angle="0" name="Overshoot (525/13)" identifier="dZDq4zjIt0"/>
  <anchor x="305.0" y="496" name="top"/>
  <outline>
    <contour>
      <point x="304" y="-13" type="curve" smooth="yes"/>
      <point x="469" y="-13"/>
      <point x="565" y="87"/>
      <point x="565" y="259" type="curve" smooth="yes"/>
      <point x="565" y="427"/>
      <point x="469" y="525"/>
      <point x="304" y="525" type="curve" smooth="yes"/>
      <point x="139" y="525"/>
      <point x="44" y="427"/>
      <point x="44" y="258" type="curve" smooth="yes"/>
      <point x="44" y="86"/>
      <point x="139" y="-13"/>
    </contour>
    <contour>
      <point x="304" y="61" type="curve" smooth="yes"/>
      <point x="192" y="61"/>
      <point x="127" y="134"/>
      <point x="127" y="259" type="curve" smooth="yes"/>
      <point x="127" y="381"/>
      <point x="192" y="451"/>
      <point x="304" y="451" type="curve" smooth="yes"/>
      <point x="417" y="451"/>
      <point x="482" y="380"/>
      <point x="482" y="258" type="curve" smooth="yes"/>
      <point x="482" y="133"/>
      <point x="417" y="61"/>
    </contour>
  </outline>
</glyph>
<glyph name="R.sc" format="2">
  <advance width="464"/>
  <guideline x="-300" y="-10" angle="0" name="Overshoot (-10/10)" identifier="DWzHhKBdu2"/>
  <guideline x="-200" y="512" angle="0" name="xHeight (512)" identifier="7jkuJXX4G3"/>
  <guideline x="-300" y="522" angle="0" name="Overshoot (522/10)" identifier="DweSjPE0PQ"/>
  <anchor x="238.0" y="16" name="bottom"/>
  <anchor x="224.0" y="496" name="top"/>
  <outline>
    <contour>
      <point x="66" y="0" type="line"/>
      <point x="148" y="0" type="line"/>
      <point x="148" y="210" type="line"/>
      <point x="195" y="210" type="line" smooth="yes"/>
      <point x="228" y="210"/>
      <point x="262" y="195"/>
      <point x="281" y="152" type="curve" smooth="yes"/>
      <point x="350" y="0" type="line"/>
      <point x="439" y="0" type="line"/>
      <point x="359" y="175" type="line" smooth="yes"/>
      <point x="342" y="212"/>
      <point x="317" y="232"/>
      <point x="283" y="241" type="curve"/>
      <point x="358" y="255"/>
      <point x="398" y="305"/>
      <point x="398" y="378" type="curve" smooth="yes"/>
      <point x="398" y="461"/>
      <point x="330" y="512"/>
      <point x="234" y="512" type="curve" smooth="yes"/>
      <point x="66" y="512" type="line"/>
    </contour>
    <contour>
      <point x="148" y="278" type="line"/>
      <point x="148" y="442" type="line"/>
      <point x="225" y="442" type="line" smooth="yes"/>
      <point x="280" y="442"/>
      <point x="315" y="410"/>
      <point x="315" y="364" type="curve" smooth="yes"/>
      <point x="315" y="311"/>
      <point x="280" y="278"/>
      <point x="228" y="278" type="curve" smooth="yes"/>
    </contour>
  </outline>
</glyph>
<glyph name="U.sc" format="2">
  <advance width="561"/>
  <guideline x="-300" y="-10" angle="0" name="Overshoot (-10/10)" identifier="r14yoLSVX4"/>
  <guideline x="-200" y="512" angle="0" name="xHeight (512)" identifier="HGkQ0K0MpO"/>
  <guideline x="-300" y="522" angle="0" name="Overshoot (522/10)" identifier="ztttLxxy1b"/>
  <anchor x="280.0" y="16" name="ogonek"/>
  <anchor x="285.0" y="496" name="top"/>
  <outline>
    <contour>
      <point x="282" y="-10" type="curve" smooth="yes"/>
      <point x="418" y="-10"/>
      <point x="499" y="82"/>
      <point x="499" y="212" type="curve" smooth="yes"/>
      <point x="499" y="512" type="line"/>
      <point x="423" y="512" type="line"/>
      <point x="423" y="212" type="line" smooth="yes"/>
      <point x="423" y="120"/>
      <point x="367" y="63"/>
      <point x="283" y="63" type="curve" smooth="yes"/>
      <point x="199" y="63"/>
      <point x="143" y="120"/>
      <point x="143" y="212" type="curve" smooth="yes"/>
      <point x="143" y="512" type="line"/>
      <point x="61" y="512" type="line"/>
      <point x="61" y="212" type="line" smooth="yes"/>
      <point x="61" y="82"/>
      <point x="143" y="-10"/>
    </contour>
  </outline>
</glyph>
<glyph name="W.sc" format="2">
  <advance width="753"/>
  <guideline x="-300" y="-10" angle="0" name="Overshoot (-10/10)" identifier="TmZyWeNq8b"/>
  <guideline x="-200" y="512" angle="0" name="xHeight (512)" identifier="IZP0eMQ4Ht"/>
  <guideline x="-300" y="522" angle="0" name="Overshoot (522/10)" identifier="QlJqoee7ru"/>
  <anchor x="376.0" y="496" name="top"/>
  <outline>
    <contour>
      <point x="172" y="0" type="line"/>
      <point x="254" y="0" type="line"/>
      <point x="361" y="351" type="line"/>
      <point x="376" y="408" type="line"/>
      <point x="390" y="351" type="line"/>
      <point x="498" y="0" type="line"/>
      <point x="579" y="0" type="line"/>
      <point x="741" y="512" type="line"/>
      <point x="663" y="512" type="line"/>
      <point x="557" y="166" type="line"/>
      <point x="542" y="107" type="line"/>
      <point x="526" y="166" type="line"/>
      <point x="420" y="512" type="line"/>
      <point x="340" y="512" type="line"/>
      <point x="233" y="166" type="line"/>
      <point x="219" y="112" type="line"/>
      <point x="204" y="166" type="line"/>
      <point x="98" y="512" type="line"/>
      <point x="12" y="512" type="line"/>
    </contour>
  </outline>
</glyph>
<glyph name="Y.sc" format="2">
  <advance width="466"/>
  <guideline x="-300" y="-10" angle="0" name="Overshoot (-10/10)" identifier="wb60RwwlDL"/>
  <guideline x="-200" y="512" angle="0" name="xHeight (512)" identifier="pAwLVEhQm0"/>
  <guideline x="-300" y="522" angle="0" name="Overshoot (522/10)" identifier="FmS6JYTLOF"/>
  <anchor x="236.0" y="496" name="top"/>
  <outline>
    <contour>
      <point x="191" y="0" type="line"/>
      <point x="273" y="0" type="line"/>
      <point x="273" y="211" type="line"/>
      <point x="453" y="512" type="line"/>
      <point x="366" y="512" type="line"/>
      <point x="258" y="326" type="line"/>
      <point x="238" y="286" type="line"/>
      <point x="218" y="326" type="line"/>
      <point x="109" y="512" type="line"/>
      <point x="13" y="512" type="line"/>
      <point x="191" y="214" type="line"/>
    </contour>
  </outline>
</glyph>
<glyph name="Z.sc" format="2">
  <advance width="461"/>
  <guideline x="-300" y="-10" angle="0" name="Overshoot (-10/10)" identifier="TSt3tu25dL"/>
  <guideline x="-200" y="512" angle="0" name="xHeight (512)" identifier="IizZtJzcOM"/>
  <guideline x="-300" y="522" angle="0" name="Overshoot (522/10)" identifier="dWHNfEHpsD"/>
  <anchor x="246.0" y="496" name="top"/>
  <outline>
    <contour>
      <point x="38" y="0" type="line"/>
      <point x="422" y="0" type="line"/>
      <point x="422" y="75" type="line"/>
      <point x="147" y="75" type="line"/>
      <point x="186" y="124" type="line"/>
      <point x="424" y="460" type="line"/>
      <point x="424" y="512" type="line"/>
      <point x="52" y="512" type="line"/>
      <point x="52" y="437" type="line"/>
      <point x="314" y="437" type="line"/>
      <point x="276" y="388" type="line"/>
      <point x="38" y="52" type="line"/>
    </contour>
  </outline>
</glyph>
<glyph name="a.sups" format="2">
  <advance width="353"/>
  <guideline x="-200" y="440" angle="0" name="Baseline (440)" identifier="t2laEbTvdh"/>
  <guideline x="-300" y="431" angle="0" name="Overshoot (431/9)" identifier="mOLqeGpWoZ"/>
  <guideline x="-200" y="800" angle="0" name="xHeight (800)" identifier="iCIWV5W34J"/>
  <guideline x="-300" y="809" angle="0" name="Overshoot (809/9)" identifier="9PJYOWcC37"/>
  <guideline x="-300" y="993" angle="0" name="SUPS Ascender (993)" identifier="VULELhIwev"/>
  <guideline x="-300" y="288" angle="0" name="SUPS Descender (288)" identifier="qiTrD2ubuX"/>
  <outline>
    <contour>
      <point x="144" y="431" type="curve" smooth="yes"/>
      <point x="187" y="431"/>
      <point x="222" y="451"/>
      <point x="244" y="487" type="curve"/>
      <point x="249" y="440" type="line"/>
      <point x="317" y="440" type="line"/>
      <point x="317" y="687" type="line" smooth="yes"/>
      <point x="317" y="766"/>
      <point x="264" y="809"/>
      <point x="181" y="809" type="curve" smooth="yes"/>
      <point x="135" y="809"/>
      <point x="91" y="798"/>
      <point x="50" y="781" type="curve"/>
      <point x="50" y="718" type="line"/>
      <point x="86" y="740"/>
      <point x="124" y="750"/>
      <point x="165" y="750" type="curve" smooth="yes"/>
      <point x="217" y="750"/>
      <point x="244" y="731"/>
      <point x="244" y="688" type="curve" smooth="yes"/>
      <point x="244" y="667" type="line"/>
      <point x="170" y="657" type="line" smooth="yes"/>
      <point x="81" y="645"/>
      <point x="33" y="601"/>
      <point x="33" y="534" type="curve" smooth="yes"/>
      <point x="33" y="472"/>
      <point x="75" y="431"/>
    </contour>
    <contour>
      <point x="168" y="489" type="curve" smooth="yes"/>
      <point x="130" y="489"/>
      <point x="107" y="511"/>
      <point x="107" y="544" type="curve" smooth="yes"/>
      <point x="107" y="580"/>
      <point x="134" y="602"/>
      <point x="181" y="609" type="curve" smooth="yes"/>
      <point x="244" y="618" type="line"/>
      <point x="244" y="539" type="line"/>
      <point x="231" y="509"/>
      <point x="203" y="489"/>
    </contour>
  </outline>
</glyph>
<glyph name="ampersand.sc" format="2">
  <advance width="492"/>
  <guideline x="-300" y="-13" angle="0" name="Overshoot (-13/13)"/>
  <guideline x="-200" y="512" angle="0" name="xHeight (512)"/>
  <guideline x="-300" y="525" angle="0" name="Overshoot (525/13)"/>
  <outline>
    <contour>
      <point x="205" y="-13" type="curve" smooth="yes"/>
      <point x="263" y="-13"/>
      <point x="314" y="7"/>
      <point x="345" y="42" type="curve"/>
      <point x="381" y="0" type="line"/>
      <point x="473" y="0" type="line"/>
      <point x="386" y="99" type="line"/>
      <point x="417" y="149"/>
      <point x="434" y="216"/>
      <point x="434" y="289" type="curve"/>
      <point x="366" y="289" type="line"/>
      <point x="366" y="236"/>
      <point x="358" y="188"/>
      <point x="339" y="152" type="curve"/>
      <point x="222" y="285" type="line" smooth="yes"/>
      <point x="186" y="326"/>
      <point x="174" y="356"/>
      <point x="174" y="388" type="curve" smooth="yes"/>
      <point x="174" y="431"/>
      <point x="208" y="459"/>
      <point x="253" y="459" type="curve" smooth="yes"/>
      <point x="298" y="459"/>
      <point x="336" y="441"/>
      <point x="371" y="407" type="curve"/>
      <point x="371" y="483" type="line"/>
      <point x="334" y="511"/>
      <point x="290" y="525"/>
      <point x="241" y="525" type="curve" smooth="yes"/>
      <point x="155" y="525"/>
      <point x="101" y="467"/>
      <point x="101" y="391" type="curve" smooth="yes"/>
      <point x="101" y="364"/>
      <point x="110" y="335"/>
      <point x="126" y="306" type="curve"/>
      <point x="67" y="275"/>
      <point x="27" y="216"/>
      <point x="27" y="147" type="curve" smooth="yes"/>
      <point x="27" y="54"/>
      <point x="95" y="-13"/>
    </contour>
    <contour>
      <point x="100" y="151" type="curve" smooth="yes"/>
      <point x="100" y="193"/>
      <point x="122" y="232"/>
      <point x="161" y="256" type="curve"/>
      <point x="300" y="94" type="line"/>
      <point x="277" y="68"/>
      <point x="248" y="54"/>
      <point x="205" y="54" type="curve" smooth="yes"/>
      <point x="143" y="54"/>
      <point x="100" y="93"/>
    </contour>
  </outline>
</glyph>
<glyph name="aogonekcmb" format="2">
  <guideline x="-300" y="-10" angle="0" name="Overshoot (-10/10)"/>
  <guideline x="-300" y="476" angle="0" name="Overshoot (476/10)"/>
  <guideline x="-300" y="661" angle="0" name="Top CMB (661)"/>
  <guideline x="-300" y="524" angle="0" name="Bottom CMB (524)"/>
  <guideline x="-300" y="238" angle="0" name="Middle+overshoot/2 CMB (238)"/>
  <anchor x="0" y="16" name="_ogonek"/>
  <outline>
    <contour>
      <point x="0" y="-220" type="curve"/>
      <point x="0" y="-153" type="line"/>
      <point x="-49" y="-153"/>
      <point x="-76" y="-130"/>
      <point x="-76" y="-95" type="curve" smooth="yes"/>
      <point x="-76" y="-55"/>
      <point x="-49" y="-23"/>
      <point x="0" y="0" type="curve"/>
      <point x="-15" y="35" type="line"/>
      <point x="-101" y="-7"/>
      <point x="-146" y="-54"/>
      <point x="-146" y="-116" type="curve" smooth="yes"/>
      <point x="-146" y="-186"/>
      <point x="-92" y="-220"/>
    </contour>
  </outline>
</glyph>
<glyph name="b.sups" format="2">
  <advance width="393"/>
  <guideline x="-200" y="440" angle="0" name="Baseline (440)"/>
  <guideline x="-300" y="431" angle="0" name="Overshoot (431/9)"/>
  <guideline x="-200" y="800" angle="0" name="xHeight (800)"/>
  <guideline x="-300" y="809" angle="0" name="Overshoot (809/9)"/>
  <guideline x="-300" y="993" angle="0" name="SUPS Ascender (993)"/>
  <guideline x="-300" y="288" angle="0" name="SUPS Descender (288)"/>
  <outline>
    <contour>
      <point x="179" y="431" type="curve" smooth="yes"/>
      <point x="292" y="431"/>
      <point x="364" y="507"/>
      <point x="364" y="626" type="curve" smooth="yes"/>
      <point x="364" y="737"/>
      <point x="304" y="809"/>
      <point x="212" y="809" type="curve" smooth="yes"/>
      <point x="176" y="809"/>
      <point x="140" y="795"/>
      <point x="115" y="771" type="curve"/>
      <point x="115" y="993" type="line"/>
      <point x="42" y="993" type="line"/>
      <point x="42" y="457" type="line"/>
      <point x="87" y="440"/>
      <point x="132" y="431"/>
    </contour>
    <contour>
      <point x="183" y="492" type="curve" smooth="yes"/>
      <point x="159" y="492"/>
      <point x="137" y="496"/>
      <point x="115" y="504" type="curve"/>
      <point x="115" y="712" type="line"/>
      <point x="137" y="733"/>
      <point x="161" y="743"/>
      <point x="190" y="743" type="curve" smooth="yes"/>
      <point x="251" y="743"/>
      <point x="290" y="695"/>
      <point x="290" y="621" type="curve" smooth="yes"/>
      <point x="290" y="543"/>
      <point x="248" y="492"/>
    </contour>
  </outline>
</glyph>
<glyph name="backslash.tab" format="2">
  <advance width="650"/>
  <guideline x="-300" y="-10" angle="0" name="Overshoot (-10/10)"/>
  <guideline x="-300" y="476" angle="0" name="Overshoot (476/10)"/>
  <outline>
    <contour>
      <point x="436" y="0" type="line"/>
      <point x="513" y="0" type="line"/>
      <point x="216" y="720" type="line"/>
      <point x="138" y="720" type="line"/>
    </contour>
  </outline>
</glyph>
<glyph name="bitcoin.sc" format="2">
  <advance width="444"/>
  <guideline x="-300" y="-13" angle="0" name="Overshoot (-13/13)"/>
  <guideline x="-200" y="512" angle="0" name="xHeight (512)"/>
  <guideline x="-300" y="525" angle="0" name="Overshoot (525/13)"/>
  <outline>
    <contour>
      <point x="134" y="490" type="line"/>
      <point x="192" y="490" type="line"/>
      <point x="192" y="627" type="line"/>
      <point x="134" y="627" type="line"/>
    </contour>
    <contour>
      <point x="241" y="490" type="line"/>
      <point x="299" y="490" type="line"/>
      <point x="299" y="627" type="line"/>
      <point x="241" y="627" type="line"/>
    </contour>
    <contour>
      <point x="134" y="-113" type="line"/>
      <point x="192" y="-113" type="line"/>
      <point x="192" y="24" type="line"/>
      <point x="134" y="24" type="line"/>
    </contour>
    <contour>
      <point x="241" y="-113" type="line"/>
      <point x="299" y="-113" type="line"/>
      <point x="299" y="24" type="line"/>
      <point x="241" y="24" type="line"/>
    </contour>
    <component base="B.sc"/>
  </outline>
</glyph>
<glyph name="brevecmb.uc" format="2">
  <guideline x="-300" y="-10" angle="0" name="Overshoot (-10/10)"/>
  <guideline x="-300" y="476" angle="0" name="Overshoot (476/10)"/>
  <guideline x="-300" y="850" angle="0" name="Top CMB (850)"/>
  <guideline x="-300" y="720" angle="0" name="Bottom CMB (720)"/>
  <guideline x="-300" y="334" angle="0" name="Middle+overshoot/2 CMB (334)"/>
  <anchor x="0.0" y="642" name="_top"/>
  <outline>
    <contour>
      <point x="0" y="708" type="curve" smooth="yes"/>
      <point x="70" y="708"/>
      <point x="116" y="756"/>
      <point x="116" y="835" type="curve"/>
      <point x="63" y="835" type="line"/>
      <point x="63" y="790"/>
      <point x="38" y="762"/>
      <point x="0" y="762" type="curve" smooth="yes"/>
      <point x="-36" y="762"/>
      <point x="-59" y="790"/>
      <point x="-59" y="835" type="curve"/>
      <point x="-112" y="835" type="line"/>
      <point x="-112" y="756"/>
      <point x="-68" y="708"/>
    </contour>
  </outline>
</glyph>
<glyph name="c.sups" format="2">
  <advance width="355"/>
  <guideline x="-200" y="440" angle="0" name="Baseline (440)" identifier="St5yfyUhmA"/>
  <guideline x="-300" y="431" angle="0" name="Overshoot (431/9)" identifier="KPrRo5pW8c"/>
  <guideline x="-200" y="800" angle="0" name="xHeight (800)" identifier="SiHYDTqQym"/>
  <guideline x="-300" y="809" angle="0" name="Overshoot (809/9)" identifier="6RrARuR2JY"/>
  <guideline x="-300" y="993" angle="0" name="SUPS Ascender (993)" identifier="lWDOqIYekL"/>
  <guideline x="-300" y="288" angle="0" name="SUPS Descender (288)" identifier="B3qHg1HT35"/>
  <outline>
    <contour>
      <point x="217" y="431" type="curve" smooth="yes"/>
      <point x="255" y="431"/>
      <point x="293" y="442"/>
      <point x="326" y="463" type="curve"/>
      <point x="326" y="532" type="line"/>
      <point x="297" y="509"/>
      <point x="260" y="497"/>
      <point x="222" y="497" type="curve" smooth="yes"/>
      <point x="151" y="497"/>
      <point x="103" y="545"/>
      <point x="103" y="619" type="curve" smooth="yes"/>
      <point x="103" y="697"/>
      <point x="148" y="743"/>
      <point x="219" y="743" type="curve" smooth="yes"/>
      <point x="257" y="743"/>
      <point x="292" y="732"/>
      <point x="326" y="711" type="curve"/>
      <point x="326" y="781" type="line"/>
      <point x="290" y="799"/>
      <point x="251" y="809"/>
      <point x="214" y="809" type="curve" smooth="yes"/>
      <point x="101" y="809"/>
      <point x="28" y="736"/>
      <point x="28" y="618" type="curve" smooth="yes"/>
      <point x="28" y="503"/>
      <point x="103" y="431"/>
    </contour>
  </outline>
</glyph>
<glyph name="caroncmb.vert" format="2">
  <guideline x="-300" y="-10" angle="0" name="Overshoot (-10/10)"/>
  <guideline x="-300" y="476" angle="0" name="Overshoot (476/10)"/>
  <guideline x="-300" y="661" angle="0" name="Top CMB (661)"/>
  <guideline x="-300" y="524" angle="0" name="Bottom CMB (524)"/>
  <guideline x="-300" y="238" angle="0" name="Middle+overshoot/2 CMB (238)"/>
  <anchor x="0.0" y="704" name="_caron.vert"/>
  <outline>
    <contour>
      <point x="-17" y="528" type="line"/>
      <point x="20" y="573"/>
      <point x="37" y="625"/>
      <point x="37" y="678" type="curve" smooth="yes"/>
      <point x="37" y="720" type="line"/>
      <point x="-36" y="720" type="line"/>
      <point x="-36" y="678" type="line" smooth="yes"/>
      <point x="-36" y="631"/>
      <point x="-46" y="597"/>
      <point x="-75" y="555" type="curve"/>
    </contour>
  </outline>
</glyph>
<glyph name="caroncmb.vert.uc" format="2">
  <guideline x="-300" y="-10" angle="0" name="Overshoot (-10/10)"/>
  <guideline x="-300" y="476" angle="0" name="Overshoot (476/10)"/>
  <guideline x="-300" y="850" angle="0" name="Top CMB (850)"/>
  <guideline x="-300" y="720" angle="0" name="Bottom CMB (720)"/>
  <guideline x="-300" y="334" angle="0" name="Middle+overshoot/2 CMB (334)"/>
  <anchor x="0.0" y="642" name="_caron.vert"/>
  <outline>
    <contour>
      <point x="-17" y="466" type="line"/>
      <point x="20" y="512"/>
      <point x="37" y="563"/>
      <point x="37" y="616" type="curve" smooth="yes"/>
      <point x="37" y="658" type="line"/>
      <point x="-36" y="658" type="line"/>
      <point x="-36" y="616" type="line" smooth="yes"/>
      <point x="-36" y="570"/>
      <point x="-46" y="536"/>
      <point x="-75" y="493" type="curve"/>
    </contour>
  </outline>
</glyph>
<glyph name="cedillacmb.uc" format="2">
  <guideline x="-300" y="-10" angle="0" name="Overshoot (-10/10)"/>
  <guideline x="-300" y="476" angle="0" name="Overshoot (476/10)"/>
  <guideline x="-300" y="850" angle="0" name="Top CMB (850)"/>
  <guideline x="-300" y="720" angle="0" name="Bottom CMB (720)"/>
  <guideline x="-300" y="334" angle="0" name="Middle+overshoot/2 CMB (334)"/>
  <anchor x="0" y="16" name="_bottom"/>
  <outline>
    <contour>
      <point x="13" y="-206" type="curve" smooth="yes"/>
      <point x="62" y="-206"/>
      <point x="94" y="-175"/>
      <point x="94" y="-127" type="curve" smooth="yes"/>
      <point x="94" y="-79"/>
      <point x="57" y="-48"/>
      <point x="-1" y="-48" type="curve" smooth="yes"/>
      <point x="-8" y="-48" type="line"/>
      <point x="-8" y="-93" type="line"/>
      <point x="-1" y="-93" type="line" smooth="yes"/>
      <point x="22" y="-93"/>
      <point x="38" y="-106"/>
      <point x="38" y="-127" type="curve" smooth="yes"/>
      <point x="38" y="-147"/>
      <point x="24" y="-161"/>
      <point x="3" y="-161" type="curve" smooth="yes"/>
      <point x="-14" y="-161"/>
      <point x="-33" y="-155"/>
      <point x="-49" y="-144" type="curve"/>
      <point x="-49" y="-192" type="line"/>
      <point x="-30" y="-201"/>
      <point x="-8" y="-206"/>
    </contour>
  </outline>
</glyph>
<glyph name="cent.sc" format="2">
  <advance width="436"/>
  <guideline x="-300" y="-13" angle="0" name="Overshoot (-13/13)"/>
  <guideline x="-200" y="512" angle="0" name="xHeight (512)"/>
  <guideline x="-300" y="525" angle="0" name="Overshoot (525/13)"/>
  <outline>
    <contour>
      <point x="213" y="0" type="line"/>
      <point x="283" y="0" type="line"/>
      <point x="283" y="53" type="line"/>
      <point x="323" y="57"/>
      <point x="361" y="70"/>
      <point x="394" y="91" type="curve"/>
      <point x="394" y="175" type="line"/>
      <point x="362" y="150"/>
      <point x="324" y="133"/>
      <point x="283" y="129" type="curve"/>
      <point x="283" y="382" type="line"/>
      <point x="321" y="378"/>
      <point x="357" y="364"/>
      <point x="392" y="341" type="curve"/>
      <point x="392" y="425" type="line"/>
      <point x="358" y="443"/>
      <point x="320" y="455"/>
      <point x="283" y="459" type="curve"/>
      <point x="283" y="512" type="line"/>
      <point x="213" y="512" type="line"/>
      <point x="213" y="458" type="line"/>
      <point x="108" y="444"/>
      <point x="41" y="368"/>
      <point x="41" y="254" type="curve" smooth="yes"/>
      <point x="41" y="145"/>
      <point x="109" y="69"/>
      <point x="213" y="54" type="curve"/>
    </contour>
    <contour>
      <point x="124" y="255" type="curve" smooth="yes"/>
      <point x="124" y="321"/>
      <point x="156" y="365"/>
      <point x="213" y="379" type="curve"/>
      <point x="213" y="133" type="line"/>
      <point x="157" y="148"/>
      <point x="124" y="192"/>
    </contour>
  </outline>
</glyph>
<glyph name="cent.sc_AT_weight800" format="2">
  <advance width="436"/>
  <guideline x="-300" y="-13" angle="0" name="Overshoot (-13/13)"/>
  <guideline x="-200" y="512" angle="0" name="xHeight (512)"/>
  <guideline x="-300" y="525" angle="0" name="Overshoot (525/13)"/>
  <outline>
    <contour>
      <point x="216" y="0" type="line"/>
      <point x="286" y="0" type="line"/>
      <point x="286" y="54" type="line"/>
      <point x="326" y="57"/>
      <point x="364" y="70"/>
      <point x="397" y="91" type="curve"/>
      <point x="397" y="175" type="line"/>
      <point x="359" y="145"/>
      <point x="311" y="127"/>
      <point x="261" y="127" type="curve" smooth="yes"/>
      <point x="178" y="127"/>
      <point x="127" y="177"/>
      <point x="127" y="255" type="curve" smooth="yes"/>
      <point x="127" y="336"/>
      <point x="175" y="384"/>
      <point x="258" y="384" type="curve" smooth="yes"/>
      <point x="307" y="384"/>
      <point x="352" y="369"/>
      <point x="395" y="341" type="curve"/>
      <point x="395" y="425" type="line"/>
      <point x="361" y="444"/>
      <point x="324" y="454"/>
      <point x="286" y="458" type="curve"/>
      <point x="286" y="512" type="line"/>
      <point x="216" y="512" type="line"/>
      <point x="216" y="458" type="line"/>
      <point x="111" y="443"/>
      <point x="44" y="368"/>
      <point x="44" y="254" type="curve" smooth="yes"/>
      <point x="44" y="145"/>
      <point x="112" y="69"/>
      <point x="216" y="53" type="curve"/>
    </contour>
  </outline>
</glyph>
<glyph name="commaaccentcmb.uc" format="2">
  <guideline x="-300" y="-10" angle="0" name="Overshoot (-10/10)"/>
  <guideline x="-300" y="476" angle="0" name="Overshoot (476/10)"/>
  <guideline x="-300" y="850" angle="0" name="Top CMB (850)"/>
  <guideline x="-300" y="720" angle="0" name="Bottom CMB (720)"/>
  <guideline x="-300" y="334" angle="0" name="Middle+overshoot/2 CMB (334)"/>
  <anchor x="0.0" y="16" name="_bottom"/>
  <outline>
    <contour>
      <point x="-17" y="-229" type="line"/>
      <point x="18" y="-186"/>
      <point x="34" y="-138"/>
      <point x="34" y="-88" type="curve" smooth="yes"/>
      <point x="34" y="-48" type="line"/>
      <point x="-34" y="-48" type="line"/>
      <point x="-34" y="-88" type="line" smooth="yes"/>
      <point x="-34" y="-132"/>
      <point x="-43" y="-164"/>
      <point x="-71" y="-204" type="curve"/>
    </contour>
  </outline>
</glyph>
<glyph name="commabelowcmb" format="2">
  <guideline x="-300" y="-10" angle="0" name="Overshoot (-10/10)"/>
  <guideline x="-300" y="476" angle="0" name="Overshoot (476/10)"/>
  <guideline x="-300" y="661" angle="0" name="Top CMB (661)"/>
  <guideline x="-300" y="524" angle="0" name="Bottom CMB (524)"/>
  <guideline x="-300" y="238" angle="0" name="Middle+overshoot/2 CMB (238)"/>
  <anchor x="0" y="16" name="_bottom"/>
  <outline>
    <contour>
      <point x="-18" y="-248" type="line"/>
      <point x="19" y="-202"/>
      <point x="36" y="-151"/>
      <point x="36" y="-98" type="curve" smooth="yes"/>
      <point x="36" y="-56" type="line"/>
      <point x="-36" y="-56" type="line"/>
      <point x="-36" y="-98" type="line" smooth="yes"/>
      <point x="-36" y="-144"/>
      <point x="-47" y="-178"/>
      <point x="-76" y="-221" type="curve"/>
    </contour>
  </outline>
</glyph>
<glyph name="d.sups" format="2">
  <advance width="398"/>
  <guideline x="-200" y="440" angle="0" name="Baseline (440)"/>
  <guideline x="-300" y="431" angle="0" name="Overshoot (431/9)"/>
  <guideline x="-200" y="800" angle="0" name="xHeight (800)"/>
  <guideline x="-300" y="809" angle="0" name="Overshoot (809/9)"/>
  <guideline x="-300" y="993" angle="0" name="SUPS Ascender (993)"/>
  <guideline x="-300" y="288" angle="0" name="SUPS Descender (288)"/>
  <outline>
    <contour>
      <point x="179" y="431" type="curve" smooth="yes"/>
      <point x="222" y="431"/>
      <point x="260" y="451"/>
      <point x="282" y="488" type="curve"/>
      <point x="287" y="440" type="line"/>
      <point x="354" y="440" type="line"/>
      <point x="354" y="993" type="line"/>
      <point x="281" y="993" type="line"/>
      <point x="281" y="782" type="line"/>
      <point x="255" y="799"/>
      <point x="224" y="809"/>
      <point x="194" y="809" type="curve" smooth="yes"/>
      <point x="95" y="809"/>
      <point x="28" y="737"/>
      <point x="28" y="616" type="curve" smooth="yes"/>
      <point x="28" y="497"/>
      <point x="91" y="431"/>
    </contour>
    <contour>
      <point x="199" y="495" type="curve" smooth="yes"/>
      <point x="139" y="495"/>
      <point x="102" y="543"/>
      <point x="102" y="619" type="curve" smooth="yes"/>
      <point x="102" y="694"/>
      <point x="141" y="744"/>
      <point x="205" y="744" type="curve" smooth="yes"/>
      <point x="232" y="744"/>
      <point x="260" y="734"/>
      <point x="281" y="716" type="curve"/>
      <point x="281" y="542" type="line"/>
      <point x="265" y="513"/>
      <point x="235" y="495"/>
    </contour>
  </outline>
</glyph>
<glyph name="dollar.lc" format="2">
  <advance width="388"/>
  <guideline x="-300" y="-10" angle="0" name="Overshoot (-10/10)"/>
  <guideline x="-300" y="476" angle="0" name="Overshoot (476/10)"/>
  <guideline x="-300" y="-180" angle="0" name="Bottom lowercase figures (-180)"/>
  <outline>
    <contour>
      <point x="160" y="258" type="line"/>
      <point x="231" y="234" type="line"/>
      <point x="231" y="598" type="line"/>
      <point x="160" y="598" type="line"/>
    </contour>
    <contour>
      <point x="160" y="-124" type="line"/>
      <point x="231" y="-124" type="line"/>
      <point x="231" y="224" type="line"/>
      <point x="160" y="248" type="line"/>
    </contour>
    <component base="s"/>
  </outline>
</glyph>
<glyph name="dollar.lc_AT_weight800" format="2">
  <advance width="385"/>
  <guideline x="-300" y="-10" angle="0" name="Overshoot (-10/10)"/>
  <guideline x="-300" y="476" angle="0" name="Overshoot (476/10)"/>
  <guideline x="-300" y="-180" angle="0" name="Bottom lowercase figures (-180)"/>
  <outline>
    <contour>
      <point x="162" y="456" type="line"/>
      <point x="232" y="456" type="line"/>
      <point x="232" y="582" type="line"/>
      <point x="162" y="582" type="line"/>
    </contour>
    <contour>
      <point x="162" y="-114" type="line"/>
      <point x="232" y="-114" type="line"/>
      <point x="232" y="4" type="line"/>
      <point x="162" y="4" type="line"/>
    </contour>
    <component base="s"/>
  </outline>
</glyph>
<glyph name="dollar.tab" format="2">
  <advance width="650"/>
  <guideline x="-300" y="-14" angle="0" name="Overshoot (-14/14)"/>
  <guideline x="-300" y="672" angle="0" name="Overshoot (672/14)"/>
  <outline>
    <contour>
      <point x="290" y="-96" type="line"/>
      <point x="364" y="-96" type="line"/>
      <point x="364" y="-10" type="line"/>
      <point x="461" y="8"/>
      <point x="521" y="79"/>
      <point x="521" y="178" type="curve" smooth="yes"/>
      <point x="521" y="269"/>
      <point x="472" y="326"/>
      <point x="364" y="369" type="curve"/>
      <point x="364" y="593" type="line"/>
      <point x="414" y="587"/>
      <point x="459" y="567"/>
      <point x="501" y="534" type="curve"/>
      <point x="501" y="626" type="line"/>
      <point x="456" y="651"/>
      <point x="412" y="666"/>
      <point x="364" y="670" type="curve"/>
      <point x="364" y="755" type="line"/>
      <point x="290" y="755" type="line"/>
      <point x="290" y="669" type="line"/>
      <point x="192" y="655"/>
      <point x="132" y="588"/>
      <point x="132" y="494" type="curve" smooth="yes"/>
      <point x="132" y="400"/>
      <point x="182" y="346"/>
      <point x="290" y="305" type="curve"/>
      <point x="290" y="65" type="line"/>
      <point x="231" y="69"/>
      <point x="177" y="90"/>
      <point x="129" y="126" type="curve"/>
      <point x="129" y="36" type="line"/>
      <point x="178" y="6"/>
      <point x="232" y="-10"/>
      <point x="290" y="-13" type="curve"/>
    </contour>
    <contour>
      <point x="217" y="496" type="curve" smooth="yes"/>
      <point x="217" y="544"/>
      <point x="243" y="576"/>
      <point x="290" y="589" type="curve"/>
      <point x="290" y="398" type="line"/>
      <point x="240" y="423"/>
      <point x="217" y="451"/>
    </contour>
    <contour>
      <point x="436" y="169" type="curve" smooth="yes"/>
      <point x="436" y="121"/>
      <point x="409" y="86"/>
      <point x="364" y="72" type="curve"/>
      <point x="364" y="274" type="line"/>
      <point x="414" y="247"/>
      <point x="436" y="216"/>
    </contour>
  </outline>
</glyph>
<glyph name="dotaccentcmb.uc" format="2">
  <guideline x="-300" y="-10" angle="0" name="Overshoot (-10/10)"/>
  <guideline x="-300" y="476" angle="0" name="Overshoot (476/10)"/>
  <guideline x="-300" y="850" angle="0" name="Top CMB (850)"/>
  <guideline x="-300" y="720" angle="0" name="Bottom CMB (720)"/>
  <guideline x="-300" y="334" angle="0" name="Middle+overshoot/2 CMB (334)"/>
  <anchor x="0" y="642" name="_top"/>
  <outline>
    <contour>
      <point x="-40" y="720" type="line"/>
      <point x="40" y="720" type="line"/>
      <point x="40" y="800" type="line"/>
      <point x="-40" y="800" type="line"/>
    </contour>
  </outline>
</glyph>
<glyph name="dotmiddlecmb" format="2">
  <guideline x="-300" y="-10" angle="0" name="Overshoot (-10/10)"/>
  <guideline x="-300" y="476" angle="0" name="Overshoot (476/10)"/>
  <guideline x="-300" y="661" angle="0" name="Top CMB (661)"/>
  <guideline x="-300" y="524" angle="0" name="Bottom CMB (524)"/>
  <guideline x="-300" y="238" angle="0" name="Middle+overshoot/2 CMB (238)"/>
  <anchor x="0" y="263" name="_middle"/>
  <outline>
    <contour>
      <point x="-42" y="222" type="line"/>
      <point x="42" y="222" type="line"/>
      <point x="42" y="306" type="line"/>
      <point x="-42" y="306" type="line"/>
    </contour>
  </outline>
</glyph>
<glyph name="e.sups" format="2">
  <advance width="384"/>
  <guideline x="-200" y="440" angle="0" name="Baseline (440)"/>
  <guideline x="-300" y="431" angle="0" name="Overshoot (431/9)"/>
  <guideline x="-200" y="800" angle="0" name="xHeight (800)"/>
  <guideline x="-300" y="809" angle="0" name="Overshoot (809/9)"/>
  <guideline x="-300" y="993" angle="0" name="SUPS Ascender (993)"/>
  <guideline x="-300" y="288" angle="0" name="SUPS Descender (288)"/>
  <outline>
    <contour>
      <point x="211" y="431" type="curve" smooth="yes"/>
      <point x="253" y="431"/>
      <point x="302" y="444"/>
      <point x="346" y="468" type="curve"/>
      <point x="346" y="533" type="line"/>
      <point x="307" y="507"/>
      <point x="263" y="494"/>
      <point x="222" y="494" type="curve" smooth="yes"/>
      <point x="146" y="494"/>
      <point x="104" y="535"/>
      <point x="103" y="604" type="curve"/>
      <point x="355" y="604" type="line"/>
      <point x="355" y="630" type="line" smooth="yes"/>
      <point x="355" y="741"/>
      <point x="296" y="809"/>
      <point x="196" y="809" type="curve" smooth="yes"/>
      <point x="93" y="809"/>
      <point x="28" y="734"/>
      <point x="28" y="621" type="curve" smooth="yes"/>
      <point x="28" y="504"/>
      <point x="94" y="431"/>
    </contour>
    <contour>
      <point x="194" y="753" type="curve" smooth="yes"/>
      <point x="249" y="753"/>
      <point x="283" y="717"/>
      <point x="283" y="654" type="curve"/>
      <point x="103" y="654" type="line"/>
      <point x="107" y="714"/>
      <point x="142" y="753"/>
    </contour>
  </outline>
</glyph>
<glyph name="egrave.sups" format="2">
  <advance width="384"/>
  <guideline x="-200" y="440" angle="0" name="Baseline (440)"/>
  <guideline x="-300" y="431" angle="0" name="Overshoot (431/9)"/>
  <guideline x="-200" y="800" angle="0" name="xHeight (800)"/>
  <guideline x="-300" y="809" angle="0" name="Overshoot (809/9)"/>
  <guideline x="-300" y="993" angle="0" name="SUPS Ascender (993)"/>
  <guideline x="-300" y="288" angle="0" name="SUPS Descender (288)"/>
  <outline>
    <contour>
      <point x="171" y="844" type="line"/>
      <point x="234" y="844" type="line"/>
      <point x="154" y="961" type="line"/>
      <point x="83" y="961" type="line"/>
    </contour>
    <component base="e.sups"/>
  </outline>
</glyph>
<glyph name="eight.dnom" format="2">
  <advance width="328"/>
  <guideline x="-300" y="-9" angle="0" name="Overshoot (-9/9)"/>
  <guideline x="-200" y="360" angle="0" name="xHeight (360)"/>
  <guideline x="-300" y="369" angle="0" name="Overshoot (369/9)"/>
  <outline>
    <contour>
      <point x="164" y="-9" type="curve" smooth="yes"/>
      <point x="247" y="-9"/>
      <point x="295" y="31"/>
      <point x="295" y="96" type="curve" smooth="yes"/>
      <point x="295" y="141"/>
      <point x="269" y="170"/>
      <point x="227" y="190" type="curve"/>
      <point x="268" y="210"/>
      <point x="290" y="238"/>
      <point x="290" y="272" type="curve" smooth="yes"/>
      <point x="290" y="330"/>
      <point x="238" y="369"/>
      <point x="164" y="369" type="curve" smooth="yes"/>
      <point x="88" y="369"/>
      <point x="37" y="327"/>
      <point x="37" y="267" type="curve" smooth="yes"/>
      <point x="37" y="230"/>
      <point x="60" y="200"/>
      <point x="100" y="180" type="curve"/>
      <point x="56" y="159"/>
      <point x="33" y="130"/>
      <point x="33" y="89" type="curve" smooth="yes"/>
      <point x="33" y="30"/>
      <point x="82" y="-9"/>
    </contour>
    <contour>
      <point x="164" y="212" type="line" smooth="yes"/>
      <point x="131" y="221"/>
      <point x="106" y="240"/>
      <point x="106" y="268" type="curve" smooth="yes"/>
      <point x="106" y="296"/>
      <point x="131" y="319"/>
      <point x="164" y="319" type="curve" smooth="yes"/>
      <point x="198" y="319"/>
      <point x="221" y="297"/>
      <point x="221" y="269" type="curve" smooth="yes"/>
      <point x="221" y="243"/>
      <point x="201" y="220"/>
      <point x="173" y="210" type="curve"/>
    </contour>
    <contour>
      <point x="103" y="96" type="curve" smooth="yes"/>
      <point x="103" y="125"/>
      <point x="124" y="148"/>
      <point x="156" y="159" type="curve"/>
      <point x="164" y="157" type="line" smooth="yes"/>
      <point x="200" y="148"/>
      <point x="225" y="128"/>
      <point x="225" y="96" type="curve" smooth="yes"/>
      <point x="225" y="64"/>
      <point x="200" y="41"/>
      <point x="164" y="41" type="curve" smooth="yes"/>
      <point x="129" y="41"/>
      <point x="103" y="63"/>
    </contour>
  </outline>
</glyph>
<glyph name="eight.sc" format="2">
  <advance width="441"/>
  <guideline x="-300" y="-13" angle="0" name="Overshoot (-13/13)"/>
  <guideline x="-200" y="512" angle="0" name="xHeight (512)"/>
  <guideline x="-300" y="525" angle="0" name="Overshoot (525/13)"/>
  <outline>
    <contour>
      <point x="220" y="-10" type="curve" smooth="yes"/>
      <point x="330" y="-10"/>
      <point x="399" y="49"/>
      <point x="399" y="139" type="curve" smooth="yes"/>
      <point x="399" y="195"/>
      <point x="367" y="240"/>
      <point x="305" y="270" type="curve"/>
      <point x="362" y="298"/>
      <point x="390" y="341"/>
      <point x="390" y="392" type="curve" smooth="yes"/>
      <point x="390" y="471"/>
      <point x="323" y="522"/>
      <point x="220" y="522" type="curve" smooth="yes"/>
      <point x="117" y="522"/>
      <point x="51" y="467"/>
      <point x="51" y="382" type="curve" smooth="yes"/>
      <point x="51" y="325"/>
      <point x="82" y="285"/>
      <point x="136" y="257" type="curve"/>
      <point x="74" y="229"/>
      <point x="42" y="184"/>
      <point x="42" y="124" type="curve" smooth="yes"/>
      <point x="42" y="45"/>
      <point x="111" y="-10"/>
    </contour>
    <contour>
      <point x="217" y="300" type="line" smooth="yes"/>
      <point x="166" y="316"/>
      <point x="135" y="343"/>
      <point x="135" y="381" type="curve" smooth="yes"/>
      <point x="135" y="428"/>
      <point x="171" y="456"/>
      <point x="220" y="456" type="curve" smooth="yes"/>
      <point x="270" y="456"/>
      <point x="306" y="429"/>
      <point x="306" y="385" type="curve" smooth="yes"/>
      <point x="306" y="347"/>
      <point x="278" y="316"/>
      <point x="233" y="296" type="curve"/>
    </contour>
    <contour>
      <point x="127" y="134" type="curve" smooth="yes"/>
      <point x="127" y="178"/>
      <point x="159" y="211"/>
      <point x="212" y="230" type="curve"/>
      <point x="223" y="227" type="line" smooth="yes"/>
      <point x="280" y="210"/>
      <point x="315" y="182"/>
      <point x="315" y="140" type="curve" smooth="yes"/>
      <point x="315" y="89"/>
      <point x="276" y="56"/>
      <point x="221" y="56" type="curve" smooth="yes"/>
      <point x="165" y="56"/>
      <point x="127" y="87"/>
    </contour>
  </outline>
</glyph>
<glyph name="eight.tab" format="2">
  <advance width="650"/>
  <guideline x="-300" y="-14" angle="0" name="Overshoot (-14/14)"/>
  <guideline x="-300" y="672" angle="0" name="Overshoot (672/14)"/>
  <outline>
    <contour>
      <point x="326" y="-14" type="curve" smooth="yes"/>
      <point x="466" y="-14"/>
      <point x="541" y="66"/>
      <point x="541" y="172" type="curve" smooth="yes"/>
      <point x="541" y="252"/>
      <point x="494" y="305"/>
      <point x="412" y="344" type="curve"/>
      <point x="489" y="379"/>
      <point x="530" y="431"/>
      <point x="530" y="505" type="curve" smooth="yes"/>
      <point x="530" y="598"/>
      <point x="455" y="672"/>
      <point x="326" y="672" type="curve" smooth="yes"/>
      <point x="196" y="672"/>
      <point x="123" y="593"/>
      <point x="123" y="495" type="curve" smooth="yes"/>
      <point x="123" y="422"/>
      <point x="161" y="372"/>
      <point x="232" y="335" type="curve"/>
      <point x="155" y="299"/>
      <point x="110" y="243"/>
      <point x="110" y="166" type="curve" smooth="yes"/>
      <point x="110" y="66"/>
      <point x="183" y="-14"/>
    </contour>
    <contour>
      <point x="209" y="496" type="curve" smooth="yes"/>
      <point x="209" y="556"/>
      <point x="257" y="600"/>
      <point x="326" y="600" type="curve" smooth="yes"/>
      <point x="396" y="600"/>
      <point x="443" y="556"/>
      <point x="443" y="497" type="curve" smooth="yes"/>
      <point x="443" y="438"/>
      <point x="401" y="396"/>
      <point x="331" y="375" type="curve"/>
      <point x="316" y="380" type="line" smooth="yes"/>
      <point x="251" y="403"/>
      <point x="209" y="442"/>
    </contour>
    <contour>
      <point x="195" y="171" type="curve" smooth="yes"/>
      <point x="195" y="234"/>
      <point x="240" y="279"/>
      <point x="310" y="303" type="curve"/>
      <point x="336" y="294" type="line" smooth="yes"/>
      <point x="410" y="268"/>
      <point x="454" y="232"/>
      <point x="454" y="171" type="curve" smooth="yes"/>
      <point x="454" y="108"/>
      <point x="409" y="58"/>
      <point x="325" y="58" type="curve" smooth="yes"/>
      <point x="245" y="58"/>
      <point x="195" y="110"/>
    </contour>
  </outline>
</glyph>
<glyph name="exclam.sc" format="2">
  <advance width="220"/>
  <guideline x="-300" y="-13" angle="0" name="Overshoot (-13/13)"/>
  <guideline x="-200" y="512" angle="0" name="xHeight (512)"/>
  <guideline x="-300" y="525" angle="0" name="Overshoot (525/13)"/>
  <outline>
    <contour>
      <point x="72" y="146" type="line"/>
      <point x="149" y="146" type="line"/>
      <point x="149" y="569" type="line"/>
      <point x="72" y="569" type="line"/>
    </contour>
    <contour>
      <point x="69" y="0" type="line"/>
      <point x="152" y="0" type="line"/>
      <point x="152" y="75" type="line"/>
      <point x="69" y="75" type="line"/>
    </contour>
  </outline>
</glyph>
<glyph name="f.salt_noconnect" format="2">
  <advance width="272"/>
  <guideline x="-300" y="-10" angle="0" name="Overshoot (-10/10)"/>
  <guideline x="-300" y="476" angle="0" name="Overshoot (476/10)"/>
  <outline>
    <contour>
      <point x="91" y="0" type="line"/>
      <point x="173" y="0" type="line"/>
      <point x="173" y="392" type="line"/>
      <point x="254" y="392" type="line"/>
      <point x="254" y="466" type="line"/>
      <point x="173" y="466" type="line"/>
      <point x="173" y="597" type="line" smooth="yes"/>
      <point x="173" y="634"/>
      <point x="193" y="655"/>
      <point x="221" y="655" type="curve" smooth="yes"/>
      <point x="238" y="655"/>
      <point x="252" y="652"/>
      <point x="271" y="645" type="curve"/>
      <point x="271" y="722" type="line"/>
      <point x="253" y="727"/>
      <point x="235" y="730"/>
      <point x="215" y="730" type="curve" smooth="yes"/>
      <point x="138" y="730"/>
      <point x="91" y="680"/>
      <point x="91" y="602" type="curve" smooth="yes"/>
      <point x="91" y="466" type="line"/>
      <point x="20" y="466" type="line"/>
      <point x="20" y="392" type="line"/>
      <point x="91" y="392" type="line"/>
    </contour>
  </outline>
</glyph>
<glyph name="f.sups" format="2">
  <advance width="217"/>
  <guideline x="-200" y="440" angle="0" name="Baseline (440)"/>
  <guideline x="-300" y="431" angle="0" name="Overshoot (431/9)"/>
  <guideline x="-200" y="800" angle="0" name="xHeight (800)"/>
  <guideline x="-300" y="809" angle="0" name="Overshoot (809/9)"/>
  <guideline x="-300" y="993" angle="0" name="SUPS Ascender (993)"/>
  <guideline x="-300" y="288" angle="0" name="SUPS Descender (288)"/>
  <outline>
    <contour>
      <point x="69" y="440" type="line"/>
      <point x="142" y="440" type="line"/>
      <point x="142" y="736" type="line"/>
      <point x="216" y="736" type="line"/>
      <point x="216" y="800" type="line"/>
      <point x="142" y="800" type="line"/>
      <point x="141" y="854" type="line" smooth="yes"/>
      <point x="140" y="903"/>
      <point x="167" y="930"/>
      <point x="209" y="930" type="curve" smooth="yes"/>
      <point x="232" y="930"/>
      <point x="256" y="924"/>
      <point x="278" y="912" type="curve"/>
      <point x="278" y="981" type="line"/>
      <point x="253" y="992"/>
      <point x="225" y="997"/>
      <point x="198" y="997" type="curve" smooth="yes"/>
      <point x="117" y="997"/>
      <point x="69" y="941"/>
      <point x="69" y="856" type="curve" smooth="yes"/>
      <point x="69" y="800" type="line"/>
      <point x="15" y="800" type="line"/>
      <point x="15" y="736" type="line"/>
      <point x="69" y="736" type="line"/>
    </contour>
  </outline>
</glyph>
<glyph name="five.dnom" format="2">
  <advance width="306"/>
  <guideline x="-300" y="-9" angle="0" name="Overshoot (-9/9)"/>
  <guideline x="-200" y="360" angle="0" name="xHeight (360)"/>
  <guideline x="-300" y="369" angle="0" name="Overshoot (369/9)"/>
  <outline>
    <contour>
      <point x="145" y="-9" type="curve" smooth="yes"/>
      <point x="224" y="-9"/>
      <point x="275" y="40"/>
      <point x="275" y="113" type="curve" smooth="yes"/>
      <point x="275" y="179"/>
      <point x="230" y="223"/>
      <point x="144" y="223" type="curve" smooth="yes"/>
      <point x="129" y="223"/>
      <point x="111" y="221"/>
      <point x="93" y="218" type="curve"/>
      <point x="99" y="297" type="line"/>
      <point x="255" y="297" type="line"/>
      <point x="255" y="360" type="line"/>
      <point x="49" y="360" type="line"/>
      <point x="35" y="156" type="line"/>
      <point x="62" y="162"/>
      <point x="96" y="167"/>
      <point x="126" y="167" type="curve" smooth="yes"/>
      <point x="174" y="167"/>
      <point x="204" y="146"/>
      <point x="204" y="111" type="curve" smooth="yes"/>
      <point x="204" y="74"/>
      <point x="177" y="51"/>
      <point x="135" y="51" type="curve" smooth="yes"/>
      <point x="96" y="51"/>
      <point x="63" y="63"/>
      <point x="31" y="88" type="curve"/>
      <point x="31" y="20" type="line"/>
      <point x="67" y="1"/>
      <point x="104" y="-9"/>
    </contour>
  </outline>
</glyph>
<glyph name="five.lc" format="2">
  <advance width="501"/>
  <guideline x="-300" y="-10" angle="0" name="Overshoot (-10/10)"/>
  <guideline x="-300" y="476" angle="0" name="Overshoot (476/10)"/>
  <guideline x="-300" y="-180" angle="0" name="Bottom lowercase figures (-180)"/>
  <outline>
    <contour>
      <point x="231" y="-198" type="curve" smooth="yes"/>
      <point x="363" y="-198"/>
      <point x="452" y="-114"/>
      <point x="452" y="10" type="curve" smooth="yes"/>
      <point x="452" y="135"/>
      <point x="366" y="211"/>
      <point x="227" y="210" type="curve" smooth="yes"/>
      <point x="203" y="210"/>
      <point x="175" y="208"/>
      <point x="148" y="204" type="curve"/>
      <point x="163" y="387" type="line"/>
      <point x="431" y="387" type="line"/>
      <point x="431" y="466" type="line"/>
      <point x="89" y="466" type="line"/>
      <point x="63" y="116" type="line"/>
      <point x="118" y="127"/>
      <point x="163" y="131"/>
      <point x="211" y="131" type="curve" smooth="yes"/>
      <point x="307" y="131"/>
      <point x="367" y="87"/>
      <point x="367" y="6" type="curve" smooth="yes"/>
      <point x="367" y="-77"/>
      <point x="306" y="-120"/>
      <point x="226" y="-120" type="curve" smooth="yes"/>
      <point x="157" y="-120"/>
      <point x="99" y="-97"/>
      <point x="49" y="-53" type="curve"/>
      <point x="49" y="-140" type="line"/>
      <point x="101" y="-180"/>
      <point x="159" y="-198"/>
    </contour>
  </outline>
</glyph>
<glyph name="five.sc" format="2">
  <advance width="438"/>
  <guideline x="-300" y="-13" angle="0" name="Overshoot (-13/13)"/>
  <guideline x="-200" y="512" angle="0" name="xHeight (512)"/>
  <guideline x="-300" y="525" angle="0" name="Overshoot (525/13)"/>
  <outline>
    <contour>
      <point x="210" y="-10" type="curve" smooth="yes"/>
      <point x="321" y="-10"/>
      <point x="389" y="55"/>
      <point x="389" y="155" type="curve" smooth="yes"/>
      <point x="389" y="251"/>
      <point x="321" y="312"/>
      <point x="214" y="312" type="curve" smooth="yes"/>
      <point x="190" y="312"/>
      <point x="160" y="309"/>
      <point x="134" y="303" type="curve"/>
      <point x="143" y="431" type="line"/>
      <point x="364" y="431" type="line"/>
      <point x="364" y="512" type="line"/>
      <point x="74" y="512" type="line"/>
      <point x="57" y="219" type="line"/>
      <point x="109" y="234"/>
      <point x="156" y="239"/>
      <point x="199" y="239" type="curve" smooth="yes"/>
      <point x="265" y="239"/>
      <point x="305" y="205"/>
      <point x="305" y="153" type="curve" smooth="yes"/>
      <point x="305" y="101"/>
      <point x="266" y="65"/>
      <point x="204" y="65" type="curve" smooth="yes"/>
      <point x="147" y="65"/>
      <point x="94" y="83"/>
      <point x="49" y="114" type="curve"/>
      <point x="49" y="33" type="line"/>
      <point x="97" y="6"/>
      <point x="153" y="-10"/>
    </contour>
  </outline>
</glyph>
<glyph name="five.tab" format="2">
  <advance width="650"/>
  <guideline x="-300" y="-14" angle="0" name="Overshoot (-14/14)"/>
  <guideline x="-300" y="672" angle="0" name="Overshoot (672/14)"/>
  <outline>
    <contour>
      <point x="305" y="-14" type="curve" smooth="yes"/>
      <point x="440" y="-14"/>
      <point x="530" y="71"/>
      <point x="530" y="197" type="curve" smooth="yes"/>
      <point x="530" y="323"/>
      <point x="442" y="400"/>
      <point x="301" y="400" type="curve" smooth="yes"/>
      <point x="277" y="400"/>
      <point x="249" y="398"/>
      <point x="223" y="394" type="curve"/>
      <point x="238" y="578" type="line"/>
      <point x="509" y="578" type="line"/>
      <point x="509" y="658" type="line"/>
      <point x="161" y="658" type="line"/>
      <point x="135" y="305" type="line"/>
      <point x="190" y="315"/>
      <point x="236" y="319"/>
      <point x="285" y="319" type="curve" smooth="yes"/>
      <point x="382" y="319"/>
      <point x="444" y="274"/>
      <point x="444" y="193" type="curve" smooth="yes"/>
      <point x="444" y="109"/>
      <point x="382" y="65"/>
      <point x="300" y="65" type="curve" smooth="yes"/>
      <point x="230" y="65"/>
      <point x="171" y="88"/>
      <point x="120" y="132" type="curve"/>
      <point x="120" y="44" type="line"/>
      <point x="174" y="4"/>
      <point x="232" y="-14"/>
    </contour>
  </outline>
</glyph>
<glyph name="florin.lc" format="2">
  <advance width="476"/>
  <guideline x="-300" y="-10" angle="0" name="Overshoot (-10/10)"/>
  <guideline x="-300" y="476" angle="0" name="Overshoot (476/10)"/>
  <guideline x="-300" y="-180" angle="0" name="Bottom lowercase figures (-180)"/>
  <outline>
    <contour>
      <point x="103" y="184" type="line"/>
      <point x="191" y="184" type="line"/>
      <point x="157" y="-57" type="line" smooth="yes"/>
      <point x="148" y="-118"/>
      <point x="119" y="-155"/>
      <point x="69" y="-155" type="curve" smooth="yes"/>
      <point x="37" y="-155"/>
      <point x="9" y="-148"/>
      <point x="-16" y="-135" type="curve"/>
      <point x="-16" y="-211" type="line"/>
      <point x="10" y="-224"/>
      <point x="37" y="-230"/>
      <point x="65" y="-230" type="curve" smooth="yes"/>
      <point x="158" y="-230"/>
      <point x="221" y="-174"/>
      <point x="237" y="-57" type="curve" smooth="yes"/>
      <point x="271" y="184" type="line"/>
      <point x="386" y="184" type="line"/>
      <point x="386" y="258" type="line"/>
      <point x="281" y="258" type="line"/>
      <point x="289" y="312" type="line" smooth="yes"/>
      <point x="297" y="368"/>
      <point x="330" y="400"/>
      <point x="379" y="400" type="curve" smooth="yes"/>
      <point x="410" y="400"/>
      <point x="438" y="394"/>
      <point x="466" y="380" type="curve"/>
      <point x="466" y="459" type="line"/>
      <point x="437" y="470"/>
      <point x="409" y="476"/>
      <point x="379" y="476" type="curve" smooth="yes"/>
      <point x="288" y="476"/>
      <point x="224" y="418"/>
      <point x="209" y="312" type="curve" smooth="yes"/>
      <point x="201" y="258" type="line"/>
      <point x="103" y="258" type="line"/>
    </contour>
  </outline>
</glyph>
<glyph name="florin.sc" format="2">
  <advance width="388"/>
  <guideline x="-300" y="-13" angle="0" name="Overshoot (-13/13)"/>
  <guideline x="-200" y="512" angle="0" name="xHeight (512)"/>
  <guideline x="-300" y="525" angle="0" name="Overshoot (525/13)"/>
  <outline>
    <contour>
      <point x="58" y="-13" type="curve" smooth="yes"/>
      <point x="137" y="-13"/>
      <point x="192" y="34"/>
      <point x="205" y="132" type="curve" smooth="yes"/>
      <point x="219" y="237" type="line"/>
      <point x="326" y="237" type="line"/>
      <point x="326" y="309" type="line"/>
      <point x="228" y="309" type="line"/>
      <point x="238" y="383" type="line" smooth="yes"/>
      <point x="244" y="425"/>
      <point x="269" y="450"/>
      <point x="308" y="450" type="curve" smooth="yes"/>
      <point x="333" y="450"/>
      <point x="355" y="443"/>
      <point x="379" y="431" type="curve"/>
      <point x="379" y="510" type="line"/>
      <point x="355" y="520"/>
      <point x="332" y="525"/>
      <point x="307" y="525" type="curve" smooth="yes"/>
      <point x="228" y="525"/>
      <point x="169" y="476"/>
      <point x="157" y="382" type="curve" smooth="yes"/>
      <point x="148" y="309" type="line"/>
      <point x="44" y="309" type="line"/>
      <point x="44" y="237" type="line"/>
      <point x="138" y="237" type="line"/>
      <point x="125" y="132" type="line" smooth="yes"/>
      <point x="119" y="88"/>
      <point x="95" y="62"/>
      <point x="57" y="62" type="curve" smooth="yes"/>
      <point x="29" y="62"/>
      <point x="6" y="69"/>
      <point x="-16" y="82" type="curve"/>
      <point x="-16" y="5" type="line"/>
      <point x="6" y="-7"/>
      <point x="30" y="-13"/>
    </contour>
  </outline>
</glyph>
<glyph name="four.lc" format="2">
  <advance width="555"/>
  <guideline x="-300" y="-10" angle="0" name="Overshoot (-10/10)"/>
  <guideline x="-300" y="476" angle="0" name="Overshoot (476/10)"/>
  <guideline x="-300" y="-180" angle="0" name="Bottom lowercase figures (-180)"/>
  <outline>
    <contour>
      <point x="337" y="-183" type="line"/>
      <point x="421" y="-183" type="line"/>
      <point x="421" y="0" type="line"/>
      <point x="515" y="0" type="line"/>
      <point x="515" y="70" type="line"/>
      <point x="421" y="70" type="line"/>
      <point x="421" y="466" type="line"/>
      <point x="319" y="466" type="line"/>
      <point x="46" y="59" type="line"/>
      <point x="46" y="0" type="line"/>
      <point x="337" y="0" type="line"/>
    </contour>
    <contour>
      <point x="337" y="70" type="line"/>
      <point x="136" y="70" type="line"/>
      <point x="337" y="366" type="line"/>
    </contour>
  </outline>
</glyph>
<glyph name="four.tab" format="2">
  <advance width="650"/>
  <guideline x="-300" y="-14" angle="0" name="Overshoot (-14/14)"/>
  <guideline x="-300" y="672" angle="0" name="Overshoot (672/14)"/>
  <outline>
    <contour>
      <point x="386" y="0" type="line"/>
      <point x="470" y="0" type="line"/>
      <point x="470" y="172" type="line"/>
      <point x="564" y="172" type="line"/>
      <point x="564" y="247" type="line"/>
      <point x="470" y="247" type="line"/>
      <point x="470" y="658" type="line"/>
      <point x="367" y="658" type="line"/>
      <point x="87" y="231" type="line"/>
      <point x="87" y="172" type="line"/>
      <point x="386" y="172" type="line"/>
    </contour>
    <contour>
      <point x="386" y="247" type="line"/>
      <point x="180" y="247" type="line"/>
      <point x="386" y="555" type="line"/>
    </contour>
  </outline>
</glyph>
<glyph name="g.salt" format="2">
  <advance width="461"/>
  <guideline x="-300" y="-10" angle="0" name="Overshoot (-10/10)"/>
  <guideline x="-300" y="476" angle="0" name="Overshoot (476/10)"/>
  <anchor x="232.0" y="450" name="top"/>
  <outline>
    <contour>
      <point x="241" y="-230" type="curve" smooth="yes"/>
      <point x="359" y="-230"/>
      <point x="443" y="-167"/>
      <point x="443" y="-76" type="curve" smooth="yes"/>
      <point x="443" y="-5"/>
      <point x="389" y="52"/>
      <point x="279" y="64" type="curve" smooth="yes"/>
      <point x="190" y="74" type="line" smooth="yes"/>
      <point x="157" y="77"/>
      <point x="140" y="98"/>
      <point x="140" y="119" type="curve" smooth="yes"/>
      <point x="140" y="137"/>
      <point x="156" y="155"/>
      <point x="188" y="162" type="curve"/>
      <point x="204" y="158"/>
      <point x="222" y="156"/>
      <point x="240" y="156" type="curve" smooth="yes"/>
      <point x="347" y="156"/>
      <point x="411" y="225"/>
      <point x="411" y="317" type="curve" smooth="yes"/>
      <point x="411" y="363"/>
      <point x="393" y="402"/>
      <point x="362" y="429" type="curve"/>
      <point x="385" y="441"/>
      <point x="414" y="447"/>
      <point x="443" y="447" type="curve"/>
      <point x="443" y="515" type="line"/>
      <point x="386" y="515"/>
      <point x="329" y="498"/>
      <point x="284" y="470" type="curve"/>
      <point x="269" y="474"/>
      <point x="254" y="476"/>
      <point x="237" y="476" type="curve" smooth="yes"/>
      <point x="132" y="476"/>
      <point x="64" y="407"/>
      <point x="64" y="317" type="curve" smooth="yes"/>
      <point x="64" y="263"/>
      <point x="88" y="217"/>
      <point x="129" y="188" type="curve"/>
      <point x="83" y="170"/>
      <point x="57" y="138"/>
      <point x="57" y="98" type="curve" smooth="yes"/>
      <point x="57" y="63"/>
      <point x="78" y="27"/>
      <point x="124" y="10" type="curve"/>
      <point x="74" y="-11"/>
      <point x="40" y="-48"/>
      <point x="40" y="-100" type="curve" smooth="yes"/>
      <point x="40" y="-178"/>
      <point x="116" y="-230"/>
    </contour>
    <contour>
      <point x="238" y="219" type="curve" smooth="yes"/>
      <point x="181" y="219"/>
      <point x="140" y="259"/>
      <point x="140" y="316" type="curve" smooth="yes"/>
      <point x="140" y="372"/>
      <point x="181" y="412"/>
      <point x="238" y="412" type="curve" smooth="yes"/>
      <point x="295" y="412"/>
      <point x="335" y="372"/>
      <point x="335" y="316" type="curve" smooth="yes"/>
      <point x="335" y="259"/>
      <point x="295" y="219"/>
    </contour>
    <contour>
      <point x="122" y="-86" type="curve" smooth="yes"/>
      <point x="122" y="-44"/>
      <point x="156" y="-12"/>
      <point x="206" y="-3" type="curve"/>
      <point x="267" y="-10" type="line" smooth="yes"/>
      <point x="321" y="-15"/>
      <point x="358" y="-46"/>
      <point x="358" y="-87" type="curve" smooth="yes"/>
      <point x="358" y="-137"/>
      <point x="309" y="-172"/>
      <point x="240" y="-172" type="curve" smooth="yes"/>
      <point x="166" y="-172"/>
      <point x="122" y="-136"/>
    </contour>
  </outline>
</glyph>
<glyph name="g.sups" format="2">
  <advance width="399"/>
  <guideline x="-200" y="440" angle="0" name="Baseline (440)"/>
  <guideline x="-300" y="431" angle="0" name="Overshoot (431/9)"/>
  <guideline x="-200" y="800" angle="0" name="xHeight (800)"/>
  <guideline x="-300" y="809" angle="0" name="Overshoot (809/9)"/>
  <guideline x="-300" y="993" angle="0" name="SUPS Ascender (993)"/>
  <guideline x="-300" y="288" angle="0" name="SUPS Descender (288)"/>
  <outline>
    <contour>
      <point x="190" y="282" type="curve" smooth="yes"/>
      <point x="287" y="282"/>
      <point x="355" y="346"/>
      <point x="355" y="449" type="curve" smooth="yes"/>
      <point x="355" y="800" type="line"/>
      <point x="320" y="800" type="line"/>
      <point x="305" y="766" type="line"/>
      <point x="281" y="793"/>
      <point x="236" y="809"/>
      <point x="198" y="809" type="curve" smooth="yes"/>
      <point x="99" y="809"/>
      <point x="28" y="740"/>
      <point x="28" y="616" type="curve" smooth="yes"/>
      <point x="28" y="499"/>
      <point x="89" y="431"/>
      <point x="184" y="431" type="curve" smooth="yes"/>
      <point x="222" y="431"/>
      <point x="258" y="447"/>
      <point x="282" y="477" type="curve"/>
      <point x="282" y="445" type="line" smooth="yes"/>
      <point x="282" y="379"/>
      <point x="236" y="344"/>
      <point x="175" y="344" type="curve" smooth="yes"/>
      <point x="130" y="344"/>
      <point x="87" y="358"/>
      <point x="51" y="381" type="curve"/>
      <point x="51" y="313" type="line"/>
      <point x="95" y="294"/>
      <point x="144" y="282"/>
    </contour>
    <contour>
      <point x="199" y="495" type="curve" smooth="yes"/>
      <point x="138" y="495"/>
      <point x="102" y="544"/>
      <point x="102" y="618" type="curve" smooth="yes"/>
      <point x="102" y="693"/>
      <point x="140" y="744"/>
      <point x="205" y="744" type="curve" smooth="yes"/>
      <point x="232" y="744"/>
      <point x="264" y="733"/>
      <point x="281" y="715" type="curve"/>
      <point x="281" y="537" type="line"/>
      <point x="264" y="511"/>
      <point x="236" y="495"/>
    </contour>
  </outline>
</glyph>
<glyph name="i.sups" format="2">
  <advance width="160"/>
  <guideline x="-200" y="440" angle="0" name="Baseline (440)"/>
  <guideline x="-300" y="431" angle="0" name="Overshoot (431/9)"/>
  <guideline x="-200" y="800" angle="0" name="xHeight (800)"/>
  <guideline x="-300" y="809" angle="0" name="Overshoot (809/9)"/>
  <guideline x="-300" y="993" angle="0" name="SUPS Ascender (993)"/>
  <guideline x="-300" y="288" angle="0" name="SUPS Descender (288)"/>
  <outline>
    <contour>
      <point x="42" y="896" type="line"/>
      <point x="118" y="896" type="line"/>
      <point x="118" y="967" type="line"/>
      <point x="42" y="967" type="line"/>
    </contour>
    <contour>
      <point x="44" y="440" type="line"/>
      <point x="117" y="440" type="line"/>
      <point x="117" y="800" type="line"/>
      <point x="44" y="800" type="line"/>
    </contour>
  </outline>
</glyph>
<glyph name="j.sups" format="2">
  <advance width="165"/>
  <guideline x="-200" y="440" angle="0" name="Baseline (440)"/>
  <guideline x="-300" y="431" angle="0" name="Overshoot (431/9)"/>
  <guideline x="-200" y="800" angle="0" name="xHeight (800)"/>
  <guideline x="-300" y="809" angle="0" name="Overshoot (809/9)"/>
  <guideline x="-300" y="993" angle="0" name="SUPS Ascender (993)"/>
  <guideline x="-300" y="288" angle="0" name="SUPS Descender (288)"/>
  <outline>
    <contour>
      <point x="45" y="896" type="line"/>
      <point x="121" y="896" type="line"/>
      <point x="121" y="967" type="line"/>
      <point x="45" y="967" type="line"/>
    </contour>
    <contour>
      <point x="-22" y="293" type="line" smooth="yes"/>
      <point x="64" y="293"/>
      <point x="120" y="350"/>
      <point x="120" y="435" type="curve" smooth="yes"/>
      <point x="120" y="800" type="line"/>
      <point x="47" y="800" type="line"/>
      <point x="47" y="435" type="line" smooth="yes"/>
      <point x="47" y="387"/>
      <point x="20" y="357"/>
      <point x="-22" y="357" type="curve" smooth="yes"/>
      <point x="-29" y="357" type="line"/>
      <point x="-29" y="293" type="line"/>
    </contour>
  </outline>
</glyph>
<glyph name="k.sups" format="2">
  <advance width="358"/>
  <guideline x="-200" y="440" angle="0" name="Baseline (440)"/>
  <guideline x="-300" y="431" angle="0" name="Overshoot (431/9)"/>
  <guideline x="-200" y="800" angle="0" name="xHeight (800)"/>
  <guideline x="-300" y="809" angle="0" name="Overshoot (809/9)"/>
  <guideline x="-300" y="993" angle="0" name="SUPS Ascender (993)"/>
  <guideline x="-300" y="288" angle="0" name="SUPS Descender (288)"/>
  <outline>
    <contour>
      <point x="42" y="440" type="line"/>
      <point x="115" y="440" type="line"/>
      <point x="115" y="608" type="line"/>
      <point x="265" y="440" type="line"/>
      <point x="355" y="440" type="line"/>
      <point x="187" y="631" type="line"/>
      <point x="341" y="800" type="line"/>
      <point x="255" y="800" type="line"/>
      <point x="115" y="643" type="line"/>
      <point x="115" y="991" type="line"/>
      <point x="42" y="991" type="line"/>
    </contour>
  </outline>
</glyph>
<glyph name="m.sups" format="2">
  <advance width="605"/>
  <guideline x="-200" y="440" angle="0" name="Baseline (440)"/>
  <guideline x="-300" y="431" angle="0" name="Overshoot (431/9)"/>
  <guideline x="-200" y="800" angle="0" name="xHeight (800)"/>
  <guideline x="-300" y="809" angle="0" name="Overshoot (809/9)"/>
  <guideline x="-300" y="993" angle="0" name="SUPS Ascender (993)"/>
  <guideline x="-300" y="288" angle="0" name="SUPS Descender (288)"/>
  <outline>
    <contour>
      <point x="44" y="440" type="line"/>
      <point x="117" y="440" type="line"/>
      <point x="117" y="696" type="line"/>
      <point x="134" y="724"/>
      <point x="161" y="742"/>
      <point x="195" y="742" type="curve" smooth="yes"/>
      <point x="243" y="742"/>
      <point x="270" y="712"/>
      <point x="270" y="664" type="curve" smooth="yes"/>
      <point x="270" y="440" type="line"/>
      <point x="343" y="440" type="line"/>
      <point x="343" y="684" type="line" smooth="yes"/>
      <point x="343" y="691"/>
      <point x="343" y="697"/>
      <point x="342" y="703" type="curve"/>
      <point x="362" y="727"/>
      <point x="389" y="742"/>
      <point x="420" y="742" type="curve" smooth="yes"/>
      <point x="467" y="742"/>
      <point x="495" y="713"/>
      <point x="495" y="664" type="curve" smooth="yes"/>
      <point x="495" y="440" type="line"/>
      <point x="568" y="440" type="line"/>
      <point x="568" y="683" type="line" smooth="yes"/>
      <point x="568" y="760"/>
      <point x="520" y="809"/>
      <point x="448" y="809" type="curve" smooth="yes"/>
      <point x="403" y="809"/>
      <point x="363" y="790"/>
      <point x="330" y="747" type="curve"/>
      <point x="311" y="786"/>
      <point x="273" y="809"/>
      <point x="222" y="809" type="curve" smooth="yes"/>
      <point x="177" y="809"/>
      <point x="144" y="790"/>
      <point x="117" y="754" type="curve"/>
      <point x="117" y="800" type="line"/>
      <point x="44" y="800" type="line"/>
    </contour>
  </outline>
</glyph>
<glyph name="nine.dnom" format="2">
  <advance width="338"/>
  <guideline x="-300" y="-9" angle="0" name="Overshoot (-9/9)"/>
  <guideline x="-200" y="360" angle="0" name="xHeight (360)"/>
  <guideline x="-300" y="369" angle="0" name="Overshoot (369/9)"/>
  <outline>
    <contour>
      <point x="144" y="-9" type="curve" smooth="yes"/>
      <point x="243" y="-9"/>
      <point x="308" y="65"/>
      <point x="308" y="207" type="curve" smooth="yes"/>
      <point x="308" y="310"/>
      <point x="242" y="369"/>
      <point x="168" y="369" type="curve" smooth="yes"/>
      <point x="90" y="369"/>
      <point x="31" y="319"/>
      <point x="31" y="238" type="curve" smooth="yes"/>
      <point x="31" y="171"/>
      <point x="76" y="121"/>
      <point x="150" y="121" type="curve" smooth="yes"/>
      <point x="188" y="121"/>
      <point x="222" y="135"/>
      <point x="240" y="165" type="curve"/>
      <point x="235" y="93"/>
      <point x="202" y="51"/>
      <point x="140" y="51" type="curve" smooth="yes"/>
      <point x="107" y="51"/>
      <point x="78" y="59"/>
      <point x="51" y="70" type="curve"/>
      <point x="51" y="6" type="line"/>
      <point x="79" y="-4"/>
      <point x="109" y="-9"/>
    </contour>
    <contour>
      <point x="165" y="173" type="curve" smooth="yes"/>
      <point x="123" y="173"/>
      <point x="98" y="204"/>
      <point x="98" y="241" type="curve" smooth="yes"/>
      <point x="98" y="281"/>
      <point x="122" y="310"/>
      <point x="167" y="310" type="curve" smooth="yes"/>
      <point x="211" y="310"/>
      <point x="238" y="272"/>
      <point x="238" y="218" type="curve"/>
      <point x="230" y="191"/>
      <point x="201" y="173"/>
    </contour>
  </outline>
</glyph>
<glyph name="nine.lc" format="2">
  <advance width="532"/>
  <guideline x="-300" y="-10" angle="0" name="Overshoot (-10/10)"/>
  <guideline x="-300" y="476" angle="0" name="Overshoot (476/10)"/>
  <guideline x="-300" y="-180" angle="0" name="Bottom lowercase figures (-180)"/>
  <outline>
    <contour>
      <point x="235" y="-223" type="line"/>
      <point x="396" y="-114"/>
      <point x="487" y="55"/>
      <point x="487" y="231" type="curve" smooth="yes"/>
      <point x="487" y="382"/>
      <point x="397" y="476"/>
      <point x="271" y="476" type="curve" smooth="yes"/>
      <point x="143" y="476"/>
      <point x="46" y="381"/>
      <point x="46" y="246" type="curve" smooth="yes"/>
      <point x="46" y="125"/>
      <point x="132" y="33"/>
      <point x="247" y="33" type="curve" smooth="yes"/>
      <point x="302" y="33"/>
      <point x="351" y="53"/>
      <point x="383" y="94" type="curve"/>
      <point x="352" y="-5"/>
      <point x="276" y="-109"/>
      <point x="140" y="-205" type="curve"/>
    </contour>
    <contour>
      <point x="263" y="105" type="curve" smooth="yes"/>
      <point x="183" y="105"/>
      <point x="130" y="169"/>
      <point x="130" y="249" type="curve" smooth="yes"/>
      <point x="130" y="337"/>
      <point x="185" y="401"/>
      <point x="267" y="401" type="curve" smooth="yes"/>
      <point x="350" y="401"/>
      <point x="402" y="332"/>
      <point x="402" y="232" type="curve" smooth="yes"/>
      <point x="402" y="159"/>
      <point x="340" y="105"/>
    </contour>
  </outline>
</glyph>
<glyph name="nine.salt" format="2">
  <advance width="546"/>
  <guideline x="-300" y="-14" angle="0" name="Overshoot (-14/14)"/>
  <guideline x="-300" y="672" angle="0" name="Overshoot (672/14)"/>
  <outline>
    <contour>
      <point x="245" y="-18" type="line"/>
      <point x="405" y="90"/>
      <point x="496" y="261"/>
      <point x="496" y="425" type="curve" smooth="yes"/>
      <point x="496" y="577"/>
      <point x="403" y="672"/>
      <point x="275" y="672" type="curve" smooth="yes"/>
      <point x="147" y="672"/>
      <point x="51" y="578"/>
      <point x="51" y="443" type="curve" smooth="yes"/>
      <point x="51" y="323"/>
      <point x="137" y="232"/>
      <point x="253" y="232" type="curve" smooth="yes"/>
      <point x="308" y="232"/>
      <point x="358" y="251"/>
      <point x="392" y="290" type="curve"/>
      <point x="362" y="196"/>
      <point x="291" y="101"/>
      <point x="150" y="6" type="curve"/>
    </contour>
    <contour>
      <point x="270" y="304" type="curve" smooth="yes"/>
      <point x="189" y="304"/>
      <point x="136" y="368"/>
      <point x="136" y="447" type="curve" smooth="yes"/>
      <point x="136" y="535"/>
      <point x="191" y="598"/>
      <point x="275" y="598" type="curve" smooth="yes"/>
      <point x="359" y="598"/>
      <point x="410" y="530"/>
      <point x="410" y="433" type="curve" smooth="yes"/>
      <point x="410" y="358"/>
      <point x="349" y="304"/>
    </contour>
  </outline>
</glyph>
<glyph name="nine.sc" format="2">
  <advance width="452"/>
  <guideline x="-300" y="-13" angle="0" name="Overshoot (-13/13)"/>
  <guideline x="-200" y="512" angle="0" name="xHeight (512)"/>
  <guideline x="-300" y="525" angle="0" name="Overshoot (525/13)"/>
  <outline>
    <contour>
      <point x="182" y="-10" type="curve" smooth="yes"/>
      <point x="320" y="-10"/>
      <point x="412" y="94"/>
      <point x="412" y="302" type="curve" smooth="yes"/>
      <point x="412" y="449"/>
      <point x="335" y="522"/>
      <point x="225" y="522" type="curve" smooth="yes"/>
      <point x="120" y="522"/>
      <point x="40" y="456"/>
      <point x="40" y="344" type="curve" smooth="yes"/>
      <point x="40" y="246"/>
      <point x="109" y="181"/>
      <point x="208" y="181" type="curve" smooth="yes"/>
      <point x="258" y="181"/>
      <point x="304" y="201"/>
      <point x="330" y="243" type="curve"/>
      <point x="319" y="118"/>
      <point x="261" y="62"/>
      <point x="176" y="62" type="curve" smooth="yes"/>
      <point x="139" y="62"/>
      <point x="101" y="73"/>
      <point x="70" y="87" type="curve"/>
      <point x="70" y="11" type="line"/>
      <point x="104" y="-2"/>
      <point x="144" y="-10"/>
    </contour>
    <contour>
      <point x="220" y="245" type="curve" smooth="yes"/>
      <point x="160" y="245"/>
      <point x="121" y="290"/>
      <point x="121" y="347" type="curve" smooth="yes"/>
      <point x="121" y="411"/>
      <point x="163" y="454"/>
      <point x="224" y="454" type="curve" smooth="yes"/>
      <point x="291" y="454"/>
      <point x="330" y="406"/>
      <point x="331" y="330" type="curve"/>
      <point x="325" y="280"/>
      <point x="280" y="245"/>
    </contour>
  </outline>
</glyph>
<glyph name="nine.tab" format="2">
  <advance width="650"/>
  <guideline x="-300" y="-14" angle="0" name="Overshoot (-14/14)"/>
  <guideline x="-300" y="672" angle="0" name="Overshoot (672/14)"/>
  <outline>
    <contour>
      <point x="273.0" y="-14" type="curve" smooth="yes"/>
      <point x="439.0" y="-14"/>
      <point x="548.0" y="119"/>
      <point x="548.0" y="388" type="curve" smooth="yes"/>
      <point x="548.0" y="585"/>
      <point x="455.0" y="672.0"/>
      <point x="327.0" y="672.0" type="curve" smooth="yes"/>
      <point x="199.0" y="672.0"/>
      <point x="102.0" y="588"/>
      <point x="102.0" y="443" type="curve" smooth="yes"/>
      <point x="102.0" y="314"/>
      <point x="187.0" y="229"/>
      <point x="307.0" y="229" type="curve" smooth="yes"/>
      <point x="371.0" y="229"/>
      <point x="430.0" y="256"/>
      <point x="462.0" y="313" type="curve"/>
      <point x="448.0" y="144"/>
      <point x="375.0" y="64"/>
      <point x="267.0" y="64" type="curve" smooth="yes"/>
      <point x="221.0" y="64"/>
      <point x="173.0" y="78"/>
      <point x="135.0" y="97" type="curve"/>
      <point x="135.0" y="12" type="line"/>
      <point x="176.0" y="-4"/>
      <point x="227.0" y="-14"/>
    </contour>
    <contour>
      <point x="321.0" y="302" type="curve" smooth="yes"/>
      <point x="240.0" y="302"/>
      <point x="187.0" y="367"/>
      <point x="187.0" y="447" type="curve" smooth="yes"/>
      <point x="187.0" y="534"/>
      <point x="242.0" y="598"/>
      <point x="326.0" y="598" type="curve" smooth="yes"/>
      <point x="410.0" y="598"/>
      <point x="461.0" y="527"/>
      <point x="462.0" y="422" type="curve"/>
      <point x="454.0" y="354"/>
      <point x="397.0" y="302"/>
    </contour>
  </outline>
</glyph>
<glyph name="o.sups" format="2">
  <advance width="427"/>
  <guideline x="-200" y="440" angle="0" name="Baseline (440)"/>
  <guideline x="-300" y="431" angle="0" name="Overshoot (431/9)"/>
  <guideline x="-200" y="800" angle="0" name="xHeight (800)"/>
  <guideline x="-300" y="809" angle="0" name="Overshoot (809/9)"/>
  <guideline x="-300" y="993" angle="0" name="SUPS Ascender (993)"/>
  <guideline x="-300" y="288" angle="0" name="SUPS Descender (288)"/>
  <outline>
    <contour>
      <point x="214" y="431" type="curve" smooth="yes"/>
      <point x="326" y="431"/>
      <point x="398" y="505"/>
      <point x="398" y="620" type="curve" smooth="yes"/>
      <point x="398" y="735"/>
      <point x="326" y="809"/>
      <point x="214" y="809" type="curve" smooth="yes"/>
      <point x="101" y="809"/>
      <point x="28" y="735"/>
      <point x="28" y="619" type="curve" smooth="yes"/>
      <point x="28" y="505"/>
      <point x="101" y="431"/>
    </contour>
    <contour>
      <point x="214" y="496" type="curve" smooth="yes"/>
      <point x="146" y="496"/>
      <point x="102" y="544"/>
      <point x="102" y="620" type="curve" smooth="yes"/>
      <point x="102" y="696"/>
      <point x="146" y="744"/>
      <point x="214" y="744" type="curve" smooth="yes"/>
      <point x="280" y="744"/>
      <point x="324" y="696"/>
      <point x="324" y="619" type="curve" smooth="yes"/>
      <point x="324" y="544"/>
      <point x="280" y="496"/>
    </contour>
  </outline>
</glyph>
<glyph name="p.sups" format="2">
  <advance width="395"/>
  <guideline x="-200" y="440" angle="0" name="Baseline (440)"/>
  <guideline x="-300" y="431" angle="0" name="Overshoot (431/9)"/>
  <guideline x="-200" y="800" angle="0" name="xHeight (800)"/>
  <guideline x="-300" y="809" angle="0" name="Overshoot (809/9)"/>
  <guideline x="-300" y="993" angle="0" name="SUPS Ascender (993)"/>
  <guideline x="-300" y="288" angle="0" name="SUPS Descender (288)"/>
  <outline>
    <contour>
      <point x="44" y="288" type="line"/>
      <point x="117" y="288" type="line"/>
      <point x="117" y="450" type="line"/>
      <point x="140" y="438"/>
      <point x="169" y="431"/>
      <point x="196" y="431" type="curve" smooth="yes"/>
      <point x="299" y="431"/>
      <point x="367" y="507"/>
      <point x="367" y="627" type="curve" smooth="yes"/>
      <point x="367" y="736"/>
      <point x="308" y="809"/>
      <point x="218" y="809" type="curve" smooth="yes"/>
      <point x="176" y="809"/>
      <point x="139" y="790"/>
      <point x="117" y="759" type="curve"/>
      <point x="117" y="800" type="line"/>
      <point x="44" y="800" type="line"/>
    </contour>
    <contour>
      <point x="188" y="493" type="curve" smooth="yes"/>
      <point x="162" y="493"/>
      <point x="138" y="500"/>
      <point x="117" y="513" type="curve"/>
      <point x="117" y="705" type="line"/>
      <point x="132" y="728"/>
      <point x="163" y="743"/>
      <point x="194" y="743" type="curve" smooth="yes"/>
      <point x="254" y="743"/>
      <point x="293" y="696"/>
      <point x="293" y="622" type="curve" smooth="yes"/>
      <point x="293" y="542"/>
      <point x="250" y="493"/>
    </contour>
  </outline>
</glyph>
<glyph name="paragraph.sc" format="2">
  <advance width="446"/>
  <guideline x="-300" y="-13" angle="0" name="Overshoot (-13/13)"/>
  <guideline x="-200" y="512" angle="0" name="xHeight (512)"/>
  <guideline x="-300" y="525" angle="0" name="Overshoot (525/13)"/>
  <outline>
    <contour>
      <point x="137" y="0" type="line"/>
      <point x="213" y="0" type="line"/>
      <point x="213" y="440" type="line"/>
      <point x="303" y="440" type="line"/>
      <point x="303" y="0" type="line"/>
      <point x="379" y="0" type="line"/>
      <point x="379" y="512" type="line"/>
      <point x="146" y="512" type="line" smooth="yes"/>
      <point x="76" y="512"/>
      <point x="31" y="472"/>
      <point x="31" y="409" type="curve" smooth="yes"/>
      <point x="31" y="348"/>
      <point x="72" y="309"/>
      <point x="137" y="309" type="curve"/>
    </contour>
  </outline>
</glyph>
<glyph name="percent.tab" format="2">
  <advance width="650"/>
  <guideline x="-300" y="-9" angle="0" name="Overshoot (-9/9)"/>
  <guideline x="-300" y="667" angle="0" name="Overshoot (667/9)"/>
  <outline>
    <contour>
      <point x="174" y="353" type="curve" smooth="yes"/>
      <point x="261" y="353"/>
      <point x="309" y="412"/>
      <point x="309" y="511" type="curve" smooth="yes"/>
      <point x="309" y="609"/>
      <point x="261" y="667"/>
      <point x="174" y="667" type="curve" smooth="yes"/>
      <point x="86" y="667"/>
      <point x="36" y="609"/>
      <point x="36" y="510" type="curve" smooth="yes"/>
      <point x="36" y="411"/>
      <point x="86" y="353"/>
    </contour>
    <contour>
      <point x="142" y="0" type="line"/>
      <point x="203" y="0" type="line"/>
      <point x="508" y="658" type="line"/>
      <point x="447" y="658" type="line"/>
    </contour>
    <contour>
      <point x="174" y="410" type="curve" smooth="yes"/>
      <point x="129" y="410"/>
      <point x="100" y="442"/>
      <point x="100" y="511" type="curve" smooth="yes"/>
      <point x="100" y="579"/>
      <point x="129" y="610"/>
      <point x="174" y="610" type="curve" smooth="yes"/>
      <point x="220" y="610"/>
      <point x="249" y="578"/>
      <point x="249" y="510" type="curve" smooth="yes"/>
      <point x="249" y="442"/>
      <point x="220" y="410"/>
    </contour>
    <contour>
      <point x="479" y="-9" type="curve" smooth="yes"/>
      <point x="565" y="-9"/>
      <point x="614" y="50"/>
      <point x="614" y="149" type="curve" smooth="yes"/>
      <point x="614" y="247"/>
      <point x="565" y="304"/>
      <point x="479" y="304" type="curve" smooth="yes"/>
      <point x="390" y="304"/>
      <point x="341" y="246"/>
      <point x="341" y="147" type="curve" smooth="yes"/>
      <point x="341" y="49"/>
      <point x="390" y="-9"/>
    </contour>
    <contour>
      <point x="479" y="48" type="curve" smooth="yes"/>
      <point x="434" y="48"/>
      <point x="405" y="80"/>
      <point x="405" y="149" type="curve" smooth="yes"/>
      <point x="405" y="217"/>
      <point x="434" y="248"/>
      <point x="479" y="248" type="curve" smooth="yes"/>
      <point x="524" y="248"/>
      <point x="553" y="216"/>
      <point x="553" y="147" type="curve" smooth="yes"/>
      <point x="553" y="79"/>
      <point x="524" y="48"/>
    </contour>
  </outline>
</glyph>
<glyph name="periodcmb" format="2">
  <guideline x="-300" y="-10" angle="0" name="Overshoot (-10/10)"/>
  <guideline x="-300" y="476" angle="0" name="Overshoot (476/10)"/>
  <guideline x="-300" y="661" angle="0" name="Top CMB (661)"/>
  <guideline x="-300" y="524" angle="0" name="Bottom CMB (524)"/>
  <guideline x="-300" y="238" angle="0" name="Middle+overshoot/2 CMB (238)"/>
  <outline>
    <contour>
      <point x="-42" y="0" type="line"/>
      <point x="42" y="0" type="line"/>
      <point x="42" y="84" type="line"/>
      <point x="-42" y="84" type="line"/>
    </contour>
  </outline>
</glyph>
